<svg width="608" height="370" viewBox="0 0 608 370" fill="none" xmlns="http://www.w3.org/2000/svg">
<g clip-path="url(#clip0_127_2535)">
<rect width="608" height="370" rx="16" fill="white"/>
<path d="M422.12 162.659C424.262 156.387 431.082 153.039 437.354 155.181L572.41 201.299C575.548 202.371 578.103 204.693 579.468 207.715L601.126 255.661C602.381 258.44 602.532 261.593 601.546 264.479L537.322 452.556C535.18 458.827 528.36 462.176 522.088 460.034L352.973 402.285C346.701 400.143 343.353 393.322 345.495 387.051L422.12 162.659Z" fill="#CBC3F0"/>
<path d="M418.521 154.356C420.662 148.084 427.483 144.736 433.755 146.878L578.813 196.413C581.907 197.469 584.435 199.741 585.815 202.705L609.413 253.406C610.72 256.214 610.891 259.418 609.89 262.348L542.788 458.852C540.646 465.124 533.826 468.472 527.554 466.33L345.856 404.284C339.584 402.142 336.236 395.322 338.377 389.05L418.521 154.356Z" fill="#CBC3F0" fill-opacity="0.25"/>
<rect x="435.77" y="177.154" width="125.419" height="15" rx="7.5" transform="rotate(18.854 435.77 177.154)" fill="white"/>
<rect x="392.983" y="299.914" width="74.7836" height="52" rx="8" transform="rotate(18.854 392.983 299.914)" fill="white" fill-opacity="0.5"/>
<rect x="472.894" y="325.088" width="76.7778" height="52" rx="8" transform="rotate(18.854 472.894 325.088)" fill="white" fill-opacity="0.5"/>
<rect x="370.955" y="365.463" width="161.261" height="17.1667" rx="8" transform="rotate(18.854 370.955 365.463)" fill="white" fill-opacity="0.5"/>
<ellipse cx="493.916" cy="266.224" rx="37.5" ry="39.5" transform="rotate(18.854 493.916 266.224)" fill="#E5E1F8"/>
<path d="M491.253 266.465C494.27 263.885 498.598 263.232 501.712 261.1C504.997 258.871 505.645 252.832 499.236 250.643C495.038 249.21 491.959 251.483 490.247 253.653L484.679 248.92C488.135 244.567 494.383 241.947 501.364 244.33C507.202 246.324 510.351 250.179 511.324 253.992C512.149 257.261 511.459 262.611 507.505 265.417C503.118 268.517 499.832 268.797 497.387 270.923C496.4 271.782 495.913 272.395 494.738 275.838L487.558 273.386C488.153 271.563 488.864 268.507 491.253 266.465ZM492.852 285.585C491.978 288.144 489.027 289.474 486.295 288.541C483.562 287.608 482.041 284.751 482.915 282.191C483.789 279.632 486.74 278.302 489.472 279.235C492.205 280.168 493.726 283.026 492.852 285.585Z" fill="white"/>
<path d="M28.3519 216.187C26.6366 209.785 30.4356 203.205 36.8372 201.49L175.144 164.431C178.341 163.574 181.75 164.076 184.565 165.818L229.373 193.55C231.971 195.158 233.858 197.696 234.649 200.648L286.084 392.606C287.799 399.008 284 405.588 277.599 407.303L104.418 453.707C98.0169 455.422 91.4369 451.623 89.7216 445.221L28.3519 216.187Z" fill="#F99A85"/>
<path d="M20.6058 211.714C18.8905 205.313 22.6895 198.733 29.0911 197.017L177.728 157.19C180.924 156.334 184.331 156.835 187.145 158.575L235.491 188.467C238.091 190.075 239.98 192.615 240.771 195.568L295.872 401.208C297.587 407.609 293.788 414.189 287.387 415.905L101.115 465.816C94.7139 467.531 88.1338 463.732 86.4185 457.33L20.6058 211.714Z" fill="#F99A85" fill-opacity="0.2"/>
<rect x="47.4395" y="221.098" width="126.491" height="24.3947" rx="8" transform="rotate(-15 47.4395 221.098)" fill="white"/>
<rect x="57.4961" y="258.625" width="161.728" height="13.5526" rx="6.77632" transform="rotate(-15 57.4961 258.625)" fill="white" fill-opacity="0.5"/>
<rect x="65.2119" y="287.424" width="161.728" height="13.5526" rx="6.77632" transform="rotate(-15 65.2119 287.424)" fill="white" fill-opacity="0.5"/>
<rect x="73.1631" y="317.098" width="161.728" height="13.5526" rx="6.77632" transform="rotate(-15 73.1631 317.098)" fill="white" fill-opacity="0.5"/>
<rect x="81.1133" y="346.77" width="161.728" height="51.5" rx="8" transform="rotate(-15 81.1133 346.77)" fill="white" fill-opacity="0.5"/>
<path d="M26.016 61V40.14H29.824V57.64H38.756V61H26.016ZM48.1351 61.336C46.5671 61.336 45.1951 60.9813 44.0191 60.272C42.8431 59.5627 41.9285 58.6013 41.2751 57.388C40.6218 56.1747 40.2951 54.8307 40.2951 53.356C40.2951 51.8253 40.6218 50.472 41.2751 49.296C41.9471 48.1013 42.8525 47.1587 43.9911 46.468C45.1485 45.7773 46.4365 45.432 47.8551 45.432C49.0498 45.432 50.0951 45.628 50.9911 46.02C51.9058 46.412 52.6805 46.9533 53.3151 47.644C53.9498 48.3347 54.4351 49.128 54.7711 50.024C55.1071 50.9013 55.2751 51.8533 55.2751 52.88C55.2751 53.1413 55.2565 53.412 55.2191 53.692C55.2005 53.972 55.1538 54.2147 55.0791 54.42H43.3191V51.62H53.0071L51.2711 52.936C51.4391 52.0773 51.3925 51.312 51.1311 50.64C50.8885 49.968 50.4778 49.436 49.8991 49.044C49.3391 48.652 48.6578 48.456 47.8551 48.456C47.0898 48.456 46.4085 48.652 45.8111 49.044C45.2138 49.4173 44.7565 49.9773 44.4391 50.724C44.1405 51.452 44.0285 52.3387 44.1031 53.384C44.0285 54.3173 44.1498 55.148 44.4671 55.876C44.8031 56.5853 45.2885 57.136 45.9231 57.528C46.5765 57.92 47.3231 58.116 48.1631 58.116C49.0031 58.116 49.7125 57.9387 50.2911 57.584C50.8885 57.2293 51.3551 56.7533 51.6911 56.156L54.6591 57.612C54.3605 58.34 53.8938 58.984 53.2591 59.544C52.6245 60.104 51.8685 60.5427 50.9911 60.86C50.1325 61.1773 49.1805 61.336 48.1351 61.336ZM62.621 61.336C61.557 61.336 60.633 61.1587 59.849 60.804C59.065 60.4493 58.4583 59.9453 58.029 59.292C57.5996 58.62 57.385 57.8453 57.385 56.968C57.385 56.128 57.5716 55.3813 57.945 54.728C58.3183 54.056 58.897 53.496 59.681 53.048C60.465 52.6 61.4543 52.2827 62.649 52.096L67.633 51.284V54.084L63.349 54.812C62.621 54.9427 62.0796 55.176 61.725 55.512C61.3703 55.848 61.193 56.2867 61.193 56.828C61.193 57.3507 61.389 57.7707 61.781 58.088C62.1916 58.3867 62.6956 58.536 63.293 58.536C64.0583 58.536 64.7303 58.3773 65.309 58.06C65.9063 57.724 66.3636 57.2667 66.681 56.688C67.017 56.1093 67.185 55.4747 67.185 54.784V50.864C67.185 50.2107 66.9236 49.6693 66.401 49.24C65.897 48.792 65.225 48.568 64.385 48.568C63.601 48.568 62.901 48.7827 62.285 49.212C61.6876 49.6227 61.249 50.1733 60.969 50.864L57.973 49.408C58.2716 48.6053 58.7383 47.9147 59.373 47.336C60.0263 46.7387 60.7916 46.272 61.669 45.936C62.5463 45.6 63.4983 45.432 64.525 45.432C65.7756 45.432 66.877 45.6653 67.829 46.132C68.781 46.58 69.5183 47.2147 70.041 48.036C70.5823 48.8387 70.853 49.7813 70.853 50.864V61H67.381V58.396L68.165 58.34C67.773 58.9933 67.3063 59.544 66.765 59.992C66.2236 60.4213 65.6076 60.7573 64.917 61C64.2263 61.224 63.461 61.336 62.621 61.336ZM74.2432 61V45.768H77.6872V49.156L77.4072 48.652C77.7618 47.5133 78.3125 46.72 79.0592 46.272C79.8245 45.824 80.7392 45.6 81.8032 45.6H82.6992V48.848H81.3832C80.3378 48.848 79.4978 49.1747 78.8632 49.828C78.2285 50.4627 77.9112 51.3587 77.9112 52.516V61H74.2432ZM84.7158 61V45.768H88.1598V48.764L87.8798 48.232C88.2345 47.3173 88.8131 46.6267 89.6158 46.16C90.4371 45.6747 91.3891 45.432 92.4718 45.432C93.5918 45.432 94.5811 45.6747 95.4398 46.16C96.3171 46.6453 96.9985 47.3267 97.4838 48.204C97.9691 49.0627 98.2118 50.0613 98.2118 51.2V61H94.5438V52.068C94.5438 51.396 94.4131 50.8173 94.1518 50.332C93.8905 49.8467 93.5265 49.4733 93.0598 49.212C92.6118 48.932 92.0798 48.792 91.4638 48.792C90.8665 48.792 90.3345 48.932 89.8678 49.212C89.4011 49.4733 89.0371 49.8467 88.7758 50.332C88.5145 50.8173 88.3838 51.396 88.3838 52.068V61H84.7158ZM113.234 61.168C111.517 61.168 110.182 60.7013 109.23 59.768C108.297 58.816 107.83 57.4813 107.83 55.764V49.044H105.198V45.768H105.478C106.225 45.768 106.803 45.572 107.214 45.18C107.625 44.788 107.83 44.2187 107.83 43.472V42.296H111.498V45.768H114.998V49.044H111.498V55.568C111.498 56.072 111.582 56.5013 111.75 56.856C111.937 57.2107 112.217 57.4813 112.59 57.668C112.982 57.8547 113.477 57.948 114.074 57.948C114.205 57.948 114.354 57.9387 114.522 57.92C114.709 57.9013 114.886 57.8827 115.054 57.864V61C114.793 61.0373 114.494 61.0747 114.158 61.112C113.822 61.1493 113.514 61.168 113.234 61.168ZM117.856 61V39.804H121.524V48.764L121.02 48.232C121.375 47.3173 121.954 46.6267 122.756 46.16C123.578 45.6747 124.53 45.432 125.612 45.432C126.732 45.432 127.722 45.6747 128.58 46.16C129.458 46.6453 130.139 47.3267 130.624 48.204C131.11 49.0627 131.352 50.0613 131.352 51.2V61H127.684V52.068C127.684 51.396 127.554 50.8173 127.292 50.332C127.031 49.8467 126.667 49.4733 126.2 49.212C125.752 48.932 125.22 48.792 124.604 48.792C124.007 48.792 123.475 48.932 123.008 49.212C122.542 49.4733 122.178 49.8467 121.916 50.332C121.655 50.8173 121.524 51.396 121.524 52.068V61H117.856ZM134.454 61V45.768H137.898V49.156L137.618 48.652C137.973 47.5133 138.523 46.72 139.27 46.272C140.035 45.824 140.95 45.6 142.014 45.6H142.91V48.848H141.594C140.549 48.848 139.709 49.1747 139.074 49.828C138.439 50.4627 138.122 51.3587 138.122 52.516V61H134.454ZM152.375 61.336C150.881 61.336 149.519 60.9907 148.287 60.3C147.073 59.6093 146.103 58.6667 145.375 57.472C144.665 56.2773 144.311 54.9147 144.311 53.384C144.311 51.8533 144.665 50.4907 145.375 49.296C146.103 48.1013 147.073 47.1587 148.287 46.468C149.5 45.7773 150.863 45.432 152.375 45.432C153.868 45.432 155.221 45.7773 156.435 46.468C157.648 47.1587 158.609 48.1013 159.319 49.296C160.047 50.472 160.411 51.8347 160.411 53.384C160.411 54.9147 160.047 56.2773 159.319 57.472C158.591 58.6667 157.62 59.6093 156.407 60.3C155.193 60.9907 153.849 61.336 152.375 61.336ZM152.375 57.976C153.196 57.976 153.915 57.78 154.531 57.388C155.165 56.996 155.66 56.4547 156.015 55.764C156.388 55.0547 156.575 54.2613 156.575 53.384C156.575 52.488 156.388 51.704 156.015 51.032C155.66 50.3413 155.165 49.8 154.531 49.408C153.915 48.9973 153.196 48.792 152.375 48.792C151.535 48.792 150.797 48.9973 150.163 49.408C149.528 49.8 149.024 50.3413 148.651 51.032C148.296 51.704 148.119 52.488 148.119 53.384C148.119 54.2613 148.296 55.0547 148.651 55.764C149.024 56.4547 149.528 56.996 150.163 57.388C150.797 57.78 151.535 57.976 152.375 57.976ZM168.624 61.336C167.448 61.336 166.422 61.0747 165.544 60.552C164.686 60.0293 164.023 59.3013 163.556 58.368C163.108 57.4347 162.884 56.3427 162.884 55.092V45.768H166.552V54.784C166.552 55.4187 166.674 55.9787 166.916 56.464C167.178 56.9307 167.542 57.304 168.008 57.584C168.494 57.8453 169.035 57.976 169.632 57.976C170.23 57.976 170.762 57.8453 171.228 57.584C171.695 57.304 172.059 56.9213 172.32 56.436C172.582 55.9507 172.712 55.372 172.712 54.7V45.768H176.38V61H172.908V58.004L173.216 58.536C172.862 59.4693 172.274 60.1693 171.452 60.636C170.65 61.1027 169.707 61.336 168.624 61.336ZM187.182 67.16C186.043 67.16 184.989 66.9733 184.018 66.6C183.047 66.2267 182.207 65.704 181.498 65.032C180.807 64.3787 180.303 63.604 179.986 62.708L183.402 61.42C183.626 62.1293 184.065 62.6987 184.718 63.128C185.39 63.576 186.211 63.8 187.182 63.8C187.929 63.8 188.582 63.66 189.142 63.38C189.721 63.1 190.169 62.6893 190.486 62.148C190.803 61.6253 190.962 60.9907 190.962 60.244V56.772L191.662 57.612C191.139 58.5267 190.439 59.2173 189.562 59.684C188.685 60.1507 187.686 60.384 186.566 60.384C185.147 60.384 183.878 60.0573 182.758 59.404C181.638 58.7507 180.761 57.8547 180.126 56.716C179.491 55.5773 179.174 54.2987 179.174 52.88C179.174 51.4427 179.491 50.164 180.126 49.044C180.761 47.924 181.629 47.0467 182.73 46.412C183.831 45.7587 185.082 45.432 186.482 45.432C187.621 45.432 188.619 45.6747 189.478 46.16C190.355 46.6267 191.083 47.308 191.662 48.204L191.158 49.128V45.768H194.63V60.244C194.63 61.5693 194.303 62.7547 193.65 63.8C193.015 64.8453 192.138 65.6667 191.018 66.264C189.917 66.8613 188.638 67.16 187.182 67.16ZM187.014 56.996C187.798 56.996 188.479 56.828 189.058 56.492C189.655 56.1373 190.122 55.652 190.458 55.036C190.794 54.42 190.962 53.7107 190.962 52.908C190.962 52.124 190.785 51.424 190.43 50.808C190.094 50.1733 189.627 49.6787 189.03 49.324C188.451 48.9693 187.779 48.792 187.014 48.792C186.249 48.792 185.558 48.9693 184.942 49.324C184.326 49.6787 183.841 50.1733 183.486 50.808C183.15 51.424 182.982 52.124 182.982 52.908C182.982 53.692 183.15 54.392 183.486 55.008C183.841 55.624 184.317 56.1093 184.914 56.464C185.53 56.8187 186.23 56.996 187.014 56.996ZM198.056 61V39.804H201.724V48.764L201.22 48.232C201.574 47.3173 202.153 46.6267 202.956 46.16C203.777 45.6747 204.729 45.432 205.812 45.432C206.932 45.432 207.921 45.6747 208.78 46.16C209.657 46.6453 210.338 47.3267 210.824 48.204C211.309 49.0627 211.552 50.0613 211.552 51.2V61H207.884V52.068C207.884 51.396 207.753 50.8173 207.492 50.332C207.23 49.8467 206.866 49.4733 206.4 49.212C205.952 48.932 205.42 48.792 204.804 48.792C204.206 48.792 203.674 48.932 203.208 49.212C202.741 49.4733 202.377 49.8467 202.116 50.332C201.854 50.8173 201.724 51.396 201.724 52.068V61H198.056ZM219.014 61V57.5H220.218C221.114 57.5 221.823 57.248 222.346 56.744C222.887 56.2213 223.158 55.5307 223.158 54.672V40.14H226.994V54.532C226.994 55.82 226.714 56.9493 226.154 57.92C225.613 58.8907 224.829 59.6467 223.802 60.188C222.794 60.7293 221.599 61 220.218 61H219.014ZM238.07 61.336C236.577 61.336 235.214 60.9907 233.982 60.3C232.769 59.6093 231.798 58.6667 231.07 57.472C230.361 56.2773 230.006 54.9147 230.006 53.384C230.006 51.8533 230.361 50.4907 231.07 49.296C231.798 48.1013 232.769 47.1587 233.982 46.468C235.195 45.7773 236.558 45.432 238.07 45.432C239.563 45.432 240.917 45.7773 242.13 46.468C243.343 47.1587 244.305 48.1013 245.014 49.296C245.742 50.472 246.106 51.8347 246.106 53.384C246.106 54.9147 245.742 56.2773 245.014 57.472C244.286 58.6667 243.315 59.6093 242.102 60.3C240.889 60.9907 239.545 61.336 238.07 61.336ZM238.07 57.976C238.891 57.976 239.61 57.78 240.226 57.388C240.861 56.996 241.355 56.4547 241.71 55.764C242.083 55.0547 242.27 54.2613 242.27 53.384C242.27 52.488 242.083 51.704 241.71 51.032C241.355 50.3413 240.861 49.8 240.226 49.408C239.61 48.9973 238.891 48.792 238.07 48.792C237.23 48.792 236.493 48.9973 235.858 49.408C235.223 49.8 234.719 50.3413 234.346 51.032C233.991 51.704 233.814 52.488 233.814 53.384C233.814 54.2613 233.991 55.0547 234.346 55.764C234.719 56.4547 235.223 56.996 235.858 57.388C236.493 57.78 237.23 57.976 238.07 57.976ZM257.204 61.336C256.102 61.336 255.085 61.1213 254.152 60.692C253.237 60.244 252.509 59.6093 251.968 58.788L252.332 58.06V61H248.888V39.804H252.556V48.792L251.996 48.036C252.518 47.2147 253.228 46.58 254.124 46.132C255.02 45.6653 256.056 45.432 257.232 45.432C258.669 45.432 259.966 45.7867 261.124 46.496C262.281 47.2053 263.196 48.1573 263.868 49.352C264.558 50.5467 264.904 51.8907 264.904 53.384C264.904 54.8587 264.568 56.2027 263.896 57.416C263.224 58.6293 262.309 59.5907 261.152 60.3C259.994 60.9907 258.678 61.336 257.204 61.336ZM256.784 57.976C257.624 57.976 258.37 57.78 259.024 57.388C259.677 56.996 260.181 56.4547 260.536 55.764C260.909 55.0733 261.096 54.28 261.096 53.384C261.096 52.488 260.909 51.704 260.536 51.032C260.181 50.3413 259.677 49.8 259.024 49.408C258.37 48.9973 257.624 48.792 256.784 48.792C255.981 48.792 255.253 48.988 254.6 49.38C253.965 49.772 253.461 50.3227 253.088 51.032C252.733 51.7227 252.556 52.5067 252.556 53.384C252.556 54.28 252.733 55.0733 253.088 55.764C253.461 56.4547 253.965 56.996 254.6 57.388C255.253 57.78 255.981 57.976 256.784 57.976ZM280.433 61.336C279.107 61.336 277.875 61.0933 276.737 60.608C275.617 60.1227 274.646 59.4507 273.825 58.592C273.022 57.7147 272.434 56.6973 272.061 55.54L275.225 54.168C275.729 55.3627 276.457 56.3053 277.409 56.996C278.361 57.668 279.434 58.004 280.629 58.004C281.301 58.004 281.879 57.9013 282.365 57.696C282.869 57.472 283.251 57.1733 283.513 56.8C283.793 56.4267 283.933 55.9787 283.933 55.456C283.933 54.84 283.746 54.336 283.373 53.944C283.018 53.5333 282.477 53.216 281.749 52.992L277.745 51.704C276.121 51.2 274.898 50.444 274.077 49.436C273.255 48.428 272.845 47.2427 272.845 45.88C272.845 44.6853 273.134 43.6307 273.713 42.716C274.31 41.8013 275.131 41.092 276.177 40.588C277.241 40.0653 278.454 39.804 279.817 39.804C281.067 39.804 282.215 40.028 283.261 40.476C284.306 40.9053 285.202 41.512 285.949 42.296C286.714 43.0613 287.283 43.9667 287.657 45.012L284.521 46.412C284.11 45.3667 283.494 44.564 282.673 44.004C281.851 43.4253 280.899 43.136 279.817 43.136C279.182 43.136 278.622 43.248 278.137 43.472C277.651 43.6773 277.269 43.976 276.989 44.368C276.727 44.7413 276.597 45.1893 276.597 45.712C276.597 46.2907 276.783 46.804 277.157 47.252C277.53 47.6813 278.099 48.0173 278.865 48.26L282.701 49.464C284.362 50.0053 285.603 50.752 286.425 51.704C287.265 52.656 287.685 53.832 287.685 55.232C287.685 56.4267 287.377 57.4813 286.761 58.396C286.145 59.3107 285.295 60.0293 284.213 60.552C283.13 61.0747 281.87 61.336 280.433 61.336ZM290.806 61V45.768H294.474V61H290.806ZM290.806 44.06V40.14H294.474V44.06H290.806ZM297.86 61V45.768H301.304V49.296L300.912 48.708C301.192 47.6067 301.752 46.7853 302.592 46.244C303.432 45.7027 304.422 45.432 305.56 45.432C306.811 45.432 307.912 45.7587 308.864 46.412C309.816 47.0653 310.432 47.924 310.712 48.988L309.676 49.072C310.143 47.8587 310.843 46.9533 311.776 46.356C312.71 45.74 313.783 45.432 314.996 45.432C316.079 45.432 317.04 45.6747 317.88 46.16C318.739 46.6453 319.411 47.3267 319.896 48.204C320.382 49.0627 320.624 50.0613 320.624 51.2V61H316.956V52.068C316.956 51.396 316.835 50.8173 316.592 50.332C316.35 49.8467 316.014 49.4733 315.584 49.212C315.155 48.932 314.632 48.792 314.016 48.792C313.438 48.792 312.924 48.932 312.476 49.212C312.028 49.4733 311.683 49.8467 311.44 50.332C311.198 50.8173 311.076 51.396 311.076 52.068V61H307.408V52.068C307.408 51.396 307.287 50.8173 307.044 50.332C306.802 49.8467 306.456 49.4733 306.008 49.212C305.579 48.932 305.066 48.792 304.468 48.792C303.89 48.792 303.376 48.932 302.928 49.212C302.48 49.4733 302.135 49.8467 301.892 50.332C301.65 50.8173 301.528 51.396 301.528 52.068V61H297.86ZM329.16 61.336C327.984 61.336 326.957 61.0747 326.08 60.552C325.221 60.0293 324.558 59.3013 324.092 58.368C323.644 57.4347 323.42 56.3427 323.42 55.092V45.768H327.088V54.784C327.088 55.4187 327.209 55.9787 327.452 56.464C327.713 56.9307 328.077 57.304 328.544 57.584C329.029 57.8453 329.57 57.976 330.168 57.976C330.765 57.976 331.297 57.8453 331.764 57.584C332.23 57.304 332.594 56.9213 332.856 56.436C333.117 55.9507 333.248 55.372 333.248 54.7V45.768H336.916V61H333.444V58.004L333.752 58.536C333.397 59.4693 332.809 60.1693 331.988 60.636C331.185 61.1027 330.242 61.336 329.16 61.336ZM340.325 61V39.804H343.993V61H340.325ZM352 61.336C350.936 61.336 350.012 61.1587 349.228 60.804C348.444 60.4493 347.837 59.9453 347.408 59.292C346.979 58.62 346.764 57.8453 346.764 56.968C346.764 56.128 346.951 55.3813 347.324 54.728C347.697 54.056 348.276 53.496 349.06 53.048C349.844 52.6 350.833 52.2827 352.028 52.096L357.012 51.284V54.084L352.728 54.812C352 54.9427 351.459 55.176 351.104 55.512C350.749 55.848 350.572 56.2867 350.572 56.828C350.572 57.3507 350.768 57.7707 351.16 58.088C351.571 58.3867 352.075 58.536 352.672 58.536C353.437 58.536 354.109 58.3773 354.688 58.06C355.285 57.724 355.743 57.2667 356.06 56.688C356.396 56.1093 356.564 55.4747 356.564 54.784V50.864C356.564 50.2107 356.303 49.6693 355.78 49.24C355.276 48.792 354.604 48.568 353.764 48.568C352.98 48.568 352.28 48.7827 351.664 49.212C351.067 49.6227 350.628 50.1733 350.348 50.864L347.352 49.408C347.651 48.6053 348.117 47.9147 348.752 47.336C349.405 46.7387 350.171 46.272 351.048 45.936C351.925 45.6 352.877 45.432 353.904 45.432C355.155 45.432 356.256 45.6653 357.208 46.132C358.16 46.58 358.897 47.2147 359.42 48.036C359.961 48.8387 360.232 49.7813 360.232 50.864V61H356.76V58.396L357.544 58.34C357.152 58.9933 356.685 59.544 356.144 59.992C355.603 60.4213 354.987 60.7573 354.296 61C353.605 61.224 352.84 61.336 352 61.336ZM370.293 61.168C368.575 61.168 367.241 60.7013 366.289 59.768C365.355 58.816 364.889 57.4813 364.889 55.764V49.044H362.257V45.768H362.537C363.283 45.768 363.862 45.572 364.273 45.18C364.683 44.788 364.889 44.2187 364.889 43.472V42.296H368.557V45.768H372.057V49.044H368.557V55.568C368.557 56.072 368.641 56.5013 368.809 56.856C368.995 57.2107 369.275 57.4813 369.649 57.668C370.041 57.8547 370.535 57.948 371.133 57.948C371.263 57.948 371.413 57.9387 371.581 57.92C371.767 57.9013 371.945 57.8827 372.113 57.864V61C371.851 61.0373 371.553 61.0747 371.217 61.112C370.881 61.1493 370.573 61.168 370.293 61.168ZM374.915 61V45.768H378.583V61H374.915ZM374.915 44.06V40.14H378.583V44.06H374.915ZM389.418 61.336C387.924 61.336 386.562 60.9907 385.33 60.3C384.116 59.6093 383.146 58.6667 382.418 57.472C381.708 56.2773 381.354 54.9147 381.354 53.384C381.354 51.8533 381.708 50.4907 382.418 49.296C383.146 48.1013 384.116 47.1587 385.33 46.468C386.543 45.7773 387.906 45.432 389.418 45.432C390.911 45.432 392.264 45.7773 393.478 46.468C394.691 47.1587 395.652 48.1013 396.362 49.296C397.09 50.472 397.454 51.8347 397.454 53.384C397.454 54.9147 397.09 56.2773 396.362 57.472C395.634 58.6667 394.663 59.6093 393.45 60.3C392.236 60.9907 390.892 61.336 389.418 61.336ZM389.418 57.976C390.239 57.976 390.958 57.78 391.574 57.388C392.208 56.996 392.703 56.4547 393.058 55.764C393.431 55.0547 393.618 54.2613 393.618 53.384C393.618 52.488 393.431 51.704 393.058 51.032C392.703 50.3413 392.208 49.8 391.574 49.408C390.958 48.9973 390.239 48.792 389.418 48.792C388.578 48.792 387.84 48.9973 387.206 49.408C386.571 49.8 386.067 50.3413 385.694 51.032C385.339 51.704 385.162 52.488 385.162 53.384C385.162 54.2613 385.339 55.0547 385.694 55.764C386.067 56.4547 386.571 56.996 387.206 57.388C387.84 57.78 388.578 57.976 389.418 57.976ZM400.235 61V45.768H403.679V48.764L403.399 48.232C403.754 47.3173 404.333 46.6267 405.135 46.16C405.957 45.6747 406.909 45.432 407.991 45.432C409.111 45.432 410.101 45.6747 410.959 46.16C411.837 46.6453 412.518 47.3267 413.003 48.204C413.489 49.0627 413.731 50.0613 413.731 51.2V61H410.063V52.068C410.063 51.396 409.933 50.8173 409.671 50.332C409.41 49.8467 409.046 49.4733 408.579 49.212C408.131 48.932 407.599 48.792 406.983 48.792C406.386 48.792 405.854 48.932 405.387 49.212C404.921 49.4733 404.557 49.8467 404.295 50.332C404.034 50.8173 403.903 51.396 403.903 52.068V61H400.235ZM422.118 61V40.14H429.902C431.32 40.14 432.571 40.4013 433.654 40.924C434.755 41.428 435.614 42.1747 436.23 43.164C436.846 44.1347 437.154 45.32 437.154 46.72C437.154 48.1013 436.836 49.2867 436.202 50.276C435.586 51.2467 434.736 51.9933 433.654 52.516C432.571 53.0387 431.32 53.3 429.902 53.3H425.926V61H422.118ZM425.926 49.94H429.958C430.648 49.94 431.246 49.8093 431.75 49.548C432.254 49.268 432.646 48.8853 432.926 48.4C433.206 47.9147 433.346 47.3547 433.346 46.72C433.346 46.0667 433.206 45.5067 432.926 45.04C432.646 44.5547 432.254 44.1813 431.75 43.92C431.246 43.64 430.648 43.5 429.958 43.5H425.926V49.94ZM439.966 61V45.768H443.41V49.156L443.13 48.652C443.484 47.5133 444.035 46.72 444.782 46.272C445.547 45.824 446.462 45.6 447.526 45.6H448.422V48.848H447.106C446.06 48.848 445.22 49.1747 444.586 49.828C443.951 50.4627 443.634 51.3587 443.634 52.516V61H439.966ZM457.886 61.336C456.393 61.336 455.03 60.9907 453.798 60.3C452.585 59.6093 451.614 58.6667 450.886 57.472C450.177 56.2773 449.822 54.9147 449.822 53.384C449.822 51.8533 450.177 50.4907 450.886 49.296C451.614 48.1013 452.585 47.1587 453.798 46.468C455.012 45.7773 456.374 45.432 457.886 45.432C459.38 45.432 460.733 45.7773 461.946 46.468C463.16 47.1587 464.121 48.1013 464.83 49.296C465.558 50.472 465.922 51.8347 465.922 53.384C465.922 54.9147 465.558 56.2773 464.83 57.472C464.102 58.6667 463.132 59.6093 461.918 60.3C460.705 60.9907 459.361 61.336 457.886 61.336ZM457.886 57.976C458.708 57.976 459.426 57.78 460.042 57.388C460.677 56.996 461.172 56.4547 461.526 55.764C461.9 55.0547 462.086 54.2613 462.086 53.384C462.086 52.488 461.9 51.704 461.526 51.032C461.172 50.3413 460.677 49.8 460.042 49.408C459.426 48.9973 458.708 48.792 457.886 48.792C457.046 48.792 456.309 48.9973 455.674 49.408C455.04 49.8 454.536 50.3413 454.162 51.032C453.808 51.704 453.63 52.488 453.63 53.384C453.63 54.2613 453.808 55.0547 454.162 55.764C454.536 56.4547 455.04 56.996 455.674 57.388C456.309 57.78 457.046 57.976 457.886 57.976ZM466.604 67.188C466.361 67.188 466.109 67.1787 465.848 67.16C465.587 67.1413 465.372 67.1133 465.204 67.076V63.884C465.54 63.94 465.876 63.968 466.212 63.968C466.996 63.968 467.603 63.7813 468.032 63.408C468.48 63.0533 468.704 62.5027 468.704 61.756V45.768H472.372V61.756C472.372 62.9133 472.139 63.8933 471.672 64.696C471.205 65.5173 470.533 66.1333 469.656 66.544C468.797 66.9733 467.78 67.188 466.604 67.188ZM468.704 44.06V40.14H472.372V44.06H468.704ZM482.983 61.336C481.415 61.336 480.043 60.9813 478.867 60.272C477.691 59.5627 476.776 58.6013 476.123 57.388C475.469 56.1747 475.143 54.8307 475.143 53.356C475.143 51.8253 475.469 50.472 476.123 49.296C476.795 48.1013 477.7 47.1587 478.839 46.468C479.996 45.7773 481.284 45.432 482.703 45.432C483.897 45.432 484.943 45.628 485.839 46.02C486.753 46.412 487.528 46.9533 488.163 47.644C488.797 48.3347 489.283 49.128 489.619 50.024C489.955 50.9013 490.123 51.8533 490.123 52.88C490.123 53.1413 490.104 53.412 490.067 53.692C490.048 53.972 490.001 54.2147 489.927 54.42H478.167V51.62H487.855L486.119 52.936C486.287 52.0773 486.24 51.312 485.979 50.64C485.736 49.968 485.325 49.436 484.747 49.044C484.187 48.652 483.505 48.456 482.703 48.456C481.937 48.456 481.256 48.652 480.659 49.044C480.061 49.4173 479.604 49.9773 479.287 50.724C478.988 51.452 478.876 52.3387 478.951 53.384C478.876 54.3173 478.997 55.148 479.315 55.876C479.651 56.5853 480.136 57.136 480.771 57.528C481.424 57.92 482.171 58.116 483.011 58.116C483.851 58.116 484.56 57.9387 485.139 57.584C485.736 57.2293 486.203 56.7533 486.539 56.156L489.507 57.612C489.208 58.34 488.741 58.984 488.107 59.544C487.472 60.104 486.716 60.5427 485.839 60.86C484.98 61.1773 484.028 61.336 482.983 61.336ZM500.239 61.336C498.727 61.336 497.365 60.9907 496.151 60.3C494.957 59.5907 494.014 58.6387 493.323 57.444C492.633 56.2307 492.287 54.868 492.287 53.356C492.287 51.844 492.633 50.4907 493.323 49.296C494.014 48.1013 494.957 47.1587 496.151 46.468C497.365 45.7773 498.727 45.432 500.239 45.432C501.322 45.432 502.33 45.628 503.263 46.02C504.197 46.3933 504.999 46.916 505.671 47.588C506.362 48.2413 506.857 49.0253 507.155 49.94L503.935 51.34C503.655 50.5747 503.179 49.9587 502.507 49.492C501.854 49.0253 501.098 48.792 500.239 48.792C499.437 48.792 498.718 48.988 498.083 49.38C497.467 49.772 496.982 50.3133 496.627 51.004C496.273 51.6947 496.095 52.488 496.095 53.384C496.095 54.28 496.273 55.0733 496.627 55.764C496.982 56.4547 497.467 56.996 498.083 57.388C498.718 57.78 499.437 57.976 500.239 57.976C501.117 57.976 501.882 57.7427 502.535 57.276C503.189 56.8093 503.655 56.184 503.935 55.4L507.155 56.856C506.857 57.7147 506.371 58.4893 505.699 59.18C505.027 59.852 504.225 60.384 503.291 60.776C502.358 61.1493 501.341 61.336 500.239 61.336ZM516.882 61.168C515.165 61.168 513.83 60.7013 512.878 59.768C511.945 58.816 511.478 57.4813 511.478 55.764V49.044H508.846V45.768H509.126C509.873 45.768 510.452 45.572 510.862 45.18C511.273 44.788 511.478 44.2187 511.478 43.472V42.296H515.146V45.768H518.646V49.044H515.146V55.568C515.146 56.072 515.23 56.5013 515.398 56.856C515.585 57.2107 515.865 57.4813 516.238 57.668C516.63 57.8547 517.125 57.948 517.722 57.948C517.853 57.948 518.002 57.9387 518.17 57.92C518.357 57.9013 518.534 57.8827 518.702 57.864V61C518.441 61.0373 518.142 61.0747 517.806 61.112C517.47 61.1493 517.162 61.168 516.882 61.168ZM527.301 61.336C525.677 61.336 524.258 60.9533 523.045 60.188C521.85 59.404 521.029 58.3493 520.581 57.024L523.325 55.708C523.717 56.5667 524.258 57.2387 524.949 57.724C525.658 58.2093 526.442 58.452 527.301 58.452C527.973 58.452 528.505 58.3027 528.897 58.004C529.289 57.7053 529.485 57.3133 529.485 56.828C529.485 56.5293 529.401 56.2867 529.233 56.1C529.084 55.8947 528.869 55.7267 528.589 55.596C528.328 55.4467 528.038 55.3253 527.721 55.232L525.229 54.532C523.941 54.1587 522.961 53.5893 522.289 52.824C521.636 52.0587 521.309 51.1533 521.309 50.108C521.309 49.1747 521.542 48.3627 522.009 47.672C522.494 46.9627 523.157 46.412 523.997 46.02C524.856 45.628 525.836 45.432 526.937 45.432C528.374 45.432 529.644 45.7773 530.745 46.468C531.846 47.1587 532.63 48.1293 533.097 49.38L530.297 50.696C530.036 50.0053 529.597 49.4547 528.981 49.044C528.365 48.6333 527.674 48.428 526.909 48.428C526.293 48.428 525.808 48.568 525.453 48.848C525.098 49.128 524.921 49.492 524.921 49.94C524.921 50.22 524.996 50.4627 525.145 50.668C525.294 50.8733 525.5 51.0413 525.761 51.172C526.041 51.3027 526.358 51.424 526.713 51.536L529.149 52.264C530.4 52.6373 531.361 53.1973 532.033 53.944C532.724 54.6907 533.069 55.6053 533.069 56.688C533.069 57.6027 532.826 58.4147 532.341 59.124C531.856 59.8147 531.184 60.356 530.325 60.748C529.466 61.14 528.458 61.336 527.301 61.336Z" fill="black"/>
<path d="M25.584 104V90.59H34.224V91.94H27.024V96.602H33.864V97.952H27.024V102.65H34.224V104H25.584ZM36.4075 104V94.352H37.7575V96.224L37.4515 96.152C37.6915 95.528 38.0815 95.036 38.6215 94.676C39.1735 94.316 39.8095 94.136 40.5295 94.136C41.2135 94.136 41.8255 94.292 42.3655 94.604C42.9175 94.916 43.3495 95.348 43.6615 95.9C43.9855 96.44 44.1475 97.052 44.1475 97.736V104H42.7975V98.258C42.7975 97.67 42.6895 97.172 42.4735 96.764C42.2695 96.356 41.9755 96.044 41.5915 95.828C41.2195 95.6 40.7875 95.486 40.2955 95.486C39.8035 95.486 39.3655 95.6 38.9815 95.828C38.5975 96.044 38.2975 96.362 38.0815 96.782C37.8655 97.19 37.7575 97.682 37.7575 98.258V104H36.4075ZM51.2978 107.96C50.6378 107.96 50.0258 107.858 49.4618 107.654C48.9098 107.45 48.4298 107.168 48.0218 106.808C47.6258 106.46 47.3198 106.052 47.1038 105.584L48.3458 104.918C48.5378 105.374 48.8798 105.77 49.3718 106.106C49.8638 106.442 50.4938 106.61 51.2618 106.61C51.8498 106.61 52.3898 106.496 52.8818 106.268C53.3738 106.04 53.7698 105.704 54.0698 105.26C54.3698 104.816 54.5198 104.27 54.5198 103.622V101.48L54.7358 101.678C54.3998 102.374 53.9018 102.914 53.2418 103.298C52.5818 103.67 51.8618 103.856 51.0818 103.856C50.1818 103.856 49.3718 103.64 48.6518 103.208C47.9318 102.776 47.3618 102.194 46.9418 101.462C46.5338 100.718 46.3298 99.896 46.3298 98.996C46.3298 98.084 46.5338 97.262 46.9418 96.53C47.3618 95.798 47.9258 95.216 48.6338 94.784C49.3538 94.352 50.1698 94.136 51.0818 94.136C51.8618 94.136 52.5698 94.316 53.2058 94.676C53.8538 95.036 54.3638 95.522 54.7358 96.134L54.5198 96.512V94.352H55.8698V103.622C55.8698 104.45 55.6718 105.188 55.2758 105.836C54.8918 106.496 54.3518 107.012 53.6558 107.384C52.9718 107.768 52.1858 107.96 51.2978 107.96ZM51.1538 102.506C51.7778 102.506 52.3418 102.35 52.8458 102.038C53.3498 101.714 53.7518 101.288 54.0518 100.76C54.3638 100.22 54.5198 99.632 54.5198 98.996C54.5198 98.36 54.3638 97.778 54.0518 97.25C53.7518 96.71 53.3498 96.284 52.8458 95.972C52.3418 95.648 51.7778 95.486 51.1538 95.486C50.5178 95.486 49.9418 95.648 49.4258 95.972C48.9098 96.284 48.5018 96.704 48.2018 97.232C47.9138 97.76 47.7698 98.348 47.7698 98.996C47.7698 99.632 47.9138 100.22 48.2018 100.76C48.5018 101.288 48.9038 101.714 49.4078 102.038C49.9238 102.35 50.5058 102.506 51.1538 102.506ZM61.4338 104.216C60.8218 104.216 60.2758 104.102 59.7958 103.874C59.3158 103.634 58.9378 103.31 58.6618 102.902C58.3858 102.494 58.2478 102.026 58.2478 101.498C58.2478 100.994 58.3558 100.538 58.5718 100.13C58.7878 99.71 59.1238 99.356 59.5798 99.068C60.0358 98.78 60.6178 98.576 61.3258 98.456L65.1058 97.826V99.05L61.6498 99.626C60.9538 99.746 60.4498 99.968 60.1378 100.292C59.8378 100.616 59.6878 101 59.6878 101.444C59.6878 101.876 59.8558 102.242 60.1918 102.542C60.5398 102.842 60.9838 102.992 61.5238 102.992C62.1838 102.992 62.7598 102.854 63.2518 102.578C63.7438 102.29 64.1278 101.906 64.4038 101.426C64.6798 100.946 64.8178 100.412 64.8178 99.824V97.376C64.8178 96.8 64.6078 96.332 64.1878 95.972C63.7678 95.612 63.2218 95.432 62.5498 95.432C61.9618 95.432 61.4458 95.582 61.0018 95.882C60.5578 96.17 60.2278 96.548 60.0118 97.016L58.7878 96.35C58.9678 95.942 59.2498 95.57 59.6338 95.234C60.0298 94.898 60.4798 94.634 60.9838 94.442C61.4878 94.238 62.0098 94.136 62.5498 94.136C63.2578 94.136 63.8818 94.274 64.4218 94.55C64.9738 94.826 65.3998 95.21 65.6998 95.702C66.0118 96.182 66.1678 96.74 66.1678 97.376V104H64.8178V102.074L65.0158 102.272C64.8478 102.632 64.5838 102.962 64.2238 103.262C63.8758 103.55 63.4618 103.784 62.9818 103.964C62.5138 104.132 61.9978 104.216 61.4338 104.216ZM73.5166 107.96C72.8566 107.96 72.2446 107.858 71.6806 107.654C71.1286 107.45 70.6486 107.168 70.2406 106.808C69.8446 106.46 69.5386 106.052 69.3226 105.584L70.5646 104.918C70.7566 105.374 71.0986 105.77 71.5906 106.106C72.0826 106.442 72.7126 106.61 73.4806 106.61C74.0686 106.61 74.6086 106.496 75.1006 106.268C75.5926 106.04 75.9886 105.704 76.2886 105.26C76.5886 104.816 76.7386 104.27 76.7386 103.622V101.48L76.9546 101.678C76.6186 102.374 76.1206 102.914 75.4606 103.298C74.8006 103.67 74.0806 103.856 73.3006 103.856C72.4006 103.856 71.5906 103.64 70.8706 103.208C70.1506 102.776 69.5806 102.194 69.1606 101.462C68.7526 100.718 68.5486 99.896 68.5486 98.996C68.5486 98.084 68.7526 97.262 69.1606 96.53C69.5806 95.798 70.1446 95.216 70.8526 94.784C71.5726 94.352 72.3886 94.136 73.3006 94.136C74.0806 94.136 74.7886 94.316 75.4246 94.676C76.0726 95.036 76.5826 95.522 76.9546 96.134L76.7386 96.512V94.352H78.0886V103.622C78.0886 104.45 77.8906 105.188 77.4946 105.836C77.1106 106.496 76.5706 107.012 75.8746 107.384C75.1906 107.768 74.4046 107.96 73.5166 107.96ZM73.3726 102.506C73.9966 102.506 74.5606 102.35 75.0646 102.038C75.5686 101.714 75.9706 101.288 76.2706 100.76C76.5826 100.22 76.7386 99.632 76.7386 98.996C76.7386 98.36 76.5826 97.778 76.2706 97.25C75.9706 96.71 75.5686 96.284 75.0646 95.972C74.5606 95.648 73.9966 95.486 73.3726 95.486C72.7366 95.486 72.1606 95.648 71.6446 95.972C71.1286 96.284 70.7206 96.704 70.4206 97.232C70.1326 97.76 69.9886 98.348 69.9886 98.996C69.9886 99.632 70.1326 100.22 70.4206 100.76C70.7206 101.288 71.1226 101.714 71.6266 102.038C72.1426 102.35 72.7246 102.506 73.3726 102.506ZM85.2546 104.216C84.3546 104.216 83.5386 104 82.8066 103.568C82.0866 103.124 81.5166 102.518 81.0966 101.75C80.6766 100.982 80.4666 100.112 80.4666 99.14C80.4666 98.168 80.6706 97.31 81.0786 96.566C81.4866 95.81 82.0386 95.216 82.7346 94.784C83.4426 94.352 84.2346 94.136 85.1106 94.136C85.8066 94.136 86.4246 94.268 86.9646 94.532C87.5166 94.784 87.9846 95.132 88.3686 95.576C88.7526 96.008 89.0466 96.5 89.2506 97.052C89.4546 97.592 89.5566 98.15 89.5566 98.726C89.5566 98.846 89.5506 98.984 89.5386 99.14C89.5266 99.284 89.5086 99.434 89.4846 99.59H81.3306V98.33H88.7106L88.0626 98.87C88.1706 98.21 88.0926 97.622 87.8286 97.106C87.5766 96.578 87.2106 96.164 86.7306 95.864C86.2506 95.552 85.7106 95.396 85.1106 95.396C84.5106 95.396 83.9526 95.552 83.4366 95.864C82.9326 96.176 82.5366 96.614 82.2486 97.178C81.9606 97.73 81.8466 98.39 81.9066 99.158C81.8466 99.926 81.9666 100.598 82.2666 101.174C82.5786 101.738 82.9986 102.176 83.5266 102.488C84.0666 102.8 84.6426 102.956 85.2546 102.956C85.9626 102.956 86.5566 102.788 87.0366 102.452C87.5166 102.116 87.9066 101.696 88.2066 101.192L89.3586 101.804C89.1666 102.236 88.8726 102.638 88.4766 103.01C88.0806 103.37 87.6066 103.664 87.0546 103.892C86.5146 104.108 85.9146 104.216 85.2546 104.216ZM94.9954 104V94.352H96.3454V104H94.9954ZM94.9954 92.57V90.59H96.3454V92.57H94.9954ZM99.1087 104V94.352H100.459V96.224L100.153 96.152C100.393 95.528 100.783 95.036 101.323 94.676C101.875 94.316 102.511 94.136 103.231 94.136C103.915 94.136 104.527 94.292 105.067 94.604C105.619 94.916 106.051 95.348 106.363 95.9C106.687 96.44 106.849 97.052 106.849 97.736V104H105.499V98.258C105.499 97.67 105.391 97.172 105.175 96.764C104.971 96.356 104.677 96.044 104.293 95.828C103.921 95.6 103.489 95.486 102.997 95.486C102.505 95.486 102.067 95.6 101.683 95.828C101.299 96.044 100.999 96.362 100.783 96.782C100.567 97.19 100.459 97.682 100.459 98.258V104H99.1087ZM112.486 107.6V94.352H113.836V96.512L113.62 96.134C114.004 95.522 114.514 95.036 115.15 94.676C115.798 94.316 116.536 94.136 117.364 94.136C118.276 94.136 119.086 94.358 119.794 94.802C120.514 95.234 121.078 95.828 121.486 96.584C121.906 97.34 122.116 98.204 122.116 99.176C122.116 100.136 121.906 101 121.486 101.768C121.078 102.524 120.514 103.124 119.794 103.568C119.086 104 118.276 104.216 117.364 104.216C116.536 104.216 115.786 104.03 115.114 103.658C114.454 103.274 113.956 102.734 113.62 102.038L113.836 101.84V107.6H112.486ZM117.292 102.866C117.94 102.866 118.516 102.704 119.02 102.38C119.536 102.056 119.938 101.618 120.226 101.066C120.526 100.502 120.676 99.872 120.676 99.176C120.676 98.468 120.526 97.838 120.226 97.286C119.938 96.734 119.536 96.296 119.02 95.972C118.516 95.648 117.94 95.486 117.292 95.486C116.644 95.486 116.056 95.648 115.528 95.972C115.012 96.296 114.598 96.74 114.286 97.304C113.986 97.856 113.836 98.48 113.836 99.176C113.836 99.872 113.986 100.502 114.286 101.066C114.598 101.618 115.012 102.056 115.528 102.38C116.056 102.704 116.644 102.866 117.292 102.866ZM124.491 104V94.352H125.841V95.936L125.661 95.702C125.889 95.246 126.231 94.886 126.687 94.622C127.155 94.358 127.719 94.226 128.379 94.226H128.991V95.576H128.145C127.449 95.576 126.891 95.792 126.471 96.224C126.051 96.656 125.841 97.268 125.841 98.06V104H124.491ZM135.092 104.216C134.18 104.216 133.352 104 132.608 103.568C131.864 103.124 131.27 102.524 130.826 101.768C130.394 101 130.178 100.13 130.178 99.158C130.178 98.198 130.394 97.34 130.826 96.584C131.258 95.828 131.84 95.234 132.572 94.802C133.316 94.358 134.156 94.136 135.092 94.136C136.028 94.136 136.862 94.352 137.594 94.784C138.338 95.216 138.92 95.81 139.34 96.566C139.772 97.322 139.988 98.186 139.988 99.158C139.988 100.142 139.766 101.018 139.322 101.786C138.878 102.542 138.284 103.136 137.54 103.568C136.808 104 135.992 104.216 135.092 104.216ZM135.092 102.866C135.74 102.866 136.322 102.704 136.838 102.38C137.366 102.056 137.78 101.612 138.08 101.048C138.392 100.484 138.548 99.854 138.548 99.158C138.548 98.462 138.392 97.838 138.08 97.286C137.78 96.734 137.366 96.296 136.838 95.972C136.322 95.648 135.74 95.486 135.092 95.486C134.444 95.486 133.856 95.648 133.328 95.972C132.812 96.296 132.398 96.734 132.086 97.286C131.774 97.838 131.618 98.462 131.618 99.158C131.618 99.854 131.774 100.484 132.086 101.048C132.398 101.612 132.812 102.056 133.328 102.38C133.856 102.704 134.444 102.866 135.092 102.866ZM140.568 107.96C140.484 107.96 140.37 107.954 140.226 107.942C140.07 107.93 139.944 107.912 139.848 107.888V106.646C140.1 106.682 140.352 106.7 140.604 106.7C141.096 106.7 141.51 106.55 141.846 106.25C142.194 105.95 142.368 105.5 142.368 104.9V94.352H143.718V104.9C143.718 105.56 143.574 106.118 143.286 106.574C142.998 107.03 142.614 107.372 142.134 107.6C141.666 107.84 141.144 107.96 140.568 107.96ZM142.368 92.57V90.59H143.718V92.57H142.368ZM150.874 104.216C149.974 104.216 149.158 104 148.426 103.568C147.706 103.124 147.136 102.518 146.716 101.75C146.296 100.982 146.086 100.112 146.086 99.14C146.086 98.168 146.29 97.31 146.698 96.566C147.106 95.81 147.658 95.216 148.354 94.784C149.062 94.352 149.854 94.136 150.73 94.136C151.426 94.136 152.044 94.268 152.584 94.532C153.136 94.784 153.604 95.132 153.988 95.576C154.372 96.008 154.666 96.5 154.87 97.052C155.074 97.592 155.176 98.15 155.176 98.726C155.176 98.846 155.17 98.984 155.158 99.14C155.146 99.284 155.128 99.434 155.104 99.59H146.95V98.33H154.33L153.682 98.87C153.79 98.21 153.712 97.622 153.448 97.106C153.196 96.578 152.83 96.164 152.35 95.864C151.87 95.552 151.33 95.396 150.73 95.396C150.13 95.396 149.572 95.552 149.056 95.864C148.552 96.176 148.156 96.614 147.868 97.178C147.58 97.73 147.466 98.39 147.526 99.158C147.466 99.926 147.586 100.598 147.886 101.174C148.198 101.738 148.618 102.176 149.146 102.488C149.686 102.8 150.262 102.956 150.874 102.956C151.582 102.956 152.176 102.788 152.656 102.452C153.136 102.116 153.526 101.696 153.826 101.192L154.978 101.804C154.786 102.236 154.492 102.638 154.096 103.01C153.7 103.37 153.226 103.664 152.674 103.892C152.134 104.108 151.534 104.216 150.874 104.216ZM161.966 104.216C161.018 104.216 160.184 103.994 159.464 103.55C158.744 103.106 158.18 102.506 157.772 101.75C157.364 100.982 157.16 100.118 157.16 99.158C157.16 98.198 157.364 97.34 157.772 96.584C158.18 95.828 158.744 95.234 159.464 94.802C160.184 94.358 161.018 94.136 161.966 94.136C162.566 94.136 163.13 94.244 163.658 94.46C164.186 94.676 164.654 94.97 165.062 95.342C165.47 95.702 165.776 96.122 165.98 96.602L164.756 97.232C164.516 96.716 164.15 96.296 163.658 95.972C163.166 95.648 162.602 95.486 161.966 95.486C161.33 95.486 160.754 95.648 160.238 95.972C159.734 96.284 159.332 96.722 159.032 97.286C158.744 97.838 158.6 98.468 158.6 99.176C158.6 99.872 158.744 100.502 159.032 101.066C159.332 101.618 159.734 102.056 160.238 102.38C160.754 102.704 161.33 102.866 161.966 102.866C162.602 102.866 163.16 102.704 163.64 102.38C164.132 102.056 164.504 101.624 164.756 101.084L165.98 101.75C165.776 102.218 165.47 102.638 165.062 103.01C164.654 103.382 164.186 103.676 163.658 103.892C163.13 104.108 162.566 104.216 161.966 104.216ZM172.039 104.108C171.175 104.108 170.509 103.856 170.041 103.352C169.573 102.848 169.339 102.128 169.339 101.192V95.702H167.557V94.352H168.007C168.415 94.352 168.739 94.22 168.979 93.956C169.219 93.68 169.339 93.338 169.339 92.93V92.12H170.689V94.352H172.813V95.702H170.689V101.192C170.689 101.516 170.737 101.804 170.833 102.056C170.929 102.296 171.091 102.488 171.319 102.632C171.559 102.776 171.877 102.848 172.273 102.848C172.369 102.848 172.483 102.842 172.615 102.83C172.747 102.818 172.861 102.806 172.957 102.794V104C172.813 104.036 172.651 104.06 172.471 104.072C172.291 104.096 172.147 104.108 172.039 104.108ZM178.675 104.216C177.751 104.216 176.941 103.982 176.245 103.514C175.549 103.046 175.045 102.41 174.733 101.606L175.867 101.066C176.143 101.654 176.527 102.122 177.019 102.47C177.523 102.818 178.075 102.992 178.675 102.992C179.251 102.992 179.737 102.854 180.133 102.578C180.529 102.29 180.727 101.918 180.727 101.462C180.727 101.126 180.631 100.862 180.439 100.67C180.247 100.466 180.025 100.31 179.773 100.202C179.521 100.094 179.299 100.016 179.107 99.968L177.721 99.572C176.833 99.32 176.191 98.966 175.795 98.51C175.399 98.054 175.201 97.526 175.201 96.926C175.201 96.362 175.345 95.87 175.633 95.45C175.921 95.03 176.311 94.706 176.803 94.478C177.295 94.25 177.841 94.136 178.441 94.136C179.257 94.136 179.995 94.352 180.655 94.784C181.327 95.204 181.801 95.792 182.077 96.548L180.925 97.088C180.685 96.548 180.337 96.128 179.881 95.828C179.437 95.516 178.939 95.36 178.387 95.36C177.847 95.36 177.415 95.498 177.091 95.774C176.767 96.05 176.605 96.398 176.605 96.818C176.605 97.142 176.689 97.4 176.857 97.592C177.025 97.784 177.217 97.928 177.433 98.024C177.661 98.12 177.859 98.192 178.027 98.24L179.629 98.708C180.409 98.936 181.015 99.29 181.447 99.77C181.891 100.25 182.113 100.814 182.113 101.462C182.113 101.99 181.963 102.464 181.663 102.884C181.375 103.304 180.973 103.634 180.457 103.874C179.941 104.102 179.347 104.216 178.675 104.216ZM191.234 104.108C190.37 104.108 189.704 103.856 189.236 103.352C188.768 102.848 188.534 102.128 188.534 101.192V95.702H186.752V94.352H187.202C187.61 94.352 187.934 94.22 188.174 93.956C188.414 93.68 188.534 93.338 188.534 92.93V92.12H189.884V94.352H192.008V95.702H189.884V101.192C189.884 101.516 189.932 101.804 190.028 102.056C190.124 102.296 190.286 102.488 190.514 102.632C190.754 102.776 191.072 102.848 191.468 102.848C191.564 102.848 191.678 102.842 191.81 102.83C191.942 102.818 192.056 102.806 192.152 102.794V104C192.008 104.036 191.846 104.06 191.666 104.072C191.486 104.096 191.342 104.108 191.234 104.108ZM194.523 104V90.374H195.873V96.224L195.567 96.152C195.807 95.528 196.197 95.036 196.737 94.676C197.289 94.316 197.925 94.136 198.645 94.136C199.329 94.136 199.941 94.292 200.481 94.604C201.033 94.916 201.465 95.348 201.777 95.9C202.101 96.44 202.263 97.052 202.263 97.736V104H200.913V98.258C200.913 97.67 200.805 97.172 200.589 96.764C200.373 96.356 200.073 96.044 199.689 95.828C199.317 95.6 198.891 95.486 198.411 95.486C197.931 95.486 197.499 95.6 197.115 95.828C196.731 96.044 196.425 96.362 196.197 96.782C195.981 97.19 195.873 97.682 195.873 98.258V104H194.523ZM207.631 104.216C207.019 104.216 206.473 104.102 205.993 103.874C205.513 103.634 205.135 103.31 204.859 102.902C204.583 102.494 204.445 102.026 204.445 101.498C204.445 100.994 204.553 100.538 204.769 100.13C204.985 99.71 205.321 99.356 205.777 99.068C206.233 98.78 206.815 98.576 207.523 98.456L211.303 97.826V99.05L207.847 99.626C207.151 99.746 206.647 99.968 206.335 100.292C206.035 100.616 205.885 101 205.885 101.444C205.885 101.876 206.053 102.242 206.389 102.542C206.737 102.842 207.181 102.992 207.721 102.992C208.381 102.992 208.957 102.854 209.449 102.578C209.941 102.29 210.325 101.906 210.601 101.426C210.877 100.946 211.015 100.412 211.015 99.824V97.376C211.015 96.8 210.805 96.332 210.385 95.972C209.965 95.612 209.419 95.432 208.747 95.432C208.159 95.432 207.643 95.582 207.199 95.882C206.755 96.17 206.425 96.548 206.209 97.016L204.985 96.35C205.165 95.942 205.447 95.57 205.831 95.234C206.227 94.898 206.677 94.634 207.181 94.442C207.685 94.238 208.207 94.136 208.747 94.136C209.455 94.136 210.079 94.274 210.619 94.55C211.171 94.826 211.597 95.21 211.897 95.702C212.209 96.182 212.365 96.74 212.365 97.376V104H211.015V102.074L211.213 102.272C211.045 102.632 210.781 102.962 210.421 103.262C210.073 103.55 209.659 103.784 209.179 103.964C208.711 104.132 208.195 104.216 207.631 104.216ZM218.656 104.108C217.792 104.108 217.126 103.856 216.658 103.352C216.19 102.848 215.956 102.128 215.956 101.192V95.702H214.174V94.352H214.624C215.032 94.352 215.356 94.22 215.596 93.956C215.836 93.68 215.956 93.338 215.956 92.93V92.12H217.306V94.352H219.43V95.702H217.306V101.192C217.306 101.516 217.354 101.804 217.45 102.056C217.546 102.296 217.708 102.488 217.936 102.632C218.176 102.776 218.494 102.848 218.89 102.848C218.986 102.848 219.1 102.842 219.232 102.83C219.364 102.818 219.478 102.806 219.574 102.794V104C219.43 104.036 219.268 104.06 219.088 104.072C218.908 104.096 218.764 104.108 218.656 104.108ZM225.003 104V94.352H226.353V96.188L226.137 95.918C226.401 95.354 226.791 94.916 227.307 94.604C227.835 94.292 228.411 94.136 229.035 94.136C229.779 94.136 230.451 94.346 231.051 94.766C231.651 95.186 232.077 95.732 232.329 96.404L231.951 96.422C232.191 95.678 232.605 95.114 233.193 94.73C233.793 94.334 234.453 94.136 235.173 94.136C235.821 94.136 236.415 94.292 236.955 94.604C237.507 94.916 237.945 95.348 238.269 95.9C238.605 96.44 238.773 97.052 238.773 97.736V104H237.423V98.258C237.423 97.67 237.315 97.172 237.099 96.764C236.895 96.356 236.613 96.044 236.253 95.828C235.893 95.6 235.479 95.486 235.011 95.486C234.555 95.486 234.141 95.6 233.769 95.828C233.397 96.044 233.103 96.362 232.887 96.782C232.671 97.19 232.563 97.682 232.563 98.258V104H231.213V98.258C231.213 97.67 231.105 97.172 230.889 96.764C230.685 96.356 230.403 96.044 230.043 95.828C229.683 95.6 229.269 95.486 228.801 95.486C228.333 95.486 227.913 95.6 227.541 95.828C227.181 96.044 226.893 96.362 226.677 96.782C226.461 97.19 226.353 97.682 226.353 98.258V104H225.003ZM241.351 104V94.352H242.701V104H241.351ZM241.351 92.57V90.59H242.701V92.57H241.351ZM245.464 104V94.352H246.814V95.936L246.634 95.702C246.862 95.246 247.204 94.886 247.66 94.622C248.128 94.358 248.692 94.226 249.352 94.226H249.964V95.576H249.118C248.422 95.576 247.864 95.792 247.444 96.224C247.024 96.656 246.814 97.268 246.814 98.06V104H245.464ZM251.546 104V94.352H252.896V95.936L252.716 95.702C252.944 95.246 253.286 94.886 253.742 94.622C254.21 94.358 254.774 94.226 255.434 94.226H256.046V95.576H255.2C254.504 95.576 253.946 95.792 253.526 96.224C253.106 96.656 252.896 97.268 252.896 98.06V104H251.546ZM262.146 104.216C261.234 104.216 260.406 104 259.662 103.568C258.918 103.124 258.324 102.524 257.88 101.768C257.448 101 257.232 100.13 257.232 99.158C257.232 98.198 257.448 97.34 257.88 96.584C258.312 95.828 258.894 95.234 259.626 94.802C260.37 94.358 261.21 94.136 262.146 94.136C263.082 94.136 263.916 94.352 264.648 94.784C265.392 95.216 265.974 95.81 266.394 96.566C266.826 97.322 267.042 98.186 267.042 99.158C267.042 100.142 266.82 101.018 266.376 101.786C265.932 102.542 265.338 103.136 264.594 103.568C263.862 104 263.046 104.216 262.146 104.216ZM262.146 102.866C262.794 102.866 263.376 102.704 263.892 102.38C264.42 102.056 264.834 101.612 265.134 101.048C265.446 100.484 265.602 99.854 265.602 99.158C265.602 98.462 265.446 97.838 265.134 97.286C264.834 96.734 264.42 96.296 263.892 95.972C263.376 95.648 262.794 95.486 262.146 95.486C261.498 95.486 260.91 95.648 260.382 95.972C259.866 96.296 259.452 96.734 259.14 97.286C258.828 97.838 258.672 98.462 258.672 99.158C258.672 99.854 258.828 100.484 259.14 101.048C259.452 101.612 259.866 102.056 260.382 102.38C260.91 102.704 261.498 102.866 262.146 102.866ZM269.423 104V94.352H270.773V95.936L270.593 95.702C270.821 95.246 271.163 94.886 271.619 94.622C272.087 94.358 272.651 94.226 273.311 94.226H273.923V95.576H273.077C272.381 95.576 271.823 95.792 271.403 96.224C270.983 96.656 270.773 97.268 270.773 98.06V104H269.423ZM278.564 104V94.352H279.914V95.936L279.734 95.702C279.962 95.246 280.304 94.886 280.76 94.622C281.228 94.358 281.792 94.226 282.452 94.226H283.064V95.576H282.218C281.522 95.576 280.964 95.792 280.544 96.224C280.124 96.656 279.914 97.268 279.914 98.06V104H278.564ZM289.038 104.216C288.138 104.216 287.322 104 286.59 103.568C285.87 103.124 285.3 102.518 284.88 101.75C284.46 100.982 284.25 100.112 284.25 99.14C284.25 98.168 284.454 97.31 284.862 96.566C285.27 95.81 285.822 95.216 286.518 94.784C287.226 94.352 288.018 94.136 288.894 94.136C289.59 94.136 290.208 94.268 290.748 94.532C291.3 94.784 291.768 95.132 292.152 95.576C292.536 96.008 292.83 96.5 293.034 97.052C293.238 97.592 293.34 98.15 293.34 98.726C293.34 98.846 293.334 98.984 293.322 99.14C293.31 99.284 293.292 99.434 293.268 99.59H285.114V98.33H292.494L291.846 98.87C291.954 98.21 291.876 97.622 291.612 97.106C291.36 96.578 290.994 96.164 290.514 95.864C290.034 95.552 289.494 95.396 288.894 95.396C288.294 95.396 287.736 95.552 287.22 95.864C286.716 96.176 286.32 96.614 286.032 97.178C285.744 97.73 285.63 98.39 285.69 99.158C285.63 99.926 285.75 100.598 286.05 101.174C286.362 101.738 286.782 102.176 287.31 102.488C287.85 102.8 288.426 102.956 289.038 102.956C289.746 102.956 290.34 102.788 290.82 102.452C291.3 102.116 291.69 101.696 291.99 101.192L293.142 101.804C292.95 102.236 292.656 102.638 292.26 103.01C291.864 103.37 291.39 103.664 290.838 103.892C290.298 104.108 289.698 104.216 289.038 104.216ZM298.334 104.216C297.722 104.216 297.176 104.102 296.696 103.874C296.216 103.634 295.838 103.31 295.562 102.902C295.286 102.494 295.148 102.026 295.148 101.498C295.148 100.994 295.256 100.538 295.472 100.13C295.688 99.71 296.024 99.356 296.48 99.068C296.936 98.78 297.518 98.576 298.226 98.456L302.006 97.826V99.05L298.55 99.626C297.854 99.746 297.35 99.968 297.038 100.292C296.738 100.616 296.588 101 296.588 101.444C296.588 101.876 296.756 102.242 297.092 102.542C297.44 102.842 297.884 102.992 298.424 102.992C299.084 102.992 299.66 102.854 300.152 102.578C300.644 102.29 301.028 101.906 301.304 101.426C301.58 100.946 301.718 100.412 301.718 99.824V97.376C301.718 96.8 301.508 96.332 301.088 95.972C300.668 95.612 300.122 95.432 299.45 95.432C298.862 95.432 298.346 95.582 297.902 95.882C297.458 96.17 297.128 96.548 296.912 97.016L295.688 96.35C295.868 95.942 296.15 95.57 296.534 95.234C296.93 94.898 297.38 94.634 297.884 94.442C298.388 94.238 298.91 94.136 299.45 94.136C300.158 94.136 300.782 94.274 301.322 94.55C301.874 94.826 302.3 95.21 302.6 95.702C302.912 96.182 303.068 96.74 303.068 97.376V104H301.718V102.074L301.916 102.272C301.748 102.632 301.484 102.962 301.124 103.262C300.776 103.55 300.362 103.784 299.882 103.964C299.414 104.132 298.898 104.216 298.334 104.216ZM305.845 104V90.374H307.195V104H305.845ZM311.217 107.96C311.133 107.96 311.019 107.954 310.875 107.942C310.719 107.93 310.593 107.912 310.497 107.888V106.646C310.749 106.682 311.001 106.7 311.253 106.7C311.745 106.7 312.159 106.55 312.495 106.25C312.843 105.95 313.017 105.5 313.017 104.9V94.352H314.367V104.9C314.367 105.56 314.223 106.118 313.935 106.574C313.647 107.03 313.263 107.372 312.783 107.6C312.315 107.84 311.793 107.96 311.217 107.96ZM313.017 92.57V90.59H314.367V92.57H313.017ZM321.648 104.216C320.736 104.216 319.908 104 319.164 103.568C318.42 103.124 317.826 102.524 317.382 101.768C316.95 101 316.734 100.13 316.734 99.158C316.734 98.198 316.95 97.34 317.382 96.584C317.814 95.828 318.396 95.234 319.128 94.802C319.872 94.358 320.712 94.136 321.648 94.136C322.584 94.136 323.418 94.352 324.15 94.784C324.894 95.216 325.476 95.81 325.896 96.566C326.328 97.322 326.544 98.186 326.544 99.158C326.544 100.142 326.322 101.018 325.878 101.786C325.434 102.542 324.84 103.136 324.096 103.568C323.364 104 322.548 104.216 321.648 104.216ZM321.648 102.866C322.296 102.866 322.878 102.704 323.394 102.38C323.922 102.056 324.336 101.612 324.636 101.048C324.948 100.484 325.104 99.854 325.104 99.158C325.104 98.462 324.948 97.838 324.636 97.286C324.336 96.734 323.922 96.296 323.394 95.972C322.878 95.648 322.296 95.486 321.648 95.486C321 95.486 320.412 95.648 319.884 95.972C319.368 96.296 318.954 96.734 318.642 97.286C318.33 97.838 318.174 98.462 318.174 99.158C318.174 99.854 318.33 100.484 318.642 101.048C318.954 101.612 319.368 102.056 319.884 102.38C320.412 102.704 321 102.866 321.648 102.866ZM333.803 104.216C332.975 104.216 332.225 104.03 331.553 103.658C330.893 103.274 330.395 102.734 330.059 102.038L330.275 101.84V104H328.925V90.374H330.275V96.512L330.059 96.134C330.443 95.522 330.953 95.036 331.589 94.676C332.237 94.316 332.975 94.136 333.803 94.136C334.715 94.136 335.525 94.358 336.233 94.802C336.953 95.234 337.517 95.828 337.925 96.584C338.345 97.34 338.555 98.204 338.555 99.176C338.555 100.136 338.345 101 337.925 101.768C337.517 102.524 336.953 103.124 336.233 103.568C335.525 104 334.715 104.216 333.803 104.216ZM333.731 102.866C334.379 102.866 334.955 102.704 335.459 102.38C335.975 102.056 336.377 101.618 336.665 101.066C336.965 100.502 337.115 99.872 337.115 99.176C337.115 98.468 336.965 97.838 336.665 97.286C336.377 96.734 335.975 96.296 335.459 95.972C334.955 95.648 334.379 95.486 333.731 95.486C333.083 95.486 332.495 95.648 331.967 95.972C331.451 96.296 331.037 96.74 330.725 97.304C330.425 97.856 330.275 98.48 330.275 99.176C330.275 99.872 330.425 100.502 330.725 101.066C331.037 101.618 331.451 102.056 331.967 102.38C332.495 102.704 333.083 102.866 333.731 102.866ZM347.338 104.216C346.414 104.216 345.604 103.982 344.908 103.514C344.212 103.046 343.708 102.41 343.396 101.606L344.53 101.066C344.806 101.654 345.19 102.122 345.682 102.47C346.186 102.818 346.738 102.992 347.338 102.992C347.914 102.992 348.4 102.854 348.796 102.578C349.192 102.29 349.39 101.918 349.39 101.462C349.39 101.126 349.294 100.862 349.102 100.67C348.91 100.466 348.688 100.31 348.436 100.202C348.184 100.094 347.962 100.016 347.77 99.968L346.384 99.572C345.496 99.32 344.854 98.966 344.458 98.51C344.062 98.054 343.864 97.526 343.864 96.926C343.864 96.362 344.008 95.87 344.296 95.45C344.584 95.03 344.974 94.706 345.466 94.478C345.958 94.25 346.504 94.136 347.104 94.136C347.92 94.136 348.658 94.352 349.318 94.784C349.99 95.204 350.464 95.792 350.74 96.548L349.588 97.088C349.348 96.548 349 96.128 348.544 95.828C348.1 95.516 347.602 95.36 347.05 95.36C346.51 95.36 346.078 95.498 345.754 95.774C345.43 96.05 345.268 96.398 345.268 96.818C345.268 97.142 345.352 97.4 345.52 97.592C345.688 97.784 345.88 97.928 346.096 98.024C346.324 98.12 346.522 98.192 346.69 98.24L348.292 98.708C349.072 98.936 349.678 99.29 350.11 99.77C350.554 100.25 350.776 100.814 350.776 101.462C350.776 101.99 350.626 102.464 350.326 102.884C350.038 103.304 349.636 103.634 349.12 103.874C348.604 104.102 348.01 104.216 347.338 104.216ZM357.558 104.216C356.61 104.216 355.776 103.994 355.056 103.55C354.336 103.106 353.772 102.506 353.364 101.75C352.956 100.982 352.752 100.118 352.752 99.158C352.752 98.198 352.956 97.34 353.364 96.584C353.772 95.828 354.336 95.234 355.056 94.802C355.776 94.358 356.61 94.136 357.558 94.136C358.158 94.136 358.722 94.244 359.25 94.46C359.778 94.676 360.246 94.97 360.654 95.342C361.062 95.702 361.368 96.122 361.572 96.602L360.348 97.232C360.108 96.716 359.742 96.296 359.25 95.972C358.758 95.648 358.194 95.486 357.558 95.486C356.922 95.486 356.346 95.648 355.83 95.972C355.326 96.284 354.924 96.722 354.624 97.286C354.336 97.838 354.192 98.468 354.192 99.176C354.192 99.872 354.336 100.502 354.624 101.066C354.924 101.618 355.326 102.056 355.83 102.38C356.346 102.704 356.922 102.866 357.558 102.866C358.194 102.866 358.752 102.704 359.232 102.38C359.724 102.056 360.096 101.624 360.348 101.084L361.572 101.75C361.368 102.218 361.062 102.638 360.654 103.01C360.246 103.382 359.778 103.676 359.25 103.892C358.722 104.108 358.158 104.216 357.558 104.216ZM368.333 104.216C367.433 104.216 366.617 104 365.885 103.568C365.165 103.124 364.595 102.518 364.175 101.75C363.755 100.982 363.545 100.112 363.545 99.14C363.545 98.168 363.749 97.31 364.157 96.566C364.565 95.81 365.117 95.216 365.813 94.784C366.521 94.352 367.313 94.136 368.189 94.136C368.885 94.136 369.503 94.268 370.043 94.532C370.595 94.784 371.063 95.132 371.447 95.576C371.831 96.008 372.125 96.5 372.329 97.052C372.533 97.592 372.635 98.15 372.635 98.726C372.635 98.846 372.629 98.984 372.617 99.14C372.605 99.284 372.587 99.434 372.563 99.59H364.409V98.33H371.789L371.141 98.87C371.249 98.21 371.171 97.622 370.907 97.106C370.655 96.578 370.289 96.164 369.809 95.864C369.329 95.552 368.789 95.396 368.189 95.396C367.589 95.396 367.031 95.552 366.515 95.864C366.011 96.176 365.615 96.614 365.327 97.178C365.039 97.73 364.925 98.39 364.985 99.158C364.925 99.926 365.045 100.598 365.345 101.174C365.657 101.738 366.077 102.176 366.605 102.488C367.145 102.8 367.721 102.956 368.333 102.956C369.041 102.956 369.635 102.788 370.115 102.452C370.595 102.116 370.985 101.696 371.285 101.192L372.437 101.804C372.245 102.236 371.951 102.638 371.555 103.01C371.159 103.37 370.685 103.664 370.133 103.892C369.593 104.108 368.993 104.216 368.333 104.216ZM375.015 104V94.352H376.365V96.224L376.059 96.152C376.299 95.528 376.689 95.036 377.229 94.676C377.781 94.316 378.417 94.136 379.137 94.136C379.821 94.136 380.433 94.292 380.973 94.604C381.525 94.916 381.957 95.348 382.269 95.9C382.593 96.44 382.755 97.052 382.755 97.736V104H381.405V98.258C381.405 97.67 381.297 97.172 381.081 96.764C380.877 96.356 380.583 96.044 380.199 95.828C379.827 95.6 379.395 95.486 378.903 95.486C378.411 95.486 377.973 95.6 377.589 95.828C377.205 96.044 376.905 96.362 376.689 96.782C376.473 97.19 376.365 97.682 376.365 98.258V104H375.015ZM388.123 104.216C387.511 104.216 386.965 104.102 386.485 103.874C386.005 103.634 385.627 103.31 385.351 102.902C385.075 102.494 384.937 102.026 384.937 101.498C384.937 100.994 385.045 100.538 385.261 100.13C385.477 99.71 385.813 99.356 386.269 99.068C386.725 98.78 387.307 98.576 388.015 98.456L391.795 97.826V99.05L388.339 99.626C387.643 99.746 387.139 99.968 386.827 100.292C386.527 100.616 386.377 101 386.377 101.444C386.377 101.876 386.545 102.242 386.881 102.542C387.229 102.842 387.673 102.992 388.213 102.992C388.873 102.992 389.449 102.854 389.941 102.578C390.433 102.29 390.817 101.906 391.093 101.426C391.369 100.946 391.507 100.412 391.507 99.824V97.376C391.507 96.8 391.297 96.332 390.877 95.972C390.457 95.612 389.911 95.432 389.239 95.432C388.651 95.432 388.135 95.582 387.691 95.882C387.247 96.17 386.917 96.548 386.701 97.016L385.477 96.35C385.657 95.942 385.939 95.57 386.323 95.234C386.719 94.898 387.169 94.634 387.673 94.442C388.177 94.238 388.699 94.136 389.239 94.136C389.947 94.136 390.571 94.274 391.111 94.55C391.663 94.826 392.089 95.21 392.389 95.702C392.701 96.182 392.857 96.74 392.857 97.376V104H391.507V102.074L391.705 102.272C391.537 102.632 391.273 102.962 390.913 103.262C390.565 103.55 390.151 103.784 389.671 103.964C389.203 104.132 388.687 104.216 388.123 104.216ZM395.634 104V94.352H396.984V95.936L396.804 95.702C397.032 95.246 397.374 94.886 397.83 94.622C398.298 94.358 398.862 94.226 399.522 94.226H400.134V95.576H399.288C398.592 95.576 398.034 95.792 397.614 96.224C397.194 96.656 396.984 97.268 396.984 98.06V104H395.634ZM401.716 104V94.352H403.066V104H401.716ZM401.716 92.57V90.59H403.066V92.57H401.716ZM410.347 104.216C409.435 104.216 408.607 104 407.863 103.568C407.119 103.124 406.525 102.524 406.081 101.768C405.649 101 405.433 100.13 405.433 99.158C405.433 98.198 405.649 97.34 406.081 96.584C406.513 95.828 407.095 95.234 407.827 94.802C408.571 94.358 409.411 94.136 410.347 94.136C411.283 94.136 412.117 94.352 412.849 94.784C413.593 95.216 414.175 95.81 414.595 96.566C415.027 97.322 415.243 98.186 415.243 99.158C415.243 100.142 415.021 101.018 414.577 101.786C414.133 102.542 413.539 103.136 412.795 103.568C412.063 104 411.247 104.216 410.347 104.216ZM410.347 102.866C410.995 102.866 411.577 102.704 412.093 102.38C412.621 102.056 413.035 101.612 413.335 101.048C413.647 100.484 413.803 99.854 413.803 99.158C413.803 98.462 413.647 97.838 413.335 97.286C413.035 96.734 412.621 96.296 412.093 95.972C411.577 95.648 410.995 95.486 410.347 95.486C409.699 95.486 409.111 95.648 408.583 95.972C408.067 96.296 407.653 96.734 407.341 97.286C407.029 97.838 406.873 98.462 406.873 99.158C406.873 99.854 407.029 100.484 407.341 101.048C407.653 101.612 408.067 102.056 408.583 102.38C409.111 102.704 409.699 102.866 410.347 102.866ZM420.972 104.216C420.048 104.216 419.238 103.982 418.542 103.514C417.846 103.046 417.342 102.41 417.03 101.606L418.164 101.066C418.44 101.654 418.824 102.122 419.316 102.47C419.82 102.818 420.372 102.992 420.972 102.992C421.548 102.992 422.034 102.854 422.43 102.578C422.826 102.29 423.024 101.918 423.024 101.462C423.024 101.126 422.928 100.862 422.736 100.67C422.544 100.466 422.322 100.31 422.07 100.202C421.818 100.094 421.596 100.016 421.404 99.968L420.018 99.572C419.13 99.32 418.488 98.966 418.092 98.51C417.696 98.054 417.498 97.526 417.498 96.926C417.498 96.362 417.642 95.87 417.93 95.45C418.218 95.03 418.608 94.706 419.1 94.478C419.592 94.25 420.138 94.136 420.738 94.136C421.554 94.136 422.292 94.352 422.952 94.784C423.624 95.204 424.098 95.792 424.374 96.548L423.222 97.088C422.982 96.548 422.634 96.128 422.178 95.828C421.734 95.516 421.236 95.36 420.684 95.36C420.144 95.36 419.712 95.498 419.388 95.774C419.064 96.05 418.902 96.398 418.902 96.818C418.902 97.142 418.986 97.4 419.154 97.592C419.322 97.784 419.514 97.928 419.73 98.024C419.958 98.12 420.156 98.192 420.324 98.24L421.926 98.708C422.706 98.936 423.312 99.29 423.744 99.77C424.188 100.25 424.41 100.814 424.41 101.462C424.41 101.99 424.26 102.464 423.96 102.884C423.672 103.304 423.27 103.634 422.754 103.874C422.238 104.102 421.644 104.216 420.972 104.216Z" fill="#6E6D6D"/>
<path d="M212.658 172.264C212.658 165.636 218.031 160.264 224.658 160.264L378.539 160.264C381.847 160.264 385.008 161.629 387.276 164.038L426.238 205.425C428.333 207.651 429.5 210.593 429.5 213.65V426.544C429.5 433.172 424.128 438.544 417.5 438.544H224.658C218.031 438.544 212.658 433.172 212.658 426.544V172.264Z" fill="#ACC2FA" fill-opacity="0.2"/>
<path d="M218.982 178.588C218.982 171.96 224.355 166.588 230.982 166.588L374.168 166.588C377.478 166.588 380.641 167.955 382.909 170.366L419.013 208.75C421.106 210.976 422.272 213.916 422.272 216.972V415.702C422.272 422.329 416.899 427.702 410.272 427.702H230.982C224.355 427.702 218.982 422.329 218.982 415.702V178.588Z" fill="#ACC2FA"/>
<rect x="236.149" y="188.273" width="126.491" height="24.3947" rx="8" fill="white"/>
<rect x="236.149" y="227.123" width="161.728" height="13.5526" rx="6.77632" fill="white" fill-opacity="0.5"/>
<rect x="236.149" y="256.939" width="161.728" height="13.5526" rx="6.77632" fill="white" fill-opacity="0.5"/>
<rect x="236.149" y="287.658" width="161.728" height="13.5526" rx="6.77632" fill="white" fill-opacity="0.5"/>
<rect x="236.149" y="318.377" width="161.728" height="51.5" rx="8" fill="white" fill-opacity="0.5"/>
</g>
<rect x="0.5" y="0.5" width="607" height="369" rx="15.5" stroke="#E2E2E2"/>
<defs>
<clipPath id="clip0_127_2535">
<rect width="608" height="370" rx="16" fill="white"/>
</clipPath>
</defs>
</svg>
