<svg width="614" height="283" viewBox="0 0 614 283" fill="none" xmlns="http://www.w3.org/2000/svg">
<g clip-path="url(#clip0_127_960)">
<rect width="614" height="283" fill="url(#paint0_linear_127_960)"/>
<circle cx="172.554" cy="147.327" r="0.102604" fill="#D9D9D9"/>
<circle cx="181.685" cy="140.249" r="0.102604" fill="#D9D9D9" fill-opacity="0.7"/>
<circle cx="187.997" cy="136.606" r="0.0513021" fill="#D9D9D9" fill-opacity="0.5"/>
<circle cx="172.708" cy="135.067" r="0.0513021" fill="#D9D9D9"/>
<circle cx="205.438" cy="138.965" r="0.0513021" fill="#D9D9D9"/>
<circle cx="221.854" cy="103.144" r="0.102604" transform="rotate(150 221.854 103.144)" fill="#D9D9D9"/>
<circle cx="217.487" cy="113.841" r="0.102604" transform="rotate(150 217.487 113.841)" fill="#D9D9D9" fill-opacity="0.7"/>
<circle cx="213.842" cy="120.151" r="0.0513021" transform="rotate(150 213.842 120.151)" fill="#D9D9D9" fill-opacity="0.5"/>
<circle cx="227.852" cy="113.841" r="0.0513021" transform="rotate(150 227.852 113.841)" fill="#D9D9D9"/>
<circle cx="197.557" cy="126.829" r="0.0513021" transform="rotate(150 197.557 126.829)" fill="#D9D9D9"/>
<circle cx="207.183" cy="54.7186" r="0.102604" transform="rotate(135 207.183 54.7186)" fill="#D9D9D9"/>
<circle cx="205.734" cy="66.1815" r="0.102604" transform="rotate(135 205.734 66.1815)" fill="#D9D9D9" fill-opacity="0.7"/>
<circle cx="203.845" cy="73.2206" r="0.0513021" transform="rotate(135 203.845 73.2206)" fill="#D9D9D9" fill-opacity="0.5"/>
<circle cx="215.746" cy="63.4979" r="0.0513021" transform="rotate(135 215.746 63.4979)" fill="#D9D9D9"/>
<circle cx="189.843" cy="83.8846" r="0.0513021" transform="rotate(135 189.843 83.8846)" fill="#D9D9D9"/>
<circle cx="203.564" cy="120.824" r="0.102604" transform="rotate(-75 203.564 120.824)" fill="#D9D9D9"/>
<circle cx="199.089" cy="110.172" r="0.102604" transform="rotate(-75 199.089 110.172)" fill="#D9D9D9" fill-opacity="0.7"/>
<circle cx="197.204" cy="103.134" r="0.0513021" transform="rotate(-75 197.204 103.134)" fill="#D9D9D9" fill-opacity="0.5"/>
<circle cx="191.761" cy="117.503" r="0.0513021" transform="rotate(-75 191.761 117.503)" fill="#D9D9D9"/>
<circle cx="203.999" cy="86.8956" r="0.0513021" transform="rotate(-75 203.999 86.8956)" fill="#D9D9D9"/>
<circle cx="240.728" cy="94.8132" r="0.102604" transform="rotate(45 240.728 94.8132)" fill="#D9D9D9"/>
<circle cx="252.19" cy="96.2644" r="0.102604" transform="rotate(45 252.19 96.2644)" fill="#D9D9D9" fill-opacity="0.7"/>
<circle cx="259.228" cy="98.1508" r="0.0513021" transform="rotate(45 259.228 98.1508)" fill="#D9D9D9" fill-opacity="0.5"/>
<circle cx="249.505" cy="86.2524" r="0.0513021" transform="rotate(45 249.505 86.2524)" fill="#D9D9D9"/>
<circle cx="269.894" cy="112.155" r="0.0513021" transform="rotate(45 269.894 112.155)" fill="#D9D9D9"/>
<circle cx="306.834" cy="98.4334" r="0.102604" transform="rotate(-165 306.834 98.4334)" fill="#D9D9D9"/>
<circle cx="296.181" cy="102.908" r="0.102604" transform="rotate(-165 296.181 102.908)" fill="#D9D9D9" fill-opacity="0.7"/>
<circle cx="289.143" cy="104.793" r="0.0513021" transform="rotate(-165 289.143 104.793)" fill="#D9D9D9" fill-opacity="0.5"/>
<circle cx="303.513" cy="110.236" r="0.0513021" transform="rotate(-165 303.513 110.236)" fill="#D9D9D9"/>
<circle cx="272.905" cy="97.9982" r="0.0513021" transform="rotate(-165 272.905 97.9982)" fill="#D9D9D9"/>
<circle cx="294.893" cy="49.1026" r="0.102604" transform="rotate(90 294.893 49.1026)" fill="#D9D9D9"/>
<circle cx="301.972" cy="58.2335" r="0.102604" transform="rotate(90 301.972 58.2335)" fill="#D9D9D9" fill-opacity="0.7"/>
<circle cx="305.615" cy="64.5454" r="0.0513021" transform="rotate(90 305.615 64.5454)" fill="#D9D9D9" fill-opacity="0.5"/>
<circle cx="307.154" cy="49.2565" r="0.0513021" transform="rotate(90 307.154 49.2565)" fill="#D9D9D9"/>
<circle cx="303.255" cy="81.9868" r="0.0513021" transform="rotate(90 303.255 81.9868)" fill="#D9D9D9"/>
<circle cx="339.077" cy="98.4028" r="0.102604" transform="rotate(-120 339.077 98.4028)" fill="#D9D9D9"/>
<circle cx="328.379" cy="94.0356" r="0.102604" transform="rotate(-120 328.379 94.0356)" fill="#D9D9D9" fill-opacity="0.7"/>
<circle cx="322.07" cy="90.3909" r="0.0513021" transform="rotate(-120 322.07 90.3909)" fill="#D9D9D9" fill-opacity="0.5"/>
<circle cx="328.38" cy="104.401" r="0.0513021" transform="rotate(-120 328.38 104.401)" fill="#D9D9D9"/>
<circle cx="315.392" cy="74.1057" r="0.0513021" transform="rotate(-120 315.392 74.1057)" fill="#D9D9D9"/>
<circle cx="177.308" cy="230.065" r="0.102604" transform="rotate(-90 177.308 230.065)" fill="#D9D9D9"/>
<circle cx="170.23" cy="220.935" r="0.102604" transform="rotate(-90 170.23 220.935)" fill="#D9D9D9" fill-opacity="0.7"/>
<circle cx="166.586" cy="214.623" r="0.0513021" transform="rotate(-90 166.586 214.623)" fill="#D9D9D9" fill-opacity="0.5"/>
<circle cx="165.047" cy="229.911" r="0.0513021" transform="rotate(-90 165.047 229.911)" fill="#D9D9D9"/>
<circle cx="168.946" cy="197.181" r="0.0513021" transform="rotate(-90 168.946 197.181)" fill="#D9D9D9"/>
<circle cx="133.123" cy="180.765" r="0.102604" transform="rotate(60 133.123 180.765)" fill="#D9D9D9"/>
<circle cx="143.822" cy="185.132" r="0.102604" transform="rotate(60 143.822 185.132)" fill="#D9D9D9" fill-opacity="0.7"/>
<circle cx="150.132" cy="188.777" r="0.0513021" transform="rotate(60 150.132 188.777)" fill="#D9D9D9" fill-opacity="0.5"/>
<circle cx="143.821" cy="174.767" r="0.0513021" transform="rotate(60 143.821 174.767)" fill="#D9D9D9"/>
<circle cx="156.809" cy="205.062" r="0.0513021" transform="rotate(60 156.809 205.062)" fill="#D9D9D9"/>
<circle cx="84.6992" cy="195.442" r="0.102604" transform="rotate(45 84.6992 195.442)" fill="#D9D9D9"/>
<circle cx="96.1621" cy="196.893" r="0.102604" transform="rotate(45 96.1621 196.893)" fill="#D9D9D9" fill-opacity="0.7"/>
<circle cx="103.2" cy="198.779" r="0.0513021" transform="rotate(45 103.2 198.779)" fill="#D9D9D9" fill-opacity="0.5"/>
<circle cx="93.4785" cy="186.881" r="0.0513021" transform="rotate(45 93.4785 186.881)" fill="#D9D9D9"/>
<circle cx="113.865" cy="212.768" r="0.0513021" transform="rotate(45 113.865 212.768)" fill="#D9D9D9"/>
<circle cx="150.807" cy="199.058" r="0.102604" transform="rotate(-165 150.807 199.058)" fill="#D9D9D9"/>
<circle cx="140.155" cy="203.533" r="0.102604" transform="rotate(-165 140.155 203.533)" fill="#D9D9D9" fill-opacity="0.7"/>
<circle cx="133.116" cy="205.418" r="0.0513021" transform="rotate(-165 133.116 205.418)" fill="#D9D9D9" fill-opacity="0.5"/>
<circle cx="147.486" cy="210.861" r="0.0513021" transform="rotate(-165 147.486 210.861)" fill="#D9D9D9"/>
<circle cx="116.879" cy="198.623" r="0.0513021" transform="rotate(-165 116.879 198.623)" fill="#D9D9D9"/>
<circle cx="124.794" cy="161.891" r="0.102604" transform="rotate(-45 124.794 161.891)" fill="#D9D9D9"/>
<circle cx="126.245" cy="150.428" r="0.102604" transform="rotate(-45 126.245 150.428)" fill="#D9D9D9" fill-opacity="0.7"/>
<circle cx="128.131" cy="143.391" r="0.0513021" transform="rotate(-45 128.131 143.391)" fill="#D9D9D9" fill-opacity="0.5"/>
<circle cx="116.233" cy="153.114" r="0.0513021" transform="rotate(-45 116.233 153.114)" fill="#D9D9D9"/>
<circle cx="142.133" cy="132.725" r="0.0513021" transform="rotate(-45 142.133 132.725)" fill="#D9D9D9"/>
<circle cx="128.41" cy="95.7876" r="0.102604" transform="rotate(105 128.41 95.7876)" fill="#D9D9D9"/>
<circle cx="132.885" cy="106.44" r="0.102604" transform="rotate(105 132.885 106.44)" fill="#D9D9D9" fill-opacity="0.7"/>
<circle cx="134.771" cy="113.478" r="0.0513021" transform="rotate(105 134.771 113.478)" fill="#D9D9D9" fill-opacity="0.5"/>
<circle cx="140.215" cy="99.1088" r="0.0513021" transform="rotate(105 140.215 99.1088)" fill="#D9D9D9"/>
<circle cx="127.976" cy="129.716" r="0.0513021" transform="rotate(105 127.976 129.716)" fill="#D9D9D9"/>
<circle cx="79.0831" cy="107.722" r="0.102604" fill="#D9D9D9"/>
<circle cx="88.2149" cy="100.644" r="0.102604" fill="#D9D9D9" fill-opacity="0.7"/>
<circle cx="94.5249" cy="97.0005" r="0.0513021" fill="#D9D9D9" fill-opacity="0.5"/>
<circle cx="79.2368" cy="95.4615" r="0.0513021" fill="#D9D9D9"/>
<circle cx="111.967" cy="99.3599" r="0.0513021" fill="#D9D9D9"/>
<circle cx="128.384" cy="63.5386" r="0.102604" transform="rotate(150 128.384 63.5386)" fill="#D9D9D9"/>
<circle cx="124.015" cy="74.2359" r="0.102604" transform="rotate(150 124.015 74.2359)" fill="#D9D9D9" fill-opacity="0.7"/>
<circle cx="120.371" cy="80.5457" r="0.0513021" transform="rotate(150 120.371 80.5457)" fill="#D9D9D9" fill-opacity="0.5"/>
<circle cx="134.381" cy="74.2351" r="0.0513021" transform="rotate(150 134.381 74.2351)" fill="#D9D9D9"/>
<circle cx="104.086" cy="87.2234" r="0.0513021" transform="rotate(150 104.086 87.2234)" fill="#D9D9D9"/>
<circle cx="14.7346" cy="104.927" r="0.102604" transform="rotate(118.859 14.7346 104.927)" fill="#D9D9D9"/>
<circle cx="16.5276" cy="116.341" r="0.102604" transform="rotate(118.859 16.5276 116.341)" fill="#D9D9D9" fill-opacity="0.7"/>
<circle cx="16.6715" cy="123.626" r="0.0513021" transform="rotate(118.859 16.6715 123.626)" fill="#D9D9D9" fill-opacity="0.5"/>
<circle cx="25.3991" cy="110.979" r="0.0513021" transform="rotate(118.859 25.3991 110.979)" fill="#D9D9D9"/>
<circle cx="6.18617" cy="137.764" r="0.0513021" transform="rotate(118.859 6.18617 137.764)" fill="#D9D9D9"/>
<circle cx="29.6381" cy="169.428" r="0.102604" transform="rotate(-91.1414 29.6381 169.428)" fill="#D9D9D9"/>
<circle cx="22.3774" cy="160.44" r="0.102604" transform="rotate(-91.1414 22.3774 160.44)" fill="#D9D9D9" fill-opacity="0.7"/>
<circle cx="18.6103" cy="154.203" r="0.0513021" transform="rotate(-91.1414 18.6103 154.203)" fill="#D9D9D9" fill-opacity="0.5"/>
<circle cx="17.376" cy="169.52" r="0.0513021" transform="rotate(-91.1414 17.376 169.52)" fill="#D9D9D9"/>
<circle cx="20.622" cy="136.717" r="0.0513021" transform="rotate(-91.1414 20.622 136.717)" fill="#D9D9D9"/>
<circle cx="79.1296" cy="179.955" r="0.102604" transform="rotate(-106.141 79.1296 179.955)" fill="#D9D9D9"/>
<circle cx="69.7907" cy="173.152" r="0.102604" transform="rotate(-106.141 69.7907 173.152)" fill="#D9D9D9" fill-opacity="0.7"/>
<circle cx="64.537" cy="168.102" r="0.0513021" transform="rotate(-106.141 64.537 168.102)" fill="#D9D9D9" fill-opacity="0.5"/>
<circle cx="67.3094" cy="183.216" r="0.0513021" transform="rotate(-106.141 67.3094 183.216)" fill="#D9D9D9"/>
<circle cx="61.9549" cy="150.692" r="0.0513021" transform="rotate(-106.141 61.9549 150.692)" fill="#D9D9D9"/>
<circle cx="22.9785" cy="144.885" r="0.102604" transform="rotate(43.8586 22.9785 144.885)" fill="#D9D9D9"/>
<circle cx="34.4687" cy="146.106" r="0.102604" transform="rotate(43.8586 34.4687 146.106)" fill="#D9D9D9" fill-opacity="0.7"/>
<circle cx="41.5425" cy="147.852" r="0.0513021" transform="rotate(43.8586 41.5425 147.852)" fill="#D9D9D9" fill-opacity="0.5"/>
<circle cx="31.5845" cy="136.151" r="0.0513021" transform="rotate(43.8586 31.5845 136.151)" fill="#D9D9D9"/>
<circle cx="52.4839" cy="161.641" r="0.0513021" transform="rotate(43.8586 52.4839 161.641)" fill="#D9D9D9"/>
<circle cx="27.808" cy="189.875" r="0.102604" transform="rotate(163.859 27.808 189.875)" fill="#D9D9D9"/>
<circle cx="21.0043" cy="199.215" r="0.102604" transform="rotate(163.859 21.0043 199.215)" fill="#D9D9D9" fill-opacity="0.7"/>
<circle cx="15.9555" cy="204.467" r="0.0513021" transform="rotate(163.859 15.9555 204.467)" fill="#D9D9D9" fill-opacity="0.5"/>
<circle cx="31.0688" cy="201.695" r="0.0513021" transform="rotate(163.859 31.0688 201.695)" fill="#D9D9D9"/>
<circle cx="9.5325" cy="216.659" r="0.0513021" transform="rotate(-46.1414 9.5325 216.659)" fill="#D9D9D9"/>
<circle cx="41.7155" cy="259.49" r="0.102604" transform="rotate(-151.141 41.7155 259.49)" fill="#D9D9D9"/>
<circle cx="30.3005" cy="261.283" r="0.102604" transform="rotate(-151.141 30.3005 261.283)" fill="#D9D9D9" fill-opacity="0.7"/>
<circle cx="23.016" cy="261.426" r="0.0513021" transform="rotate(-151.141 23.016 261.426)" fill="#D9D9D9" fill-opacity="0.5"/>
<circle cx="35.6624" cy="270.153" r="0.0513021" transform="rotate(-151.141 35.6624 270.153)" fill="#D9D9D9"/>
<circle cx="8.87827" cy="250.942" r="0.0513021" transform="rotate(-151.141 8.87827 250.942)" fill="#D9D9D9"/>
<circle cx="9.92145" cy="265.374" r="0.0513021" transform="rotate(-1.14141 9.92145 265.374)" fill="#D9D9D9"/>
<g style="mix-blend-mode:overlay" filter="url(#filter0_f_127_960)">
<path d="M279.826 340.295L310.146 111.898C348.827 59.5186 397.411 205.986 454.356 337.268C499.912 442.294 356.985 383.047 279.826 340.295Z" fill="#F2542D"/>
<rect x="-56.3564" y="221.377" width="235.99" height="110.812" fill="#6E08B1"/>
</g>
<path d="M371 75C371 68.3726 376.373 63 383 63L536.88 63C540.189 63 543.35 64.3658 545.618 66.7745L584.58 108.161C586.675 110.387 587.842 113.329 587.842 116.387V329.281C587.842 335.908 582.47 341.281 575.842 341.281H383C376.373 341.281 371 335.908 371 329.281V75Z" fill="white" fill-opacity="0.1"/>
<path d="M377.324 81.3242C377.324 74.6968 382.697 69.3242 389.324 69.3242L532.51 69.3242C535.82 69.3242 538.983 70.6915 541.251 73.1025L577.355 111.487C579.448 113.712 580.614 116.653 580.614 119.708V318.438C580.614 325.066 575.241 330.438 568.614 330.438H389.324C382.697 330.438 377.324 325.066 377.324 318.438V81.3242Z" fill="white" fill-opacity="0.2"/>
<path d="M440.772 129.676H420.192C417.758 129.678 415.785 131.651 415.782 134.086V147.416V154.666C415.785 157.1 417.758 159.073 420.192 159.076H440.772C441.04 159.075 441.305 159.043 441.565 158.995C441.663 158.977 441.755 158.95 441.85 158.926C442.006 158.886 442.159 158.84 442.309 158.783C442.419 158.742 442.526 158.699 442.631 158.65C442.754 158.592 442.872 158.525 442.99 158.455C443.101 158.39 443.212 158.329 443.317 158.255C443.325 158.249 443.335 158.245 443.343 158.239C443.354 158.231 443.364 158.221 443.374 158.213C443.394 158.196 443.419 158.188 443.438 158.17C443.448 158.16 443.451 158.147 443.46 158.137C444.499 157.33 445.181 156.083 445.182 154.666V150.359V134.086C445.18 131.651 443.207 129.678 440.772 129.676ZM441.617 157.467C441.343 157.552 441.06 157.605 440.772 157.606H420.192C418.569 157.604 417.254 156.289 417.252 154.666V147.72L422.783 142.189C423.789 141.187 425.416 141.187 426.421 142.189L431.426 147.194C431.429 147.197 431.43 147.201 431.433 147.204L441.677 157.448C441.657 157.454 441.637 157.46 441.617 157.467ZM443.712 154.666C443.711 155.425 443.415 156.109 442.943 156.631L432.993 146.682L434.545 145.131C435.561 144.157 437.164 144.157 438.18 145.131L443.712 150.663V154.666ZM443.712 148.585L439.219 144.091C437.641 142.515 435.084 142.515 433.505 144.091L431.954 145.643L427.46 141.15C425.881 139.574 423.324 139.574 421.744 141.15L417.252 145.642V134.086C417.254 132.463 418.569 131.148 420.192 131.146H440.772C442.395 131.148 443.71 132.463 443.712 134.086V148.585ZM432.687 135.556C431.469 135.556 430.482 136.543 430.482 137.761C430.482 138.978 431.469 139.966 432.687 139.966C433.904 139.964 434.891 138.978 434.892 137.761C434.892 136.543 433.905 135.556 432.687 135.556ZM432.687 138.496C432.281 138.496 431.952 138.167 431.952 137.761C431.952 137.355 432.281 137.026 432.687 137.026C433.093 137.026 433.421 137.355 433.422 137.761C433.422 138.167 433.093 138.496 432.687 138.496Z" fill="white"/>
<path d="M480.262 85.2403L382.315 92.4883L392.162 225.556L490.109 218.308L480.262 85.2403Z" fill="#FAFAFA" fill-opacity="0.08"/>
<path d="M391.894 225.862L391.873 225.569L382 92.2127L382.293 92.1909L480.529 84.918L480.551 85.2108L490.424 218.568L490.131 218.59L391.894 225.862ZM382.63 92.7554L392.438 225.232L489.795 218.025L479.987 85.5477L382.63 92.7554Z" fill="white"/>
<path d="M460.553 105.377C460.548 105.378 460.534 105.302 460.511 105.154C460.488 104.99 460.458 104.772 460.419 104.494C460.341 103.896 460.232 103.044 460.092 101.953C459.954 100.844 459.787 99.4944 459.594 97.9309C459.487 97.1489 459.431 96.2992 459.214 95.4443C459.101 95.0192 458.941 94.5911 458.68 94.2165C458.42 93.8467 458.05 93.5315 457.598 93.3869C456.694 93.0835 455.585 93.3869 454.821 94.0919C454.043 94.811 453.611 95.89 453.395 97.0148C452.963 99.2974 453.179 101.814 453.627 104.39C453.858 105.68 454.105 107.009 454.397 108.346C454.699 109.678 455.105 111.029 455.835 112.235C456.557 113.426 457.679 114.441 459.044 114.901C459.722 115.125 460.46 115.206 461.165 115.052C461.874 114.919 462.526 114.544 463.07 114.054C464.156 113.044 464.757 111.613 464.932 110.178C465.123 108.731 464.974 107.279 464.82 105.861C464.503 103.017 464.197 100.274 463.905 97.6599C463.761 96.3533 463.619 95.0785 463.482 93.8402C463.344 92.6019 463.221 91.4006 463.001 90.2593C462.788 89.118 462.471 88.0349 461.996 87.0735C461.522 86.1139 460.874 85.2913 460.105 84.6856C458.548 83.4755 456.688 83.1004 455.142 83.1886C453.579 83.2809 452.277 83.8319 451.455 84.5616C450.618 85.2854 450.243 86.0957 450.044 86.6343C449.854 87.1852 449.813 87.4928 449.794 87.4886C449.794 87.4886 449.812 87.1782 449.986 86.6143C450.168 86.0633 450.531 85.2278 451.377 84.4716C452.208 83.7096 453.536 83.1274 455.131 83.0175C456.711 82.9111 458.62 83.2756 460.238 84.5145C461.038 85.1355 461.714 85.9834 462.207 86.9671C462.701 87.952 463.028 89.0563 463.25 90.2105C463.478 91.3653 463.607 92.5731 463.749 93.8096C463.891 95.0474 464.036 96.3216 464.185 97.6275C464.482 100.241 464.794 102.984 465.117 105.827C465.274 107.247 465.428 108.722 465.234 110.217C465.054 111.701 464.43 113.208 463.277 114.279C462.699 114.801 461.995 115.206 461.226 115.351C460.462 115.516 459.666 115.427 458.947 115.189C457.499 114.698 456.331 113.633 455.579 112.39C454.824 111.138 454.414 109.756 454.112 108.41C453.819 107.058 453.578 105.736 453.349 104.437C452.906 101.846 452.693 99.2969 453.146 96.9654C453.373 95.813 453.824 94.6834 454.66 93.9172C455.49 93.1646 456.668 92.8436 457.667 93.1811C458.166 93.3445 458.572 93.6968 458.849 94.0984C459.127 94.5047 459.29 94.9557 459.402 95.3949C459.619 96.281 459.665 97.1283 459.764 97.9104C459.938 99.4762 460.087 100.827 460.21 101.939C460.326 103.031 460.417 103.887 460.48 104.486C460.507 104.765 460.527 104.985 460.543 105.149C460.554 105.3 460.558 105.377 460.553 105.377Z" fill="white"/>
<path d="M538.54 113.011C538.54 113.022 538.44 113.039 538.249 113.063C538.023 113.088 537.746 113.118 537.412 113.154C536.637 113.225 535.594 113.319 534.328 113.434C531.679 113.654 528.101 113.952 524.148 114.28C520.171 114.607 516.568 114.868 513.958 115.037C512.689 115.112 511.644 115.174 510.867 115.22C510.531 115.234 510.253 115.245 510.026 115.254C509.833 115.258 509.732 115.255 509.73 115.245C509.73 115.234 509.83 115.217 510.021 115.192C510.247 115.168 510.524 115.138 510.858 115.101C511.633 115.031 512.675 114.937 513.942 114.821C516.591 114.601 520.169 114.304 524.124 113.975C528.1 113.648 531.702 113.387 534.312 113.219C535.581 113.143 536.626 113.081 537.404 113.036C537.74 113.022 538.017 113.011 538.245 113.002C538.437 112.998 538.539 113 538.54 113.011Z" fill="white"/>
<path d="M541.387 124.007C541.394 124.092 531.037 124.926 518.258 125.873C505.475 126.819 495.11 127.518 495.104 127.433C495.097 127.349 505.452 126.513 518.235 125.567C531.014 124.621 541.381 123.923 541.387 124.007Z" fill="#F6F1F0"/>
<path d="M542.168 138.665C542.174 138.749 531.817 139.585 519.038 140.531C506.255 141.477 495.89 142.176 495.884 142.091C495.877 142.007 506.232 141.172 519.016 140.226C531.795 139.28 542.162 138.581 542.168 138.665Z" fill="#F6F1F0"/>
<path d="M542.168 131.339C542.174 131.423 531.817 132.259 519.038 133.205C506.255 134.151 495.89 134.85 495.884 134.765C495.877 134.681 506.232 133.846 519.016 132.899C531.795 131.953 542.162 131.255 542.168 131.339Z" fill="#F6F1F0"/>
<path d="M445.023 234.718C445.029 234.803 439.66 235.269 433.033 235.76C426.404 236.251 421.026 236.58 421.021 236.495C421.014 236.411 426.382 235.945 433.011 235.454C439.638 234.963 445.016 234.634 445.023 234.718Z" fill="white"/>
<path d="M434.992 248.807C434.998 248.891 427.806 249.492 418.929 250.15C410.049 250.807 402.848 251.272 402.842 251.187C402.835 251.103 410.027 250.501 418.906 249.844C427.783 249.187 434.985 248.723 434.992 248.807Z" fill="white"/>
<path d="M493.552 250C493.559 250.084 473.348 251.649 448.415 253.495C423.474 255.341 403.257 256.769 403.251 256.685C403.245 256.601 423.452 255.036 448.393 253.189C473.325 251.343 493.547 249.915 493.552 250Z" fill="#F6F1F0"/>
<path d="M436.004 262.475C436.01 262.559 428.818 263.16 419.941 263.818C411.061 264.475 403.86 264.94 403.854 264.855C403.847 264.771 411.038 264.169 419.918 263.512C428.795 262.855 435.998 262.391 436.004 262.475Z" fill="white"/>
<path d="M494.562 263.668C494.569 263.752 474.357 265.317 449.425 267.163C424.484 269.009 404.267 270.437 404.261 270.353C404.254 270.269 424.461 268.703 449.403 266.857C474.334 265.011 494.556 263.583 494.562 263.668Z" fill="#F6F1F0"/>
<path d="M437.015 276.139C437.022 276.223 429.829 276.824 420.952 277.482C412.073 278.139 404.872 278.604 404.865 278.519C404.859 278.435 412.05 277.833 420.929 277.176C429.806 276.519 437.009 276.055 437.015 276.139Z" fill="white"/>
<path d="M495.574 277.334C495.58 277.418 475.369 278.983 450.437 280.829C425.496 282.675 405.279 284.103 405.272 284.019C405.266 283.935 425.473 282.37 450.414 280.523C475.346 278.677 495.568 277.249 495.574 277.334Z" fill="#F6F1F0"/>
<path d="M414.995 232.001L403.971 232.816L404.489 239.821L415.514 239.005L414.995 232.001Z" fill="white"/>
<path d="M412.215 239.251L407.788 239.578L407.95 241.771L412.377 241.443L412.215 239.251Z" fill="white"/>
<path d="M414.068 241.236C414.076 241.321 412.423 241.538 410.377 241.722C408.331 241.905 406.666 241.986 406.658 241.901C406.651 241.817 408.303 241.6 410.35 241.416C412.396 241.233 414.061 241.152 414.068 241.236Z" fill="white"/>
<path d="M504.07 223.777L510.963 220L517.747 222.574L511.393 226.573L504.07 223.777Z" fill="white"/>
<path d="M505.719 225.358L505.999 229.653L516.616 228.719L516.251 224.578L511.346 227.543L505.719 225.358Z" fill="white"/>
<path d="M547.656 224.611C547.663 224.695 542.294 225.161 535.667 225.652C529.037 226.143 523.66 226.472 523.653 226.388C523.647 226.304 529.014 225.837 535.644 225.346C542.271 224.856 547.65 224.527 547.656 224.611Z" fill="white"/>
<path d="M523.036 239.367C523.042 239.451 519.353 239.793 514.797 240.13C510.239 240.467 506.541 240.673 506.534 240.588C506.528 240.504 510.216 240.162 514.774 239.825C519.33 239.487 523.03 239.282 523.036 239.367Z" fill="#F6F1F0"/>
<path d="M553.324 243.101C553.331 243.185 542.959 244.021 530.162 244.969C517.36 245.917 506.981 246.617 506.975 246.532C506.968 246.448 517.338 245.611 530.139 244.663C542.937 243.716 553.318 243.017 553.324 243.101Z" fill="#F6F1F0"/>
<path d="M524.272 254.636C524.279 254.72 520.589 255.062 516.033 255.4C511.476 255.737 507.777 255.943 507.771 255.858C507.764 255.774 511.453 255.432 516.01 255.095C520.567 254.757 524.266 254.552 524.272 254.636Z" fill="#F6F1F0"/>
<path d="M554.561 258.37C554.567 258.454 544.195 259.291 531.398 260.238C518.597 261.186 508.217 261.886 508.211 261.801C508.204 261.717 518.574 260.88 531.375 259.933C544.173 258.986 554.554 258.286 554.561 258.37Z" fill="#F6F1F0"/>
<path d="M525.212 269.724C525.218 269.808 521.528 270.15 516.973 270.488C512.415 270.825 508.716 271.03 508.71 270.946C508.704 270.862 512.392 270.519 516.95 270.183C521.506 269.845 525.206 269.64 525.212 269.724Z" fill="#F6F1F0"/>
<path d="M555.5 273.46C555.507 273.544 545.135 274.381 532.338 275.328C519.536 276.276 509.157 276.976 509.15 276.891C509.144 276.806 519.513 275.97 532.315 275.022C545.112 274.076 555.494 273.376 555.5 273.46Z" fill="#F6F1F0"/>
<path d="M500.279 112.101C501.179 111.643 501.768 110.637 501.69 109.508C501.587 108.03 500.38 106.909 498.993 107.006C497.607 107.102 496.567 108.378 496.671 109.856C496.75 110.995 497.487 111.915 498.455 112.236C494.637 113.103 495.123 117.287 495.123 117.287L504.256 116.653C504.256 116.653 504.149 112.396 500.279 112.101Z" fill="white"/>
<path d="M515.161 171.992C515.168 172.076 511.449 172.42 506.857 172.76C502.263 173.1 498.536 173.308 498.529 173.223C498.523 173.139 502.241 172.795 506.835 172.454C511.426 172.114 515.155 171.907 515.161 171.992Z" fill="#F6F1F0"/>
<path d="M515.79 179.331C515.797 179.416 512.078 179.76 507.486 180.1C502.892 180.44 499.165 180.647 499.158 180.563C499.152 180.479 502.87 180.135 507.464 179.794C512.055 179.454 515.784 179.247 515.79 179.331Z" fill="#F6F1F0"/>
<path d="M548.047 170.417L520.982 172.421C520.477 172.459 520.037 172.079 520 171.574C519.962 171.069 520.341 170.629 520.846 170.592L547.912 168.589C548.417 168.551 548.857 168.93 548.894 169.435C548.931 169.94 548.552 170.38 548.047 170.417Z" fill="#E0E0E0"/>
<path d="M544.092 170.71L520.982 172.421C520.477 172.459 520.037 172.079 520 171.574C519.962 171.069 520.341 170.629 520.846 170.592L543.957 168.881C544.462 168.844 544.901 169.223 544.938 169.728C544.976 170.232 544.596 170.672 544.092 170.71Z" fill="white"/>
<path d="M548.559 177.325L521.493 179.329C520.988 179.367 520.548 178.988 520.511 178.483C520.474 177.977 520.853 177.538 521.358 177.501L548.424 175.497C548.929 175.459 549.369 175.838 549.406 176.343C549.443 176.849 549.063 177.288 548.559 177.325Z" fill="#E0E0E0"/>
<path d="M540.484 177.925L521.493 179.331C520.988 179.369 520.548 178.989 520.511 178.484C520.474 177.979 520.853 177.539 521.358 177.502L540.349 176.096C540.854 176.059 541.294 176.438 541.331 176.943C541.368 177.448 540.989 177.888 540.484 177.925Z" fill="white"/>
<path d="M516.591 186.831C516.598 186.916 512.879 187.26 508.287 187.6C503.693 187.94 499.965 188.147 499.959 188.063C499.953 187.979 503.67 187.635 508.264 187.294C512.856 186.954 516.585 186.747 516.591 186.831Z" fill="#F6F1F0"/>
<path d="M517.219 194.171C517.226 194.255 513.507 194.6 508.915 194.94C504.321 195.28 500.593 195.487 500.587 195.403C500.58 195.318 504.298 194.974 508.892 194.634C513.484 194.294 517.213 194.087 517.219 194.171Z" fill="#F6F1F0"/>
<path d="M549.476 185.255L522.41 187.259C521.905 187.297 521.465 186.917 521.428 186.412C521.391 185.907 521.77 185.467 522.275 185.43L549.341 183.427C549.846 183.389 550.286 183.768 550.323 184.273C550.36 184.778 549.98 185.218 549.476 185.255Z" fill="#E0E0E0"/>
<path d="M545.52 185.548L522.41 187.259C521.905 187.297 521.465 186.918 521.428 186.412C521.391 185.907 521.77 185.467 522.275 185.43L545.385 183.719C545.89 183.682 546.33 184.061 546.367 184.566C546.404 185.071 546.025 185.51 545.52 185.548Z" fill="white"/>
<path d="M549.986 192.163L522.92 194.167C522.415 194.205 521.975 193.826 521.938 193.32C521.9 192.815 522.28 192.376 522.785 192.339L549.85 190.335C550.356 190.297 550.795 190.676 550.832 191.181C550.871 191.686 550.491 192.126 549.986 192.163Z" fill="#E0E0E0"/>
<path d="M541.912 192.761L522.921 194.167C522.416 194.204 521.976 193.825 521.939 193.32C521.901 192.815 522.281 192.375 522.786 192.338L541.776 190.932C542.282 190.895 542.721 191.274 542.758 191.779C542.795 192.284 542.417 192.724 541.912 192.761Z" fill="white"/>
<path d="M518.161 201.997C518.167 202.081 514.448 202.426 509.856 202.766C505.262 203.106 501.534 203.313 501.528 203.229C501.522 203.144 505.24 202.8 509.834 202.46C514.426 202.12 518.155 201.913 518.161 201.997Z" fill="#F6F1F0"/>
<path d="M551.048 200.421L523.982 202.425C523.477 202.463 523.038 202.083 523.001 201.578C522.964 201.073 523.342 200.633 523.847 200.596L550.913 198.592C551.419 198.555 551.858 198.934 551.895 199.439C551.932 199.944 551.553 200.384 551.048 200.421Z" fill="#E0E0E0"/>
<path d="M538.996 201.314L523.982 202.425C523.477 202.463 523.038 202.083 523.001 201.578C522.964 201.073 523.342 200.633 523.847 200.596L538.861 199.485C539.366 199.447 539.806 199.827 539.843 200.332C539.88 200.836 539.501 201.276 538.996 201.314Z" fill="white"/>
<path d="M506.159 164.512L505.208 162.835C505.629 162.152 505.872 161.347 505.872 160.486C505.872 158.009 503.863 156 501.386 156C498.908 156 496.9 158.009 496.9 160.486C496.9 162.963 498.909 164.972 501.386 164.972C502.421 164.972 503.373 164.621 504.132 164.032L504.13 164.034L506.159 164.512Z" fill="white"/>
<path d="M540.916 158.134C540.923 158.219 534.651 158.754 526.91 159.329C519.167 159.905 512.886 160.304 512.88 160.219C512.873 160.135 519.144 159.6 526.888 159.023C534.628 158.448 540.91 158.05 540.916 158.134Z" fill="white"/>
<path d="M30.304 117V93.16H39.168C40.7893 93.16 42.2187 93.4587 43.456 94.056C44.7147 94.632 45.696 95.4853 46.4 96.616C47.104 97.7253 47.456 99.08 47.456 100.68C47.456 102.323 47.0613 103.72 46.272 104.872C45.504 106.024 44.4587 106.877 43.136 107.432L48.608 117H43.68L37.824 106.536L40.64 108.2H34.656V117H30.304ZM34.656 104.36H39.232C40.0213 104.36 40.704 104.211 41.28 103.912C41.856 103.592 42.304 103.155 42.624 102.6C42.944 102.045 43.104 101.405 43.104 100.68C43.104 99.9333 42.944 99.2933 42.624 98.76C42.304 98.2053 41.856 97.7787 41.28 97.48C40.704 97.16 40.0213 97 39.232 97H34.656V104.36ZM58.0755 117.384C56.2835 117.384 54.7155 116.979 53.3715 116.168C52.0275 115.357 50.9822 114.259 50.2355 112.872C49.4888 111.485 49.1155 109.949 49.1155 108.264C49.1155 106.515 49.4888 104.968 50.2355 103.624C51.0035 102.259 52.0382 101.181 53.3395 100.392C54.6622 99.6027 56.1342 99.208 57.7555 99.208C59.1208 99.208 60.3155 99.432 61.3395 99.88C62.3848 100.328 63.2702 100.947 63.9955 101.736C64.7208 102.525 65.2755 103.432 65.6595 104.456C66.0435 105.459 66.2355 106.547 66.2355 107.72C66.2355 108.019 66.2142 108.328 66.1715 108.648C66.1502 108.968 66.0968 109.245 66.0115 109.48H52.5715V106.28H63.6435L61.6595 107.784C61.8515 106.803 61.7982 105.928 61.4995 105.16C61.2222 104.392 60.7528 103.784 60.0915 103.336C59.4515 102.888 58.6728 102.664 57.7555 102.664C56.8808 102.664 56.1022 102.888 55.4195 103.336C54.7368 103.763 54.2142 104.403 53.8515 105.256C53.5102 106.088 53.3822 107.101 53.4675 108.296C53.3822 109.363 53.5208 110.312 53.8835 111.144C54.2675 111.955 54.8222 112.584 55.5475 113.032C56.2942 113.48 57.1475 113.704 58.1075 113.704C59.0675 113.704 59.8782 113.501 60.5395 113.096C61.2222 112.691 61.7555 112.147 62.1395 111.464L65.5315 113.128C65.1902 113.96 64.6568 114.696 63.9315 115.336C63.2062 115.976 62.3422 116.477 61.3395 116.84C60.3582 117.203 59.2702 117.384 58.0755 117.384ZM75.7173 117.384C73.8613 117.384 72.2399 116.947 70.8533 116.072C69.4879 115.176 68.5493 113.971 68.0373 112.456L71.1733 110.952C71.6213 111.933 72.2399 112.701 73.0293 113.256C73.8399 113.811 74.7359 114.088 75.7173 114.088C76.4853 114.088 77.0933 113.917 77.5413 113.576C77.9893 113.235 78.2133 112.787 78.2133 112.232C78.2133 111.891 78.1173 111.613 77.9253 111.4C77.7546 111.165 77.5093 110.973 77.1893 110.824C76.8906 110.653 76.5599 110.515 76.1973 110.408L73.3493 109.608C71.8773 109.181 70.7573 108.531 69.9893 107.656C69.2426 106.781 68.8693 105.747 68.8693 104.552C68.8693 103.485 69.1359 102.557 69.6693 101.768C70.2239 100.957 70.9813 100.328 71.9413 99.88C72.9226 99.432 74.0426 99.208 75.3013 99.208C76.9439 99.208 78.3946 99.6027 79.6533 100.392C80.9119 101.181 81.8079 102.291 82.3413 103.72L79.1413 105.224C78.8426 104.435 78.3413 103.805 77.6373 103.336C76.9333 102.867 76.1439 102.632 75.2693 102.632C74.5653 102.632 74.0106 102.792 73.6053 103.112C73.1999 103.432 72.9973 103.848 72.9973 104.36C72.9973 104.68 73.0826 104.957 73.2533 105.192C73.4239 105.427 73.6586 105.619 73.9573 105.768C74.2773 105.917 74.6399 106.056 75.0453 106.184L77.8293 107.016C79.2586 107.443 80.3573 108.083 81.1253 108.936C81.9146 109.789 82.3093 110.835 82.3093 112.072C82.3093 113.117 82.0319 114.045 81.4773 114.856C80.9226 115.645 80.1546 116.264 79.1733 116.712C78.1919 117.16 77.0399 117.384 75.7173 117.384ZM91.4188 117.384C90.0748 117.384 88.9014 117.085 87.8988 116.488C86.9174 115.891 86.1601 115.059 85.6268 113.992C85.1148 112.925 84.8588 111.677 84.8588 110.248V99.592H89.0508V109.896C89.0508 110.621 89.1894 111.261 89.4668 111.816C89.7654 112.349 90.1814 112.776 90.7148 113.096C91.2694 113.395 91.8881 113.544 92.5708 113.544C93.2534 113.544 93.8614 113.395 94.3948 113.096C94.9281 112.776 95.3441 112.339 95.6428 111.784C95.9414 111.229 96.0908 110.568 96.0908 109.8V99.592H100.283V117H96.3148V113.576L96.6668 114.184C96.2614 115.251 95.5894 116.051 94.6508 116.584C93.7334 117.117 92.6561 117.384 91.4188 117.384ZM103.86 117V99.592H107.796V103.624L107.348 102.952C107.668 101.693 108.308 100.755 109.268 100.136C110.228 99.5173 111.358 99.208 112.66 99.208C114.089 99.208 115.348 99.5813 116.436 100.328C117.524 101.075 118.228 102.056 118.548 103.272L117.364 103.368C117.897 101.981 118.697 100.947 119.764 100.264C120.83 99.56 122.057 99.208 123.444 99.208C124.681 99.208 125.78 99.4853 126.74 100.04C127.721 100.595 128.489 101.373 129.044 102.376C129.598 103.357 129.876 104.499 129.876 105.8V117H125.684V106.792C125.684 106.024 125.545 105.363 125.268 104.808C124.99 104.253 124.606 103.827 124.116 103.528C123.625 103.208 123.028 103.048 122.324 103.048C121.662 103.048 121.076 103.208 120.564 103.528C120.052 103.827 119.657 104.253 119.38 104.808C119.102 105.363 118.964 106.024 118.964 106.792V117H114.772V106.792C114.772 106.024 114.633 105.363 114.356 104.808C114.078 104.253 113.684 103.827 113.172 103.528C112.681 103.208 112.094 103.048 111.412 103.048C110.75 103.048 110.164 103.208 109.652 103.528C109.14 103.827 108.745 104.253 108.468 104.808C108.19 105.363 108.052 106.024 108.052 106.792V117H103.86ZM141.358 117.384C139.566 117.384 137.998 116.979 136.654 116.168C135.31 115.357 134.265 114.259 133.518 112.872C132.771 111.485 132.398 109.949 132.398 108.264C132.398 106.515 132.771 104.968 133.518 103.624C134.286 102.259 135.321 101.181 136.622 100.392C137.945 99.6027 139.417 99.208 141.038 99.208C142.403 99.208 143.598 99.432 144.622 99.88C145.667 100.328 146.553 100.947 147.278 101.736C148.003 102.525 148.558 103.432 148.942 104.456C149.326 105.459 149.518 106.547 149.518 107.72C149.518 108.019 149.497 108.328 149.454 108.648C149.433 108.968 149.379 109.245 149.294 109.48H135.854V106.28H146.926L144.942 107.784C145.134 106.803 145.081 105.928 144.782 105.16C144.505 104.392 144.035 103.784 143.374 103.336C142.734 102.888 141.955 102.664 141.038 102.664C140.163 102.664 139.385 102.888 138.702 103.336C138.019 103.763 137.497 104.403 137.134 105.256C136.793 106.088 136.665 107.101 136.75 108.296C136.665 109.363 136.803 110.312 137.166 111.144C137.55 111.955 138.105 112.584 138.83 113.032C139.577 113.48 140.43 113.704 141.39 113.704C142.35 113.704 143.161 113.501 143.822 113.096C144.505 112.691 145.038 112.147 145.422 111.464L148.814 113.128C148.473 113.96 147.939 114.696 147.214 115.336C146.489 115.976 145.625 116.477 144.622 116.84C143.641 117.203 142.553 117.384 141.358 117.384ZM158.095 117V93.16H168.143C169.722 93.16 171.066 93.4373 172.175 93.992C173.306 94.5253 174.17 95.2933 174.767 96.296C175.386 97.2773 175.695 98.472 175.695 99.88C175.695 100.968 175.397 101.992 174.799 102.952C174.223 103.891 173.295 104.669 172.015 105.288V103.272C173.189 103.72 174.117 104.275 174.799 104.936C175.482 105.597 175.962 106.333 176.239 107.144C176.517 107.955 176.655 108.808 176.655 109.704C176.655 111.987 175.898 113.779 174.383 115.08C172.89 116.36 170.81 117 168.143 117H158.095ZM162.447 113.16H168.591C169.722 113.16 170.618 112.851 171.279 112.232C171.962 111.592 172.303 110.749 172.303 109.704C172.303 108.659 171.962 107.816 171.279 107.176C170.618 106.536 169.722 106.216 168.591 106.216H162.447V113.16ZM162.447 102.408H168.367C169.263 102.408 169.978 102.152 170.511 101.64C171.045 101.107 171.311 100.424 171.311 99.592C171.311 98.76 171.045 98.0987 170.511 97.608C169.978 97.1173 169.263 96.872 168.367 96.872H162.447V102.408ZM187.804 117.384C186.012 117.384 184.444 116.979 183.1 116.168C181.756 115.357 180.711 114.259 179.964 112.872C179.218 111.485 178.844 109.949 178.844 108.264C178.844 106.515 179.218 104.968 179.964 103.624C180.732 102.259 181.767 101.181 183.068 100.392C184.391 99.6027 185.863 99.208 187.484 99.208C188.85 99.208 190.044 99.432 191.068 99.88C192.114 100.328 192.999 100.947 193.724 101.736C194.45 102.525 195.004 103.432 195.388 104.456C195.772 105.459 195.964 106.547 195.964 107.72C195.964 108.019 195.943 108.328 195.9 108.648C195.879 108.968 195.826 109.245 195.74 109.48H182.3V106.28H193.372L191.388 107.784C191.58 106.803 191.527 105.928 191.228 105.16C190.951 104.392 190.482 103.784 189.82 103.336C189.18 102.888 188.402 102.664 187.484 102.664C186.61 102.664 185.831 102.888 185.148 103.336C184.466 103.763 183.943 104.403 183.58 105.256C183.239 106.088 183.111 107.101 183.196 108.296C183.111 109.363 183.25 110.312 183.612 111.144C183.996 111.955 184.551 112.584 185.276 113.032C186.023 113.48 186.876 113.704 187.836 113.704C188.796 113.704 189.607 113.501 190.268 113.096C190.951 112.691 191.484 112.147 191.868 111.464L195.26 113.128C194.919 113.96 194.386 114.696 193.66 115.336C192.935 115.976 192.071 116.477 191.068 116.84C190.087 117.203 188.999 117.384 187.804 117.384ZM205.446 117.384C203.59 117.384 201.969 116.947 200.582 116.072C199.217 115.176 198.278 113.971 197.766 112.456L200.902 110.952C201.35 111.933 201.969 112.701 202.758 113.256C203.569 113.811 204.465 114.088 205.446 114.088C206.214 114.088 206.822 113.917 207.27 113.576C207.718 113.235 207.942 112.787 207.942 112.232C207.942 111.891 207.846 111.613 207.654 111.4C207.483 111.165 207.238 110.973 206.918 110.824C206.619 110.653 206.289 110.515 205.926 110.408L203.078 109.608C201.606 109.181 200.486 108.531 199.718 107.656C198.971 106.781 198.598 105.747 198.598 104.552C198.598 103.485 198.865 102.557 199.398 101.768C199.953 100.957 200.71 100.328 201.67 99.88C202.651 99.432 203.771 99.208 205.03 99.208C206.673 99.208 208.123 99.6027 209.382 100.392C210.641 101.181 211.537 102.291 212.07 103.72L208.87 105.224C208.571 104.435 208.07 103.805 207.366 103.336C206.662 102.867 205.873 102.632 204.998 102.632C204.294 102.632 203.739 102.792 203.334 103.112C202.929 103.432 202.726 103.848 202.726 104.36C202.726 104.68 202.811 104.957 202.982 105.192C203.153 105.427 203.387 105.619 203.686 105.768C204.006 105.917 204.369 106.056 204.774 106.184L207.558 107.016C208.987 107.443 210.086 108.083 210.854 108.936C211.643 109.789 212.038 110.835 212.038 112.072C212.038 113.117 211.761 114.045 211.206 114.856C210.651 115.645 209.883 116.264 208.902 116.712C207.921 117.16 206.769 117.384 205.446 117.384ZM222.876 117.192C220.913 117.192 219.388 116.659 218.3 115.592C217.233 114.504 216.7 112.979 216.7 111.016V103.336H213.692V99.592H214.012C214.865 99.592 215.526 99.368 215.996 98.92C216.465 98.472 216.7 97.8213 216.7 96.968V95.624H220.892V99.592H224.892V103.336H220.892V110.792C220.892 111.368 220.988 111.859 221.18 112.264C221.393 112.669 221.713 112.979 222.14 113.192C222.588 113.405 223.153 113.512 223.836 113.512C223.985 113.512 224.156 113.501 224.348 113.48C224.561 113.459 224.764 113.437 224.956 113.416V117C224.657 117.043 224.316 117.085 223.932 117.128C223.548 117.171 223.196 117.192 222.876 117.192ZM30.304 155V131.16H39.2C40.8213 131.16 42.2507 131.459 43.488 132.056C44.7467 132.632 45.728 133.485 46.432 134.616C47.136 135.725 47.488 137.08 47.488 138.68C47.488 140.259 47.1253 141.613 46.4 142.744C45.696 143.853 44.7253 144.707 43.488 145.304C42.2507 145.901 40.8213 146.2 39.2 146.2H34.656V155H30.304ZM34.656 142.36H39.264C40.0533 142.36 40.736 142.211 41.312 141.912C41.888 141.592 42.336 141.155 42.656 140.6C42.976 140.045 43.136 139.405 43.136 138.68C43.136 137.933 42.976 137.293 42.656 136.76C42.336 136.205 41.888 135.779 41.312 135.48C40.736 135.16 40.0533 135 39.264 135H34.656V142.36ZM50.382 155V137.592H54.318V141.464L53.998 140.888C54.4033 139.587 55.0327 138.68 55.886 138.168C56.7607 137.656 57.806 137.4 59.022 137.4H60.046V141.112H58.542C57.3473 141.112 56.3873 141.485 55.662 142.232C54.9367 142.957 54.574 143.981 54.574 145.304V155H50.382ZM67.3108 155.384C66.0948 155.384 65.0388 155.181 64.1428 154.776C63.2468 154.371 62.5534 153.795 62.0628 153.048C61.5721 152.28 61.3268 151.395 61.3268 150.392C61.3268 149.432 61.5401 148.579 61.9668 147.832C62.3934 147.064 63.0548 146.424 63.9508 145.912C64.8468 145.4 65.9774 145.037 67.3428 144.824L73.0388 143.896V147.096L68.1428 147.928C67.3108 148.077 66.6921 148.344 66.2868 148.728C65.8814 149.112 65.6788 149.613 65.6788 150.232C65.6788 150.829 65.9028 151.309 66.3508 151.672C66.8201 152.013 67.3961 152.184 68.0788 152.184C68.9534 152.184 69.7214 152.003 70.3828 151.64C71.0654 151.256 71.5881 150.733 71.9508 150.072C72.3348 149.411 72.5268 148.685 72.5268 147.896V143.416C72.5268 142.669 72.2281 142.051 71.6308 141.56C71.0548 141.048 70.2868 140.792 69.3268 140.792C68.4308 140.792 67.6308 141.037 66.9268 141.528C66.2441 141.997 65.7428 142.627 65.4228 143.416L61.9988 141.752C62.3401 140.835 62.8734 140.045 63.5988 139.384C64.3454 138.701 65.2201 138.168 66.2228 137.784C67.2254 137.4 68.3134 137.208 69.4868 137.208C70.9161 137.208 72.1748 137.475 73.2628 138.008C74.3508 138.52 75.1934 139.245 75.7908 140.184C76.4094 141.101 76.7188 142.179 76.7188 143.416V155H72.7508V152.024L73.6468 151.96C73.1988 152.707 72.6654 153.336 72.0468 153.848C71.4281 154.339 70.7241 154.723 69.9348 155C69.1454 155.256 68.2708 155.384 67.3108 155.384ZM88.6573 155.384C86.9293 155.384 85.3719 154.989 83.9853 154.2C82.6199 153.389 81.5426 152.301 80.7533 150.936C79.9639 149.549 79.5693 147.992 79.5693 146.264C79.5693 144.536 79.9639 142.989 80.7533 141.624C81.5426 140.259 82.6199 139.181 83.9853 138.392C85.3719 137.603 86.9293 137.208 88.6573 137.208C89.8946 137.208 91.0466 137.432 92.1133 137.88C93.1799 138.307 94.0973 138.904 94.8653 139.672C95.6546 140.419 96.2199 141.315 96.5613 142.36L92.8813 143.96C92.5613 143.085 92.0173 142.381 91.2493 141.848C90.5026 141.315 89.6386 141.048 88.6573 141.048C87.7399 141.048 86.9186 141.272 86.1933 141.72C85.4893 142.168 84.9346 142.787 84.5293 143.576C84.1239 144.365 83.9213 145.272 83.9213 146.296C83.9213 147.32 84.1239 148.227 84.5293 149.016C84.9346 149.805 85.4893 150.424 86.1933 150.872C86.9186 151.32 87.7399 151.544 88.6573 151.544C89.6599 151.544 90.5346 151.277 91.2813 150.744C92.0279 150.211 92.5613 149.496 92.8813 148.6L96.5613 150.264C96.2199 151.245 95.6653 152.131 94.8973 152.92C94.1293 153.688 93.2119 154.296 92.1453 154.744C91.0786 155.171 89.9159 155.384 88.6573 155.384ZM107.358 155.192C105.395 155.192 103.87 154.659 102.782 153.592C101.715 152.504 101.182 150.979 101.182 149.016V141.336H98.174V137.592H98.494C99.3473 137.592 100.009 137.368 100.478 136.92C100.947 136.472 101.182 135.821 101.182 134.968V133.624H105.374V137.592H109.374V141.336H105.374V148.792C105.374 149.368 105.47 149.859 105.662 150.264C105.875 150.669 106.195 150.979 106.622 151.192C107.07 151.405 107.635 151.512 108.318 151.512C108.467 151.512 108.638 151.501 108.83 151.48C109.043 151.459 109.246 151.437 109.438 151.416V155C109.139 155.043 108.798 155.085 108.414 155.128C108.03 155.171 107.678 155.192 107.358 155.192ZM112.321 155V137.592H116.513V155H112.321ZM112.321 135.64V131.16H116.513V135.64H112.321ZM128.447 155.384C126.719 155.384 125.162 154.989 123.775 154.2C122.41 153.389 121.333 152.301 120.543 150.936C119.754 149.549 119.359 147.992 119.359 146.264C119.359 144.536 119.754 142.989 120.543 141.624C121.333 140.259 122.41 139.181 123.775 138.392C125.162 137.603 126.719 137.208 128.447 137.208C129.685 137.208 130.837 137.432 131.903 137.88C132.97 138.307 133.887 138.904 134.655 139.672C135.445 140.419 136.01 141.315 136.351 142.36L132.671 143.96C132.351 143.085 131.807 142.381 131.039 141.848C130.293 141.315 129.429 141.048 128.447 141.048C127.53 141.048 126.709 141.272 125.983 141.72C125.279 142.168 124.725 142.787 124.319 143.576C123.914 144.365 123.711 145.272 123.711 146.296C123.711 147.32 123.914 148.227 124.319 149.016C124.725 149.805 125.279 150.424 125.983 150.872C126.709 151.32 127.53 151.544 128.447 151.544C129.45 151.544 130.325 151.277 131.071 150.744C131.818 150.211 132.351 149.496 132.671 148.6L136.351 150.264C136.01 151.245 135.455 152.131 134.687 152.92C133.919 153.688 133.002 154.296 131.935 154.744C130.869 155.171 129.706 155.384 128.447 155.384ZM147.468 155.384C145.676 155.384 144.108 154.979 142.764 154.168C141.42 153.357 140.375 152.259 139.628 150.872C138.881 149.485 138.508 147.949 138.508 146.264C138.508 144.515 138.881 142.968 139.628 141.624C140.396 140.259 141.431 139.181 142.732 138.392C144.055 137.603 145.527 137.208 147.148 137.208C148.513 137.208 149.708 137.432 150.732 137.88C151.777 138.328 152.663 138.947 153.388 139.736C154.113 140.525 154.668 141.432 155.052 142.456C155.436 143.459 155.628 144.547 155.628 145.72C155.628 146.019 155.607 146.328 155.564 146.648C155.543 146.968 155.489 147.245 155.404 147.48H141.964V144.28H153.036L151.052 145.784C151.244 144.803 151.191 143.928 150.892 143.16C150.615 142.392 150.145 141.784 149.484 141.336C148.844 140.888 148.065 140.664 147.148 140.664C146.273 140.664 145.495 140.888 144.812 141.336C144.129 141.763 143.607 142.403 143.244 143.256C142.903 144.088 142.775 145.101 142.86 146.296C142.775 147.363 142.913 148.312 143.276 149.144C143.66 149.955 144.215 150.584 144.94 151.032C145.687 151.48 146.54 151.704 147.5 151.704C148.46 151.704 149.271 151.501 149.932 151.096C150.615 150.691 151.148 150.147 151.532 149.464L154.924 151.128C154.583 151.96 154.049 152.696 153.324 153.336C152.599 153.976 151.735 154.477 150.732 154.84C149.751 155.203 148.663 155.384 147.468 155.384ZM165.11 155.384C163.254 155.384 161.632 154.947 160.246 154.072C158.88 153.176 157.942 151.971 157.43 150.456L160.566 148.952C161.014 149.933 161.632 150.701 162.422 151.256C163.232 151.811 164.128 152.088 165.11 152.088C165.878 152.088 166.486 151.917 166.934 151.576C167.382 151.235 167.606 150.787 167.606 150.232C167.606 149.891 167.51 149.613 167.318 149.4C167.147 149.165 166.902 148.973 166.582 148.824C166.283 148.653 165.952 148.515 165.59 148.408L162.742 147.608C161.27 147.181 160.15 146.531 159.382 145.656C158.635 144.781 158.262 143.747 158.262 142.552C158.262 141.485 158.528 140.557 159.062 139.768C159.616 138.957 160.374 138.328 161.334 137.88C162.315 137.432 163.435 137.208 164.694 137.208C166.336 137.208 167.787 137.603 169.046 138.392C170.304 139.181 171.2 140.291 171.734 141.72L168.534 143.224C168.235 142.435 167.734 141.805 167.03 141.336C166.326 140.867 165.536 140.632 164.662 140.632C163.958 140.632 163.403 140.792 162.998 141.112C162.592 141.432 162.39 141.848 162.39 142.36C162.39 142.68 162.475 142.957 162.646 143.192C162.816 143.427 163.051 143.619 163.35 143.768C163.67 143.917 164.032 144.056 164.438 144.184L167.222 145.016C168.651 145.443 169.75 146.083 170.518 146.936C171.307 147.789 171.702 148.835 171.702 150.072C171.702 151.117 171.424 152.045 170.87 152.856C170.315 153.645 169.547 154.264 168.566 154.712C167.584 155.16 166.432 155.384 165.11 155.384ZM181.987 155V141.336H178.915V137.592H181.987V137.016C181.987 135.693 182.253 134.573 182.787 133.656C183.341 132.717 184.109 132.003 185.091 131.512C186.072 131.021 187.235 130.776 188.579 130.776C188.835 130.776 189.112 130.797 189.411 130.84C189.731 130.861 189.997 130.893 190.211 130.936V134.552C189.997 134.509 189.795 134.488 189.603 134.488C189.432 134.467 189.272 134.456 189.123 134.456C188.184 134.456 187.459 134.669 186.947 135.096C186.435 135.501 186.179 136.141 186.179 137.016V137.592H190.051V141.336H186.179V155H181.987ZM200.663 155.384C198.956 155.384 197.399 154.989 195.991 154.2C194.604 153.411 193.495 152.333 192.663 150.968C191.852 149.603 191.447 148.045 191.447 146.296C191.447 144.547 191.852 142.989 192.663 141.624C193.495 140.259 194.604 139.181 195.991 138.392C197.377 137.603 198.935 137.208 200.663 137.208C202.369 137.208 203.916 137.603 205.303 138.392C206.689 139.181 207.788 140.259 208.599 141.624C209.431 142.968 209.847 144.525 209.847 146.296C209.847 148.045 209.431 149.603 208.599 150.968C207.767 152.333 206.657 153.411 205.271 154.2C203.884 154.989 202.348 155.384 200.663 155.384ZM200.663 151.544C201.601 151.544 202.423 151.32 203.127 150.872C203.852 150.424 204.417 149.805 204.823 149.016C205.249 148.205 205.463 147.299 205.463 146.296C205.463 145.272 205.249 144.376 204.823 143.608C204.417 142.819 203.852 142.2 203.127 141.752C202.423 141.283 201.601 141.048 200.663 141.048C199.703 141.048 198.86 141.283 198.135 141.752C197.409 142.2 196.833 142.819 196.407 143.608C196.001 144.376 195.799 145.272 195.799 146.296C195.799 147.299 196.001 148.205 196.407 149.016C196.833 149.805 197.409 150.424 198.135 150.872C198.86 151.32 199.703 151.544 200.663 151.544ZM212.706 155V137.592H216.642V141.464L216.322 140.888C216.727 139.587 217.356 138.68 218.21 138.168C219.084 137.656 220.13 137.4 221.346 137.4H222.37V141.112H220.866C219.671 141.112 218.711 141.485 217.986 142.232C217.26 142.957 216.898 143.981 216.898 145.304V155H212.706Z" fill="white"/>
<path d="M230.074 155V131.16H237.85C240.367 131.16 242.554 131.672 244.41 132.696C246.287 133.699 247.738 135.096 248.762 136.888C249.786 138.659 250.298 140.717 250.298 143.064C250.298 145.389 249.786 147.459 248.762 149.272C247.738 151.064 246.287 152.472 244.41 153.496C242.554 154.499 240.367 155 237.85 155H230.074ZM234.426 151.16H237.946C239.567 151.16 240.965 150.829 242.138 150.168C243.333 149.485 244.261 148.547 244.922 147.352C245.583 146.136 245.914 144.707 245.914 143.064C245.914 141.4 245.583 139.971 244.922 138.776C244.261 137.581 243.333 136.653 242.138 135.992C240.965 135.331 239.567 135 237.946 135H234.426V151.16ZM258.307 155.384C257.091 155.384 256.035 155.181 255.139 154.776C254.243 154.371 253.55 153.795 253.059 153.048C252.568 152.28 252.323 151.395 252.323 150.392C252.323 149.432 252.536 148.579 252.963 147.832C253.39 147.064 254.051 146.424 254.947 145.912C255.843 145.4 256.974 145.037 258.339 144.824L264.035 143.896V147.096L259.139 147.928C258.307 148.077 257.688 148.344 257.283 148.728C256.878 149.112 256.675 149.613 256.675 150.232C256.675 150.829 256.899 151.309 257.347 151.672C257.816 152.013 258.392 152.184 259.075 152.184C259.95 152.184 260.718 152.003 261.379 151.64C262.062 151.256 262.584 150.733 262.947 150.072C263.331 149.411 263.523 148.685 263.523 147.896V143.416C263.523 142.669 263.224 142.051 262.627 141.56C262.051 141.048 261.283 140.792 260.323 140.792C259.427 140.792 258.627 141.037 257.923 141.528C257.24 141.997 256.739 142.627 256.419 143.416L252.995 141.752C253.336 140.835 253.87 140.045 254.595 139.384C255.342 138.701 256.216 138.168 257.219 137.784C258.222 137.4 259.31 137.208 260.483 137.208C261.912 137.208 263.171 137.475 264.259 138.008C265.347 138.52 266.19 139.245 266.787 140.184C267.406 141.101 267.715 142.179 267.715 143.416V155H263.747V152.024L264.643 151.96C264.195 152.707 263.662 153.336 263.043 153.848C262.424 154.339 261.72 154.723 260.931 155C260.142 155.256 259.267 155.384 258.307 155.384ZM278.893 155.192C276.93 155.192 275.405 154.659 274.317 153.592C273.25 152.504 272.717 150.979 272.717 149.016V141.336H269.709V137.592H270.029C270.882 137.592 271.544 137.368 272.013 136.92C272.482 136.472 272.717 135.821 272.717 134.968V133.624H276.909V137.592H280.909V141.336H276.909V148.792C276.909 149.368 277.005 149.859 277.197 150.264C277.41 150.669 277.73 150.979 278.157 151.192C278.605 151.405 279.17 151.512 279.853 151.512C280.002 151.512 280.173 151.501 280.365 151.48C280.578 151.459 280.781 151.437 280.973 151.416V155C280.674 155.043 280.333 155.085 279.949 155.128C279.565 155.171 279.213 155.192 278.893 155.192ZM289.073 155.384C287.857 155.384 286.801 155.181 285.905 154.776C285.009 154.371 284.316 153.795 283.825 153.048C283.335 152.28 283.089 151.395 283.089 150.392C283.089 149.432 283.303 148.579 283.729 147.832C284.156 147.064 284.817 146.424 285.713 145.912C286.609 145.4 287.74 145.037 289.105 144.824L294.801 143.896V147.096L289.905 147.928C289.073 148.077 288.455 148.344 288.049 148.728C287.644 149.112 287.441 149.613 287.441 150.232C287.441 150.829 287.665 151.309 288.113 151.672C288.583 152.013 289.159 152.184 289.841 152.184C290.716 152.184 291.484 152.003 292.145 151.64C292.828 151.256 293.351 150.733 293.713 150.072C294.097 149.411 294.289 148.685 294.289 147.896V143.416C294.289 142.669 293.991 142.051 293.393 141.56C292.817 141.048 292.049 140.792 291.089 140.792C290.193 140.792 289.393 141.037 288.689 141.528C288.007 141.997 287.505 142.627 287.185 143.416L283.761 141.752C284.103 140.835 284.636 140.045 285.361 139.384C286.108 138.701 286.983 138.168 287.985 137.784C288.988 137.4 290.076 137.208 291.249 137.208C292.679 137.208 293.937 137.475 295.025 138.008C296.113 138.52 296.956 139.245 297.553 140.184C298.172 141.101 298.481 142.179 298.481 143.416V155H294.513V152.024L295.409 151.96C294.961 152.707 294.428 153.336 293.809 153.848C293.191 154.339 292.487 154.723 291.697 155C290.908 155.256 290.033 155.384 289.073 155.384ZM38.816 193.384C37.3013 193.384 35.8933 193.107 34.592 192.552C33.312 191.997 32.2027 191.229 31.264 190.248C30.3467 189.245 29.6747 188.083 29.248 186.76L32.864 185.192C33.44 186.557 34.272 187.635 35.36 188.424C36.448 189.192 37.6747 189.576 39.04 189.576C39.808 189.576 40.4693 189.459 41.024 189.224C41.6 188.968 42.0373 188.627 42.336 188.2C42.656 187.773 42.816 187.261 42.816 186.664C42.816 185.96 42.6027 185.384 42.176 184.936C41.7707 184.467 41.152 184.104 40.32 183.848L35.744 182.376C33.888 181.8 32.4907 180.936 31.552 179.784C30.6133 178.632 30.144 177.277 30.144 175.72C30.144 174.355 30.4747 173.149 31.136 172.104C31.8187 171.059 32.7573 170.248 33.952 169.672C35.168 169.075 36.5547 168.776 38.112 168.776C39.5413 168.776 40.8533 169.032 42.048 169.544C43.2427 170.035 44.2667 170.728 45.12 171.624C45.9947 172.499 46.6453 173.533 47.072 174.728L43.488 176.328C43.0187 175.133 42.3147 174.216 41.376 173.576C40.4373 172.915 39.3493 172.584 38.112 172.584C37.3867 172.584 36.7467 172.712 36.192 172.968C35.6373 173.203 35.2 173.544 34.88 173.992C34.5813 174.419 34.432 174.931 34.432 175.528C34.432 176.189 34.6453 176.776 35.072 177.288C35.4987 177.779 36.1493 178.163 37.024 178.44L41.408 179.816C43.3067 180.435 44.7253 181.288 45.664 182.376C46.624 183.464 47.104 184.808 47.104 186.408C47.104 187.773 46.752 188.979 46.048 190.024C45.344 191.069 44.3733 191.891 43.136 192.488C41.8987 193.085 40.4587 193.384 38.816 193.384ZM58.7348 193.384C57.0068 193.384 55.4494 192.989 54.0628 192.2C52.6974 191.389 51.6201 190.301 50.8308 188.936C50.0414 187.549 49.6468 185.992 49.6468 184.264C49.6468 182.536 50.0414 180.989 50.8308 179.624C51.6201 178.259 52.6974 177.181 54.0628 176.392C55.4494 175.603 57.0068 175.208 58.7348 175.208C59.9721 175.208 61.1241 175.432 62.1908 175.88C63.2574 176.307 64.1748 176.904 64.9428 177.672C65.7321 178.419 66.2974 179.315 66.6388 180.36L62.9588 181.96C62.6388 181.085 62.0948 180.381 61.3268 179.848C60.5801 179.315 59.7161 179.048 58.7348 179.048C57.8174 179.048 56.9961 179.272 56.2708 179.72C55.5668 180.168 55.0121 180.787 54.6068 181.576C54.2014 182.365 53.9988 183.272 53.9988 184.296C53.9988 185.32 54.2014 186.227 54.6068 187.016C55.0121 187.805 55.5668 188.424 56.2708 188.872C56.9961 189.32 57.8174 189.544 58.7348 189.544C59.7374 189.544 60.6121 189.277 61.3588 188.744C62.1054 188.211 62.6388 187.496 62.9588 186.6L66.6388 188.264C66.2974 189.245 65.7428 190.131 64.9748 190.92C64.2068 191.688 63.2894 192.296 62.2228 192.744C61.1561 193.171 59.9934 193.384 58.7348 193.384ZM69.4995 193V175.592H73.6915V193H69.4995ZM69.4995 173.64V169.16H73.6915V173.64H69.4995ZM85.498 193.384C83.706 193.384 82.138 192.979 80.794 192.168C79.45 191.357 78.4047 190.259 77.658 188.872C76.9113 187.485 76.538 185.949 76.538 184.264C76.538 182.515 76.9113 180.968 77.658 179.624C78.426 178.259 79.4607 177.181 80.762 176.392C82.0847 175.603 83.5567 175.208 85.178 175.208C86.5433 175.208 87.738 175.432 88.762 175.88C89.8073 176.328 90.6927 176.947 91.418 177.736C92.1433 178.525 92.698 179.432 93.082 180.456C93.466 181.459 93.658 182.547 93.658 183.72C93.658 184.019 93.6367 184.328 93.594 184.648C93.5727 184.968 93.5193 185.245 93.434 185.48H79.994V182.28H91.066L89.082 183.784C89.274 182.803 89.2207 181.928 88.922 181.16C88.6447 180.392 88.1753 179.784 87.514 179.336C86.874 178.888 86.0953 178.664 85.178 178.664C84.3033 178.664 83.5247 178.888 82.842 179.336C82.1593 179.763 81.6367 180.403 81.274 181.256C80.9327 182.088 80.8047 183.101 80.89 184.296C80.8047 185.363 80.9433 186.312 81.306 187.144C81.69 187.955 82.2447 188.584 82.97 189.032C83.7167 189.48 84.57 189.704 85.53 189.704C86.49 189.704 87.3007 189.501 87.962 189.096C88.6447 188.691 89.178 188.147 89.562 187.464L92.954 189.128C92.6127 189.96 92.0793 190.696 91.354 191.336C90.6287 191.976 89.7647 192.477 88.762 192.84C87.7807 193.203 86.6927 193.384 85.498 193.384ZM96.5158 193V175.592H100.452V179.016L100.132 178.408C100.537 177.363 101.198 176.573 102.116 176.04C103.054 175.485 104.142 175.208 105.38 175.208C106.66 175.208 107.79 175.485 108.772 176.04C109.774 176.595 110.553 177.373 111.108 178.376C111.662 179.357 111.94 180.499 111.94 181.8V193H107.748V182.792C107.748 182.024 107.598 181.363 107.3 180.808C107.001 180.253 106.585 179.827 106.052 179.528C105.54 179.208 104.932 179.048 104.228 179.048C103.545 179.048 102.937 179.208 102.404 179.528C101.87 179.827 101.454 180.253 101.156 180.808C100.857 181.363 100.708 182.024 100.708 182.792V193H96.5158ZM123.549 193.384C121.821 193.384 120.263 192.989 118.877 192.2C117.511 191.389 116.434 190.301 115.645 188.936C114.855 187.549 114.461 185.992 114.461 184.264C114.461 182.536 114.855 180.989 115.645 179.624C116.434 178.259 117.511 177.181 118.877 176.392C120.263 175.603 121.821 175.208 123.549 175.208C124.786 175.208 125.938 175.432 127.005 175.88C128.071 176.307 128.989 176.904 129.757 177.672C130.546 178.419 131.111 179.315 131.453 180.36L127.773 181.96C127.453 181.085 126.909 180.381 126.141 179.848C125.394 179.315 124.53 179.048 123.549 179.048C122.631 179.048 121.81 179.272 121.085 179.72C120.381 180.168 119.826 180.787 119.421 181.576C119.015 182.365 118.813 183.272 118.813 184.296C118.813 185.32 119.015 186.227 119.421 187.016C119.826 187.805 120.381 188.424 121.085 188.872C121.81 189.32 122.631 189.544 123.549 189.544C124.551 189.544 125.426 189.277 126.173 188.744C126.919 188.211 127.453 187.496 127.773 186.6L131.453 188.264C131.111 189.245 130.557 190.131 129.789 190.92C129.021 191.688 128.103 192.296 127.037 192.744C125.97 193.171 124.807 193.384 123.549 193.384ZM142.569 193.384C140.777 193.384 139.209 192.979 137.865 192.168C136.521 191.357 135.476 190.259 134.729 188.872C133.983 187.485 133.609 185.949 133.609 184.264C133.609 182.515 133.983 180.968 134.729 179.624C135.497 178.259 136.532 177.181 137.833 176.392C139.156 175.603 140.628 175.208 142.249 175.208C143.615 175.208 144.809 175.432 145.833 175.88C146.879 176.328 147.764 176.947 148.489 177.736C149.215 178.525 149.769 179.432 150.153 180.456C150.537 181.459 150.729 182.547 150.729 183.72C150.729 184.019 150.708 184.328 150.665 184.648C150.644 184.968 150.591 185.245 150.505 185.48H137.065V182.28H148.137L146.153 183.784C146.345 182.803 146.292 181.928 145.993 181.16C145.716 180.392 145.247 179.784 144.585 179.336C143.945 178.888 143.167 178.664 142.249 178.664C141.375 178.664 140.596 178.888 139.913 179.336C139.231 179.763 138.708 180.403 138.345 181.256C138.004 182.088 137.876 183.101 137.961 184.296C137.876 185.363 138.015 186.312 138.377 187.144C138.761 187.955 139.316 188.584 140.041 189.032C140.788 189.48 141.641 189.704 142.601 189.704C143.561 189.704 144.372 189.501 145.033 189.096C145.716 188.691 146.249 188.147 146.633 187.464L150.025 189.128C149.684 189.96 149.151 190.696 148.425 191.336C147.7 191.976 146.836 192.477 145.833 192.84C144.852 193.203 143.764 193.384 142.569 193.384ZM159.307 193V169.16H163.659V193H159.307ZM167.572 193V175.592H171.508V179.016L171.188 178.408C171.593 177.363 172.255 176.573 173.172 176.04C174.111 175.485 175.199 175.208 176.436 175.208C177.716 175.208 178.847 175.485 179.828 176.04C180.831 176.595 181.609 177.373 182.164 178.376C182.719 179.357 182.996 180.499 182.996 181.8V193H178.804V182.792C178.804 182.024 178.655 181.363 178.356 180.808C178.057 180.253 177.641 179.827 177.108 179.528C176.596 179.208 175.988 179.048 175.284 179.048C174.601 179.048 173.993 179.208 173.46 179.528C172.927 179.827 172.511 180.253 172.212 180.808C171.913 181.363 171.764 182.024 171.764 182.792V193H167.572ZM194.157 193.192C192.194 193.192 190.669 192.659 189.581 191.592C188.514 190.504 187.981 188.979 187.981 187.016V179.336H184.973V175.592H185.293C186.146 175.592 186.807 175.368 187.277 174.92C187.746 174.472 187.981 173.821 187.981 172.968V171.624H192.173V175.592H196.173V179.336H192.173V186.792C192.173 187.368 192.269 187.859 192.461 188.264C192.674 188.669 192.994 188.979 193.421 189.192C193.869 189.405 194.434 189.512 195.117 189.512C195.266 189.512 195.437 189.501 195.629 189.48C195.842 189.459 196.045 189.437 196.237 189.416V193C195.938 193.043 195.597 193.085 195.213 193.128C194.829 193.171 194.477 193.192 194.157 193.192ZM207.219 193.384C205.427 193.384 203.859 192.979 202.515 192.168C201.171 191.357 200.126 190.259 199.379 188.872C198.633 187.485 198.259 185.949 198.259 184.264C198.259 182.515 198.633 180.968 199.379 179.624C200.147 178.259 201.182 177.181 202.483 176.392C203.806 175.603 205.278 175.208 206.899 175.208C208.265 175.208 209.459 175.432 210.483 175.88C211.529 176.328 212.414 176.947 213.139 177.736C213.865 178.525 214.419 179.432 214.803 180.456C215.187 181.459 215.379 182.547 215.379 183.72C215.379 184.019 215.358 184.328 215.315 184.648C215.294 184.968 215.241 185.245 215.155 185.48H201.715V182.28H212.787L210.803 183.784C210.995 182.803 210.942 181.928 210.643 181.16C210.366 180.392 209.897 179.784 209.235 179.336C208.595 178.888 207.817 178.664 206.899 178.664C206.025 178.664 205.246 178.888 204.563 179.336C203.881 179.763 203.358 180.403 202.995 181.256C202.654 182.088 202.526 183.101 202.611 184.296C202.526 185.363 202.665 186.312 203.027 187.144C203.411 187.955 203.966 188.584 204.691 189.032C205.438 189.48 206.291 189.704 207.251 189.704C208.211 189.704 209.022 189.501 209.683 189.096C210.366 188.691 210.899 188.147 211.283 187.464L214.675 189.128C214.334 189.96 213.801 190.696 213.075 191.336C212.35 191.976 211.486 192.477 210.483 192.84C209.502 193.203 208.414 193.384 207.219 193.384ZM218.237 193V175.592H222.173V179.464L221.853 178.888C222.258 177.587 222.888 176.68 223.741 176.168C224.616 175.656 225.661 175.4 226.877 175.4H227.901V179.112H226.397C225.202 179.112 224.242 179.485 223.517 180.232C222.792 180.957 222.429 181.981 222.429 183.304V193H218.237ZM235.134 193L228.286 175.592H232.862L237.822 189.288H236.126L241.118 175.592H245.694L238.846 193H235.134ZM247.691 193V175.592H251.883V193H247.691ZM247.691 173.64V169.16H251.883V173.64H247.691ZM263.689 193.384C261.897 193.384 260.329 192.979 258.985 192.168C257.641 191.357 256.596 190.259 255.849 188.872C255.103 187.485 254.729 185.949 254.729 184.264C254.729 182.515 255.103 180.968 255.849 179.624C256.617 178.259 257.652 177.181 258.953 176.392C260.276 175.603 261.748 175.208 263.369 175.208C264.735 175.208 265.929 175.432 266.953 175.88C267.999 176.328 268.884 176.947 269.609 177.736C270.335 178.525 270.889 179.432 271.273 180.456C271.657 181.459 271.849 182.547 271.849 183.72C271.849 184.019 271.828 184.328 271.785 184.648C271.764 184.968 271.711 185.245 271.625 185.48H258.185V182.28H269.257L267.273 183.784C267.465 182.803 267.412 181.928 267.113 181.16C266.836 180.392 266.367 179.784 265.705 179.336C265.065 178.888 264.287 178.664 263.369 178.664C262.495 178.664 261.716 178.888 261.033 179.336C260.351 179.763 259.828 180.403 259.465 181.256C259.124 182.088 258.996 183.101 259.081 184.296C258.996 185.363 259.135 186.312 259.497 187.144C259.881 187.955 260.436 188.584 261.161 189.032C261.908 189.48 262.761 189.704 263.721 189.704C264.681 189.704 265.492 189.501 266.153 189.096C266.836 188.691 267.369 188.147 267.753 187.464L271.145 189.128C270.804 189.96 270.271 190.696 269.545 191.336C268.82 191.976 267.956 192.477 266.953 192.84C265.972 193.203 264.884 193.384 263.689 193.384ZM279.091 193L273.107 175.592H277.523L281.907 188.808L280.371 188.776L285.043 175.592H288.755L293.395 188.776L291.859 188.808L296.243 175.592H300.659L294.675 193H290.931L286.195 179.208H287.603L282.803 193H279.091ZM309.261 193.384C307.405 193.384 305.784 192.947 304.397 192.072C303.032 191.176 302.093 189.971 301.581 188.456L304.717 186.952C305.165 187.933 305.784 188.701 306.573 189.256C307.384 189.811 308.28 190.088 309.261 190.088C310.029 190.088 310.637 189.917 311.085 189.576C311.533 189.235 311.757 188.787 311.757 188.232C311.757 187.891 311.661 187.613 311.469 187.4C311.298 187.165 311.053 186.973 310.733 186.824C310.434 186.653 310.104 186.515 309.741 186.408L306.893 185.608C305.421 185.181 304.301 184.531 303.533 183.656C302.786 182.781 302.413 181.747 302.413 180.552C302.413 179.485 302.68 178.557 303.213 177.768C303.768 176.957 304.525 176.328 305.485 175.88C306.466 175.432 307.586 175.208 308.845 175.208C310.488 175.208 311.938 175.603 313.197 176.392C314.456 177.181 315.352 178.291 315.885 179.72L312.685 181.224C312.386 180.435 311.885 179.805 311.181 179.336C310.477 178.867 309.688 178.632 308.813 178.632C308.109 178.632 307.554 178.792 307.149 179.112C306.744 179.432 306.541 179.848 306.541 180.36C306.541 180.68 306.626 180.957 306.797 181.192C306.968 181.427 307.202 181.619 307.501 181.768C307.821 181.917 308.184 182.056 308.589 182.184L311.373 183.016C312.802 183.443 313.901 184.083 314.669 184.936C315.458 185.789 315.853 186.835 315.853 188.072C315.853 189.117 315.576 190.045 315.021 190.856C314.466 191.645 313.698 192.264 312.717 192.712C311.736 193.16 310.584 193.384 309.261 193.384Z" fill="url(#paint1_linear_127_960)"/>
<g style="mix-blend-mode:overlay" filter="url(#filter1_f_127_960)">
<path d="M626.014 100.004C647.253 11.9701 453.742 79.5349 390.794 137.198L506.891 176.65C539.519 180.446 609.023 170.432 626.014 100.004Z" fill="#EC44EF"/>
<path d="M597.183 253.295L627.502 24.898C666.184 -27.4814 714.767 118.986 771.712 250.268C817.269 355.294 674.341 296.047 597.183 253.295Z" fill="#44B1EF"/>
<rect x="261" y="134.377" width="235.99" height="110.812" fill="#EF4444"/>
</g>
</g>
<rect x="0.5" y="0.5" width="613" height="282" stroke="#4D4D4D"/>
<defs>
<filter id="filter0_f_127_960" x="-158.961" y="-1.60416" width="724.694" height="500.278" filterUnits="userSpaceOnUse" color-interpolation-filters="sRGB">
<feFlood flood-opacity="0" result="BackgroundImageFix"/>
<feBlend mode="normal" in="SourceGraphic" in2="BackgroundImageFix" result="shape"/>
<feGaussianBlur stdDeviation="51.3021" result="effect1_foregroundBlur_127_960"/>
</filter>
<filter id="filter1_f_127_960" x="158.396" y="-88.6042" width="724.694" height="500.278" filterUnits="userSpaceOnUse" color-interpolation-filters="sRGB">
<feFlood flood-opacity="0" result="BackgroundImageFix"/>
<feBlend mode="normal" in="SourceGraphic" in2="BackgroundImageFix" result="shape"/>
<feGaussianBlur stdDeviation="51.3021" result="effect1_foregroundBlur_127_960"/>
</filter>
<linearGradient id="paint0_linear_127_960" x1="307" y1="17.8957" x2="307" y2="283" gradientUnits="userSpaceOnUse">
<stop stop-color="#02122B"/>
<stop offset="1"/>
</linearGradient>
<linearGradient id="paint1_linear_127_960" x1="56" y1="172" x2="301.5" y2="173" gradientUnits="userSpaceOnUse">
<stop stop-color="#2154DA"/>
<stop offset="1" stop-color="#DBDBDB"/>
</linearGradient>
<clipPath id="clip0_127_960">
<rect width="614" height="283" fill="white"/>
</clipPath>
</defs>
</svg>
