<svg width="84" height="84" viewBox="0 0 84 84" fill="none" xmlns="http://www.w3.org/2000/svg">
<path d="M7.15061 56.2486L14.3064 76.1763C14.6752 77.2014 15.6451 77.8419 16.6754 77.8419C16.9563 77.8419 17.2437 77.7933 17.5233 77.6936L24.2249 75.2877C25.5295 74.8179 26.2081 73.3754 25.7409 72.0721L25.7002 71.9579L27.1597 71.4342C27.8382 71.1914 28.5614 71.1691 29.2531 71.3712L39.0325 74.2351C39.5877 74.3979 40.1574 74.4779 40.723 74.4779C41.8885 74.4779 43.0396 74.138 44.0345 73.4791L64.3599 60.0352C65.738 59.1243 66.6882 57.6661 66.9678 56.0373C67.2474 54.4085 66.8339 52.718 65.8377 51.3989C63.9477 48.9012 60.5169 48.2699 57.8604 49.9289L46.2264 57.2028C45.7092 56.2407 44.9073 55.4217 43.8455 54.9217L31.5408 49.1191C30.2834 48.5259 28.8095 48.4563 27.5009 48.9249L18.5785 52.1287C18.1034 50.8359 16.6675 50.1652 15.3695 50.6285L8.66917 53.0343C7.36454 53.5029 6.68336 54.9466 7.15192 56.2512L7.15061 56.2486ZM28.3869 51.3937C29.0444 51.1561 29.786 51.1929 30.4199 51.4908L42.7246 57.2934C44.0502 57.9194 44.6212 59.5076 43.9951 60.8332C43.6919 61.4763 43.1564 61.9619 42.4884 62.2021C41.8203 62.4423 41.0984 62.4082 40.4553 62.105L33.7589 58.9471C33.1027 58.6387 32.3204 58.9196 32.012 59.5745C31.7022 60.2307 31.9831 61.013 32.6394 61.3214L39.3357 64.4793C40.0524 64.8166 40.8175 64.9872 41.5867 64.9872C42.1878 64.9872 42.7929 64.8836 43.3756 64.6736C44.7039 64.1971 45.767 63.2311 46.3694 61.9541C46.6831 61.2886 46.8445 60.5891 46.8682 59.8974L59.2516 52.1549C60.7479 51.2191 62.6799 51.5761 63.7443 52.9818C64.3139 53.7352 64.5397 54.6631 64.3809 55.5937C64.2207 56.5242 63.6997 57.3236 62.9122 57.8446L42.5868 71.2886C41.7547 71.8372 40.7257 71.9947 39.7702 71.7138L29.9907 68.8499C28.7622 68.4929 27.476 68.5284 26.2724 68.9615L24.8129 69.4852L19.4671 54.5949L28.3882 51.3924L28.3869 51.3937ZM16.1517 53.1341L16.552 54.2484L23.2327 72.8544L16.7397 75.1854L9.65879 55.4651L16.1517 53.1341Z" fill="white"/>
<path d="M16.8125 61.3002L15.9607 58.9272C15.7139 58.2434 14.9632 57.8903 14.282 58.1344C13.5995 58.3799 13.2451 59.1306 13.4893 59.8131L14.3411 62.1861C14.534 62.7216 15.038 63.0563 15.5761 63.0563C15.7231 63.0563 15.8728 63.0314 16.0198 62.9789C16.7023 62.7334 17.0566 61.9827 16.8125 61.3002Z" fill="white"/>
<path d="M59.9822 23.7697C61.0152 22.763 61.3787 21.2851 60.9338 19.9135C60.4888 18.542 59.3247 17.5615 57.898 17.3529L49.8366 16.1808C49.4652 16.127 49.1462 15.8947 48.9808 15.56L45.3754 8.2546C44.7362 6.96048 43.4447 6.15723 42.0023 6.15723C40.5598 6.15723 39.2683 6.96048 38.6292 8.2546L35.0237 15.56C34.8583 15.8947 34.5394 16.127 34.168 16.1808L26.1053 17.3529C24.6786 17.5602 23.5144 18.542 23.0695 19.9135C22.6245 21.2851 22.9881 22.763 24.021 23.7697L29.8551 29.4567C30.1228 29.7179 30.2449 30.0933 30.1819 30.4634L28.8064 38.492C28.5623 39.9134 29.1345 41.323 30.3027 42.1709C30.9615 42.65 31.7333 42.8928 32.5103 42.8928C33.1088 42.8928 33.7099 42.7484 34.2638 42.457L41.476 38.6652C41.8067 38.4907 42.2005 38.492 42.5325 38.6652L49.7434 42.4557C51.0178 43.1251 52.5364 43.0175 53.7045 42.1696C54.8713 41.3217 55.4449 39.9121 55.2008 38.4907L53.824 30.4608C53.761 30.092 53.883 29.7166 54.1521 29.4541L59.9848 23.767L59.9822 23.7697ZM52.3172 27.5759C51.43 28.4409 51.0257 29.6851 51.2344 30.9057L52.6112 38.9356C52.7188 39.5643 52.3303 39.9213 52.1584 40.046C51.9878 40.1707 51.5271 40.4305 50.9614 40.1326L43.7505 36.3421C42.6546 35.7646 41.3447 35.7646 40.2501 36.3421L33.0392 40.1326C32.4762 40.4305 32.0142 40.1707 31.8422 40.046C31.6703 39.9213 31.2818 39.563 31.3907 38.9343L32.7662 30.9057C32.9762 29.6851 32.572 28.4395 31.6847 27.5759L25.852 21.8889C25.3952 21.4439 25.4976 20.9255 25.5645 20.7234C25.6302 20.5212 25.8507 20.0422 26.482 19.9503L34.5447 18.7782C35.7705 18.5997 36.8297 17.8306 37.377 16.7202L40.9825 9.41485C41.2647 8.8426 41.7897 8.78091 42.001 8.78091C42.2123 8.78091 42.7386 8.8426 43.0195 9.41485L46.6249 16.7189C47.1722 17.8293 48.2314 18.5997 49.4573 18.7769L57.5187 19.949C58.15 20.0409 58.3705 20.5212 58.4361 20.722C58.5017 20.9242 58.6054 21.4413 58.1487 21.8875L52.3159 27.5733L52.3172 27.5759Z" fill="white"/>
<path d="M79.5711 10.1665L70.8181 13.7128C70.1461 13.9845 69.8219 14.751 70.0949 15.4217C70.3009 15.9323 70.7931 16.242 71.3116 16.242C71.4756 16.242 71.6423 16.2105 71.8037 16.1449L80.5568 12.5985C81.2288 12.3268 81.553 11.5603 81.28 10.8897C81.0083 10.219 80.2431 9.89347 79.5711 10.1665Z" fill="white"/>
<path d="M71.3086 26.8789H80.0617C80.7862 26.8789 81.3742 26.2909 81.3742 25.5664C81.3742 24.8419 80.7862 24.2539 80.0617 24.2539H71.3086C70.5841 24.2539 69.9961 24.8419 69.9961 25.5664C69.9961 26.2909 70.5841 26.8789 71.3086 26.8789Z" fill="white"/>
<path d="M80.5547 38.5326L71.8016 34.9862C71.1296 34.7145 70.3631 35.0387 70.0927 35.7094C69.8197 36.3814 70.1452 37.1466 70.8159 37.4183L79.569 40.9647C79.7304 41.0303 79.8971 41.0618 80.0612 41.0618C80.5809 41.0618 81.0718 40.752 81.2779 40.2415C81.5509 39.5695 81.2254 38.8043 80.5547 38.5326Z" fill="white"/>
<path d="M13.1849 13.7117L4.43052 10.1667C3.7572 9.89496 2.99333 10.2192 2.72164 10.8898C2.44864 11.5618 2.77414 12.327 3.44483 12.5987L12.1979 16.1451C12.3593 16.2107 12.526 16.2422 12.6901 16.2422C13.2098 16.2422 13.7007 15.9325 13.9068 15.4219C14.1798 14.7499 13.8543 13.9847 13.1836 13.713L13.1849 13.7117Z" fill="white"/>
<path d="M12.6906 24.2537H3.9375C3.213 24.2537 2.625 24.8417 2.625 25.5662C2.625 26.2907 3.213 26.8787 3.9375 26.8787H12.6906C13.4151 26.8787 14.0031 26.2907 14.0031 25.5662C14.0031 24.8417 13.4151 24.2537 12.6906 24.2537Z" fill="white"/>
<path d="M2.72181 40.2428C2.92788 40.7533 3.42006 41.0631 3.9385 41.0631C4.10256 41.0631 4.26925 41.0316 4.43069 40.9659L13.1838 37.4196C13.8558 37.1479 14.1799 36.3814 13.9069 35.7107C13.6353 35.04 12.8688 34.7145 12.1981 34.9875L3.445 38.5339C2.773 38.8056 2.44881 39.5721 2.72181 40.2428Z" fill="white"/>
</svg>
