<svg width="391" height="252" viewBox="0 0 391 252" fill="none" xmlns="http://www.w3.org/2000/svg">
<g clip-path="url(#clip0_93_2505)">
<rect width="391" height="252" rx="16" fill="white"/>
<rect x="-1" width="394" height="252" fill="#DBE5FF"/>
<rect x="24" y="26" width="123" height="35" rx="4" fill="#ACC2FA" fill-opacity="0.5"/>
<path d="M51 35.5H49V34.5C49 34.2348 48.8946 33.9804 48.7071 33.7929C48.5196 33.6054 48.2652 33.5 48 33.5C47.7348 33.5 47.4804 33.6054 47.2929 33.7929C47.1054 33.9804 47 34.2348 47 34.5V35.5H41V34.5C41 34.2348 40.8946 33.9804 40.7071 33.7929C40.5196 33.6054 40.2652 33.5 40 33.5C39.7348 33.5 39.4804 33.6054 39.2929 33.7929C39.1054 33.9804 39 34.2348 39 34.5V35.5H37C36.2044 35.5 35.4413 35.8161 34.8787 36.3787C34.3161 36.9413 34 37.7044 34 38.5V50.5C34 51.2956 34.3161 52.0587 34.8787 52.6213C35.4413 53.1839 36.2044 53.5 37 53.5H51C51.7956 53.5 52.5587 53.1839 53.1213 52.6213C53.6839 52.0587 54 51.2956 54 50.5V38.5C54 37.7044 53.6839 36.9413 53.1213 36.3787C52.5587 35.8161 51.7956 35.5 51 35.5ZM52 50.5C52 50.7652 51.8946 51.0196 51.7071 51.2071C51.5196 51.3946 51.2652 51.5 51 51.5H37C36.7348 51.5 36.4804 51.3946 36.2929 51.2071C36.1054 51.0196 36 50.7652 36 50.5V43.5H52V50.5ZM52 41.5H36V38.5C36 38.2348 36.1054 37.9804 36.2929 37.7929C36.4804 37.6054 36.7348 37.5 37 37.5H39V38.5C39 38.7652 39.1054 39.0196 39.2929 39.2071C39.4804 39.3946 39.7348 39.5 40 39.5C40.2652 39.5 40.5196 39.3946 40.7071 39.2071C40.8946 39.0196 41 38.7652 41 38.5V37.5H47V38.5C47 38.7652 47.1054 39.0196 47.2929 39.2071C47.4804 39.3946 47.7348 39.5 48 39.5C48.2652 39.5 48.5196 39.3946 48.7071 39.2071C48.8946 39.0196 49 38.7652 49 38.5V37.5H51C51.2652 37.5 51.5196 37.6054 51.7071 37.7929C51.8946 37.9804 52 38.2348 52 38.5V41.5Z" fill="#2154DA"/>
<path d="M70.804 51V48.048H64.648V45.996L70.66 37.59H73.216V45.996H75.178V48.048H73.216V51H70.804ZM66.448 46.878L66.016 45.996H70.804V39.516L71.434 39.714L66.448 46.878ZM82.7746 51L79.1746 37.59H81.8026L84.6286 49.02H83.9446L86.8966 37.59H89.4346L92.3686 49.02H91.6846L94.5106 37.59H97.1386L93.5386 51H90.7306L87.7606 39.876H88.5526L85.5826 51H82.7746ZM102.49 51.216C101.482 51.216 100.6 50.988 99.844 50.532C99.088 50.076 98.5 49.458 98.08 48.678C97.66 47.898 97.45 47.034 97.45 46.086C97.45 45.102 97.66 44.232 98.08 43.476C98.512 42.708 99.094 42.102 99.826 41.658C100.57 41.214 101.398 40.992 102.31 40.992C103.078 40.992 103.75 41.118 104.326 41.37C104.914 41.622 105.412 41.97 105.82 42.414C106.228 42.858 106.54 43.368 106.756 43.944C106.972 44.508 107.08 45.12 107.08 45.78C107.08 45.948 107.068 46.122 107.044 46.302C107.032 46.482 107.002 46.638 106.954 46.77H99.394V44.97H105.622L104.506 45.816C104.614 45.264 104.584 44.772 104.416 44.34C104.26 43.908 103.996 43.566 103.624 43.314C103.264 43.062 102.826 42.936 102.31 42.936C101.818 42.936 101.38 43.062 100.996 43.314C100.612 43.554 100.318 43.914 100.114 44.394C99.922 44.862 99.85 45.432 99.898 46.104C99.85 46.704 99.928 47.238 100.132 47.706C100.348 48.162 100.66 48.516 101.068 48.768C101.488 49.02 101.968 49.146 102.508 49.146C103.048 49.146 103.504 49.032 103.876 48.804C104.26 48.576 104.56 48.27 104.776 47.886L106.684 48.822C106.492 49.29 106.192 49.704 105.784 50.064C105.376 50.424 104.89 50.706 104.326 50.91C103.774 51.114 103.162 51.216 102.49 51.216ZM113.512 51.216C112.504 51.216 111.622 50.988 110.866 50.532C110.11 50.076 109.522 49.458 109.102 48.678C108.682 47.898 108.472 47.034 108.472 46.086C108.472 45.102 108.682 44.232 109.102 43.476C109.534 42.708 110.116 42.102 110.848 41.658C111.592 41.214 112.42 40.992 113.332 40.992C114.1 40.992 114.772 41.118 115.348 41.37C115.936 41.622 116.434 41.97 116.842 42.414C117.25 42.858 117.562 43.368 117.778 43.944C117.994 44.508 118.102 45.12 118.102 45.78C118.102 45.948 118.09 46.122 118.066 46.302C118.054 46.482 118.024 46.638 117.976 46.77H110.416V44.97H116.644L115.528 45.816C115.636 45.264 115.606 44.772 115.438 44.34C115.282 43.908 115.018 43.566 114.646 43.314C114.286 43.062 113.848 42.936 113.332 42.936C112.84 42.936 112.402 43.062 112.018 43.314C111.634 43.554 111.34 43.914 111.136 44.394C110.944 44.862 110.872 45.432 110.92 46.104C110.872 46.704 110.95 47.238 111.154 47.706C111.37 48.162 111.682 48.516 112.09 48.768C112.51 49.02 112.99 49.146 113.53 49.146C114.07 49.146 114.526 49.032 114.898 48.804C115.282 48.576 115.582 48.27 115.798 47.886L117.706 48.822C117.514 49.29 117.214 49.704 116.806 50.064C116.398 50.424 115.912 50.706 115.348 50.91C114.796 51.114 114.184 51.216 113.512 51.216ZM119.889 51V37.374H122.247V46.302L121.347 46.032L125.955 41.208H128.889L125.271 45.15L128.961 51H126.261L123.057 45.924L124.461 45.636L121.509 48.804L122.247 47.364V51H119.889ZM134.004 51.216C132.96 51.216 132.048 50.97 131.268 50.478C130.5 49.974 129.972 49.296 129.684 48.444L131.448 47.598C131.7 48.15 132.048 48.582 132.492 48.894C132.948 49.206 133.452 49.362 134.004 49.362C134.436 49.362 134.778 49.266 135.03 49.074C135.282 48.882 135.408 48.63 135.408 48.318C135.408 48.126 135.354 47.97 135.246 47.85C135.15 47.718 135.012 47.61 134.832 47.526C134.664 47.43 134.478 47.352 134.274 47.292L132.672 46.842C131.844 46.602 131.214 46.236 130.782 45.744C130.362 45.252 130.152 44.67 130.152 43.998C130.152 43.398 130.302 42.876 130.602 42.432C130.914 41.976 131.34 41.622 131.88 41.37C132.432 41.118 133.062 40.992 133.77 40.992C134.694 40.992 135.51 41.214 136.218 41.658C136.926 42.102 137.43 42.726 137.73 43.53L135.93 44.376C135.762 43.932 135.48 43.578 135.084 43.314C134.688 43.05 134.244 42.918 133.752 42.918C133.356 42.918 133.044 43.008 132.816 43.188C132.588 43.368 132.474 43.602 132.474 43.89C132.474 44.07 132.522 44.226 132.618 44.358C132.714 44.49 132.846 44.598 133.014 44.682C133.194 44.766 133.398 44.844 133.626 44.916L135.192 45.384C135.996 45.624 136.614 45.984 137.046 46.464C137.49 46.944 137.712 47.532 137.712 48.228C137.712 48.816 137.556 49.338 137.244 49.794C136.932 50.238 136.5 50.586 135.948 50.838C135.396 51.09 134.748 51.216 134.004 51.216Z" fill="#2154DA"/>
<mask id="path-6-outside-1_93_2505" maskUnits="userSpaceOnUse" x="114.273" y="102.696" width="163" height="120" fill="black">
<rect fill="white" x="114.273" y="102.696" width="163" height="120"/>
<path d="M269.751 165.099C269.751 166.33 268.753 167.327 267.522 167.327H214.328V192.087C214.328 193.318 213.33 194.316 212.099 194.316H176.792V219.076C176.792 220.307 175.795 221.304 174.564 221.304H119.141C117.91 221.304 116.912 220.307 116.912 219.076C116.912 217.845 117.91 216.847 119.141 216.847H172.335V192.087C172.335 190.857 173.333 189.859 174.564 189.859H209.871V165.099C209.871 163.868 210.869 162.87 212.099 162.87H267.522C268.753 162.87 269.751 163.868 269.751 165.099ZM117.502 185.104C116.876 185.104 116.279 184.841 115.857 184.38C115.435 183.918 115.226 183.299 115.282 182.676C115.964 175.106 119.433 168.094 125.051 162.933C128.391 159.864 132.324 157.617 136.565 156.286C132.594 153.429 130.001 148.771 130.001 143.516C130.001 134.844 137.057 127.789 145.729 127.789C154.401 127.789 161.456 134.844 161.456 143.516C161.456 148.771 158.863 153.429 154.893 156.286C159.134 157.617 163.067 159.864 166.407 162.933C172.024 168.094 175.493 175.106 176.175 182.676C176.232 183.299 176.023 183.917 175.601 184.38C175.179 184.841 174.582 185.104 173.956 185.104H162.824L156.018 191.487L157.938 201.517C158.101 202.366 157.758 203.231 157.059 203.739C156.361 204.246 155.431 204.305 154.675 203.888L145.729 198.963L136.782 203.889C136.447 204.074 136.076 204.165 135.708 204.165C135.246 204.165 134.786 204.022 134.398 203.739C133.699 203.231 133.357 202.366 133.519 201.517L135.439 191.488L128.633 185.105L117.502 185.104ZM156.959 184.495L150.315 183.66C149.557 183.565 148.901 183.088 148.576 182.397L145.729 176.337L142.882 182.397C142.557 183.088 141.901 183.565 141.143 183.66L134.5 184.495L139.384 189.076C139.941 189.598 140.191 190.37 140.048 191.12L138.789 197.696L144.655 194.467C145.324 194.098 146.135 194.098 146.804 194.467L152.67 197.696L151.411 191.12C151.268 190.37 151.518 189.598 152.075 189.075L156.959 184.495ZM145.729 154.787C151.944 154.787 157 149.731 157 143.516C157 137.302 151.944 132.246 145.729 132.246C139.515 132.246 134.459 137.302 134.459 143.516C134.459 149.731 139.515 154.787 145.729 154.787ZM120.052 180.647H129.376L139.37 179.391L143.712 170.149C144.08 169.367 144.866 168.868 145.729 168.868C146.593 168.868 147.379 169.367 147.746 170.149L152.089 179.391L162.083 180.647H171.406C169.15 168.338 158.511 159.335 145.73 159.335C132.949 159.335 122.308 168.338 120.052 180.647ZM274.672 142.832C275.392 144.381 275.727 145.896 275.727 147.601V154.452C275.727 156.992 273.661 159.058 271.121 159.058H267.447C264.908 159.058 262.842 156.992 262.842 154.452V147.601C262.842 145.895 263.178 144.379 263.897 142.832L264.273 142.026C263.197 140.852 262.535 139.293 262.535 137.58C262.535 134.726 264.361 132.297 266.902 131.38V123.252L258.631 125.468V142.288C258.631 143.07 258.22 143.796 257.55 144.199C249.728 148.894 240.501 151.375 230.868 151.375C221.234 151.375 212.008 148.894 204.186 144.199C203.515 143.796 203.104 143.071 203.104 142.288V125.468L189.963 121.947C188.209 121.477 187.03 119.941 187.03 118.125C187.03 116.309 188.209 114.773 189.963 114.303L228.166 104.066C230.009 103.573 231.726 103.573 233.569 104.066L271.772 114.303C273.527 114.773 274.706 116.309 274.706 118.125C274.706 119.941 273.527 121.477 271.772 121.947L271.359 122.058V131.38C273.901 132.297 275.727 134.726 275.727 137.58C275.727 139.185 275.149 140.657 274.192 141.802L274.672 142.832ZM192.918 118.125L229.319 127.878C230.405 128.169 231.331 128.169 232.416 127.878L256.448 121.439L231.883 119.218C230.657 119.108 229.753 118.024 229.864 116.798C229.975 115.573 231.058 114.67 232.284 114.779L268.576 118.06L232.416 108.371C231.331 108.081 230.405 108.08 229.319 108.371L192.918 118.125ZM254.174 126.663L233.569 132.184C232.648 132.43 231.758 132.554 230.868 132.554C229.977 132.554 229.087 132.431 228.166 132.184L207.561 126.663V141.005C214.455 144.877 222.484 146.918 230.868 146.918C239.251 146.918 247.281 144.877 254.174 141.005V126.663ZM269.131 139.718C270.31 139.718 271.27 138.759 271.27 137.58C271.27 136.401 270.31 135.441 269.131 135.441C267.952 135.441 266.992 136.401 266.992 137.58C266.992 138.759 267.952 139.718 269.131 139.718ZM271.27 147.602C271.27 146.54 271.078 145.676 270.63 144.713L270.327 144.061C269.939 144.133 269.54 144.176 269.131 144.176C268.821 144.176 268.52 144.147 268.221 144.105L267.939 144.713C267.491 145.676 267.299 146.54 267.299 147.602V154.453C267.299 154.529 267.371 154.601 267.447 154.601H271.121C271.197 154.601 271.27 154.529 271.27 154.453V147.602Z"/>
</mask>
<path d="M269.751 165.099C269.751 166.33 268.753 167.327 267.522 167.327H214.328V192.087C214.328 193.318 213.33 194.316 212.099 194.316H176.792V219.076C176.792 220.307 175.795 221.304 174.564 221.304H119.141C117.91 221.304 116.912 220.307 116.912 219.076C116.912 217.845 117.91 216.847 119.141 216.847H172.335V192.087C172.335 190.857 173.333 189.859 174.564 189.859H209.871V165.099C209.871 163.868 210.869 162.87 212.099 162.87H267.522C268.753 162.87 269.751 163.868 269.751 165.099ZM117.502 185.104C116.876 185.104 116.279 184.841 115.857 184.38C115.435 183.918 115.226 183.299 115.282 182.676C115.964 175.106 119.433 168.094 125.051 162.933C128.391 159.864 132.324 157.617 136.565 156.286C132.594 153.429 130.001 148.771 130.001 143.516C130.001 134.844 137.057 127.789 145.729 127.789C154.401 127.789 161.456 134.844 161.456 143.516C161.456 148.771 158.863 153.429 154.893 156.286C159.134 157.617 163.067 159.864 166.407 162.933C172.024 168.094 175.493 175.106 176.175 182.676C176.232 183.299 176.023 183.917 175.601 184.38C175.179 184.841 174.582 185.104 173.956 185.104H162.824L156.018 191.487L157.938 201.517C158.101 202.366 157.758 203.231 157.059 203.739C156.361 204.246 155.431 204.305 154.675 203.888L145.729 198.963L136.782 203.889C136.447 204.074 136.076 204.165 135.708 204.165C135.246 204.165 134.786 204.022 134.398 203.739C133.699 203.231 133.357 202.366 133.519 201.517L135.439 191.488L128.633 185.105L117.502 185.104ZM156.959 184.495L150.315 183.66C149.557 183.565 148.901 183.088 148.576 182.397L145.729 176.337L142.882 182.397C142.557 183.088 141.901 183.565 141.143 183.66L134.5 184.495L139.384 189.076C139.941 189.598 140.191 190.37 140.048 191.12L138.789 197.696L144.655 194.467C145.324 194.098 146.135 194.098 146.804 194.467L152.67 197.696L151.411 191.12C151.268 190.37 151.518 189.598 152.075 189.075L156.959 184.495ZM145.729 154.787C151.944 154.787 157 149.731 157 143.516C157 137.302 151.944 132.246 145.729 132.246C139.515 132.246 134.459 137.302 134.459 143.516C134.459 149.731 139.515 154.787 145.729 154.787ZM120.052 180.647H129.376L139.37 179.391L143.712 170.149C144.08 169.367 144.866 168.868 145.729 168.868C146.593 168.868 147.379 169.367 147.746 170.149L152.089 179.391L162.083 180.647H171.406C169.15 168.338 158.511 159.335 145.73 159.335C132.949 159.335 122.308 168.338 120.052 180.647ZM274.672 142.832C275.392 144.381 275.727 145.896 275.727 147.601V154.452C275.727 156.992 273.661 159.058 271.121 159.058H267.447C264.908 159.058 262.842 156.992 262.842 154.452V147.601C262.842 145.895 263.178 144.379 263.897 142.832L264.273 142.026C263.197 140.852 262.535 139.293 262.535 137.58C262.535 134.726 264.361 132.297 266.902 131.38V123.252L258.631 125.468V142.288C258.631 143.07 258.22 143.796 257.55 144.199C249.728 148.894 240.501 151.375 230.868 151.375C221.234 151.375 212.008 148.894 204.186 144.199C203.515 143.796 203.104 143.071 203.104 142.288V125.468L189.963 121.947C188.209 121.477 187.03 119.941 187.03 118.125C187.03 116.309 188.209 114.773 189.963 114.303L228.166 104.066C230.009 103.573 231.726 103.573 233.569 104.066L271.772 114.303C273.527 114.773 274.706 116.309 274.706 118.125C274.706 119.941 273.527 121.477 271.772 121.947L271.359 122.058V131.38C273.901 132.297 275.727 134.726 275.727 137.58C275.727 139.185 275.149 140.657 274.192 141.802L274.672 142.832ZM192.918 118.125L229.319 127.878C230.405 128.169 231.331 128.169 232.416 127.878L256.448 121.439L231.883 119.218C230.657 119.108 229.753 118.024 229.864 116.798C229.975 115.573 231.058 114.67 232.284 114.779L268.576 118.06L232.416 108.371C231.331 108.081 230.405 108.08 229.319 108.371L192.918 118.125ZM254.174 126.663L233.569 132.184C232.648 132.43 231.758 132.554 230.868 132.554C229.977 132.554 229.087 132.431 228.166 132.184L207.561 126.663V141.005C214.455 144.877 222.484 146.918 230.868 146.918C239.251 146.918 247.281 144.877 254.174 141.005V126.663ZM269.131 139.718C270.31 139.718 271.27 138.759 271.27 137.58C271.27 136.401 270.31 135.441 269.131 135.441C267.952 135.441 266.992 136.401 266.992 137.58C266.992 138.759 267.952 139.718 269.131 139.718ZM271.27 147.602C271.27 146.54 271.078 145.676 270.63 144.713L270.327 144.061C269.939 144.133 269.54 144.176 269.131 144.176C268.821 144.176 268.52 144.147 268.221 144.105L267.939 144.713C267.491 145.676 267.299 146.54 267.299 147.602V154.453C267.299 154.529 267.371 154.601 267.447 154.601H271.121C271.197 154.601 271.27 154.529 271.27 154.453V147.602Z" fill="#2154DA"/>
<path d="M269.751 165.099C269.751 166.33 268.753 167.327 267.522 167.327H214.328V192.087C214.328 193.318 213.33 194.316 212.099 194.316H176.792V219.076C176.792 220.307 175.795 221.304 174.564 221.304H119.141C117.91 221.304 116.912 220.307 116.912 219.076C116.912 217.845 117.91 216.847 119.141 216.847H172.335V192.087C172.335 190.857 173.333 189.859 174.564 189.859H209.871V165.099C209.871 163.868 210.869 162.87 212.099 162.87H267.522C268.753 162.87 269.751 163.868 269.751 165.099ZM117.502 185.104C116.876 185.104 116.279 184.841 115.857 184.38C115.435 183.918 115.226 183.299 115.282 182.676C115.964 175.106 119.433 168.094 125.051 162.933C128.391 159.864 132.324 157.617 136.565 156.286C132.594 153.429 130.001 148.771 130.001 143.516C130.001 134.844 137.057 127.789 145.729 127.789C154.401 127.789 161.456 134.844 161.456 143.516C161.456 148.771 158.863 153.429 154.893 156.286C159.134 157.617 163.067 159.864 166.407 162.933C172.024 168.094 175.493 175.106 176.175 182.676C176.232 183.299 176.023 183.917 175.601 184.38C175.179 184.841 174.582 185.104 173.956 185.104H162.824L156.018 191.487L157.938 201.517C158.101 202.366 157.758 203.231 157.059 203.739C156.361 204.246 155.431 204.305 154.675 203.888L145.729 198.963L136.782 203.889C136.447 204.074 136.076 204.165 135.708 204.165C135.246 204.165 134.786 204.022 134.398 203.739C133.699 203.231 133.357 202.366 133.519 201.517L135.439 191.488L128.633 185.105L117.502 185.104ZM156.959 184.495L150.315 183.66C149.557 183.565 148.901 183.088 148.576 182.397L145.729 176.337L142.882 182.397C142.557 183.088 141.901 183.565 141.143 183.66L134.5 184.495L139.384 189.076C139.941 189.598 140.191 190.37 140.048 191.12L138.789 197.696L144.655 194.467C145.324 194.098 146.135 194.098 146.804 194.467L152.67 197.696L151.411 191.12C151.268 190.37 151.518 189.598 152.075 189.075L156.959 184.495ZM145.729 154.787C151.944 154.787 157 149.731 157 143.516C157 137.302 151.944 132.246 145.729 132.246C139.515 132.246 134.459 137.302 134.459 143.516C134.459 149.731 139.515 154.787 145.729 154.787ZM120.052 180.647H129.376L139.37 179.391L143.712 170.149C144.08 169.367 144.866 168.868 145.729 168.868C146.593 168.868 147.379 169.367 147.746 170.149L152.089 179.391L162.083 180.647H171.406C169.15 168.338 158.511 159.335 145.73 159.335C132.949 159.335 122.308 168.338 120.052 180.647ZM274.672 142.832C275.392 144.381 275.727 145.896 275.727 147.601V154.452C275.727 156.992 273.661 159.058 271.121 159.058H267.447C264.908 159.058 262.842 156.992 262.842 154.452V147.601C262.842 145.895 263.178 144.379 263.897 142.832L264.273 142.026C263.197 140.852 262.535 139.293 262.535 137.58C262.535 134.726 264.361 132.297 266.902 131.38V123.252L258.631 125.468V142.288C258.631 143.07 258.22 143.796 257.55 144.199C249.728 148.894 240.501 151.375 230.868 151.375C221.234 151.375 212.008 148.894 204.186 144.199C203.515 143.796 203.104 143.071 203.104 142.288V125.468L189.963 121.947C188.209 121.477 187.03 119.941 187.03 118.125C187.03 116.309 188.209 114.773 189.963 114.303L228.166 104.066C230.009 103.573 231.726 103.573 233.569 104.066L271.772 114.303C273.527 114.773 274.706 116.309 274.706 118.125C274.706 119.941 273.527 121.477 271.772 121.947L271.359 122.058V131.38C273.901 132.297 275.727 134.726 275.727 137.58C275.727 139.185 275.149 140.657 274.192 141.802L274.672 142.832ZM192.918 118.125L229.319 127.878C230.405 128.169 231.331 128.169 232.416 127.878L256.448 121.439L231.883 119.218C230.657 119.108 229.753 118.024 229.864 116.798C229.975 115.573 231.058 114.67 232.284 114.779L268.576 118.06L232.416 108.371C231.331 108.081 230.405 108.08 229.319 108.371L192.918 118.125ZM254.174 126.663L233.569 132.184C232.648 132.43 231.758 132.554 230.868 132.554C229.977 132.554 229.087 132.431 228.166 132.184L207.561 126.663V141.005C214.455 144.877 222.484 146.918 230.868 146.918C239.251 146.918 247.281 144.877 254.174 141.005V126.663ZM269.131 139.718C270.31 139.718 271.27 138.759 271.27 137.58C271.27 136.401 270.31 135.441 269.131 135.441C267.952 135.441 266.992 136.401 266.992 137.58C266.992 138.759 267.952 139.718 269.131 139.718ZM271.27 147.602C271.27 146.54 271.078 145.676 270.63 144.713L270.327 144.061C269.939 144.133 269.54 144.176 269.131 144.176C268.821 144.176 268.52 144.147 268.221 144.105L267.939 144.713C267.491 145.676 267.299 146.54 267.299 147.602V154.453C267.299 154.529 267.371 154.601 267.447 154.601H271.121C271.197 154.601 271.27 154.529 271.27 154.453V147.602Z" stroke="#2154DA" stroke-width="2" mask="url(#path-6-outside-1_93_2505)"/>
<rect x="244.5" y="28.5" width="119" height="31" rx="3.5" stroke="#09922E"/>
<path d="M258.041 49.132C257.49 49.132 256.991 49.006 256.543 48.754C256.104 48.502 255.754 48.152 255.493 47.704C255.241 47.256 255.115 46.752 255.115 46.192C255.115 45.66 255.241 45.184 255.493 44.764C255.745 44.3347 256.09 43.994 256.529 43.742C256.967 43.49 257.471 43.364 258.041 43.364C258.582 43.364 259.063 43.49 259.483 43.742C259.903 43.994 260.239 44.3347 260.491 44.764C260.743 45.1933 260.873 45.6693 260.883 46.192C260.883 46.752 260.757 47.256 260.505 47.704C260.253 48.152 259.912 48.502 259.483 48.754C259.063 49.006 258.582 49.132 258.041 49.132Z" fill="#09922E"/>
<path d="M267.465 51V39.08H269.641V49.08H274.745V51H267.465ZM275.976 51V42.296H278.072V51H275.976ZM275.976 41.32V39.08H278.072V41.32H275.976ZM282.631 51L279.207 42.296H281.495L283.975 49.144H283.127L285.623 42.296H287.911L284.487 51H282.631ZM293.042 51.192C292.146 51.192 291.362 50.9893 290.69 50.584C290.018 50.1787 289.495 49.6293 289.122 48.936C288.748 48.2427 288.562 47.4747 288.562 46.632C288.562 45.7573 288.748 44.984 289.122 44.312C289.506 43.6293 290.023 43.0907 290.674 42.696C291.335 42.3013 292.071 42.104 292.882 42.104C293.564 42.104 294.162 42.216 294.674 42.44C295.196 42.664 295.639 42.9733 296.002 43.368C296.364 43.7627 296.642 44.216 296.834 44.728C297.026 45.2293 297.122 45.7733 297.122 46.36C297.122 46.5093 297.111 46.664 297.09 46.824C297.079 46.984 297.052 47.1227 297.01 47.24H290.289V45.64H295.826L294.834 46.392C294.93 45.9013 294.903 45.464 294.754 45.08C294.615 44.696 294.38 44.392 294.05 44.168C293.73 43.944 293.34 43.832 292.882 43.832C292.444 43.832 292.055 43.944 291.714 44.168C291.372 44.3813 291.111 44.7013 290.93 45.128C290.759 45.544 290.695 46.0507 290.738 46.648C290.695 47.1813 290.764 47.656 290.946 48.072C291.138 48.4773 291.415 48.792 291.778 49.016C292.151 49.24 292.578 49.352 293.058 49.352C293.538 49.352 293.943 49.2507 294.274 49.048C294.615 48.8453 294.882 48.5733 295.074 48.232L296.77 49.064C296.599 49.48 296.332 49.848 295.97 50.168C295.607 50.488 295.175 50.7387 294.674 50.92C294.183 51.1013 293.639 51.192 293.042 51.192ZM307.33 51.192C306.477 51.192 305.687 51.0373 304.962 50.728C304.247 50.4187 303.618 49.9867 303.074 49.432C302.541 48.8773 302.125 48.2267 301.826 47.48C301.527 46.7333 301.378 45.9173 301.378 45.032C301.378 44.1467 301.522 43.3307 301.81 42.584C302.109 41.8267 302.525 41.176 303.058 40.632C303.602 40.0773 304.237 39.6507 304.962 39.352C305.687 39.0427 306.477 38.888 307.33 38.888C308.183 38.888 308.946 39.032 309.618 39.32C310.301 39.608 310.877 39.992 311.346 40.472C311.815 40.9413 312.151 41.4587 312.354 42.024L310.402 42.936C310.178 42.3387 309.799 41.848 309.266 41.464C308.733 41.0693 308.087 40.872 307.33 40.872C306.583 40.872 305.922 41.048 305.346 41.4C304.781 41.752 304.338 42.2373 304.018 42.856C303.709 43.4747 303.554 44.2 303.554 45.032C303.554 45.864 303.709 46.5947 304.018 47.224C304.338 47.8427 304.781 48.328 305.346 48.68C305.922 49.032 306.583 49.208 307.33 49.208C308.087 49.208 308.733 49.016 309.266 48.632C309.799 48.2373 310.178 47.7413 310.402 47.144L312.354 48.056C312.151 48.6213 311.815 49.144 311.346 49.624C310.877 50.0933 310.301 50.472 309.618 50.76C308.946 51.048 308.183 51.192 307.33 51.192ZM318.045 51.192C317.191 51.192 316.413 50.9947 315.709 50.6C315.015 50.2053 314.461 49.6667 314.045 48.984C313.639 48.3013 313.437 47.5227 313.437 46.648C313.437 45.7733 313.639 44.9947 314.045 44.312C314.461 43.6293 315.015 43.0907 315.709 42.696C316.402 42.3013 317.181 42.104 318.045 42.104C318.898 42.104 319.671 42.3013 320.365 42.696C321.058 43.0907 321.607 43.6293 322.013 44.312C322.429 44.984 322.637 45.7627 322.637 46.648C322.637 47.5227 322.429 48.3013 322.013 48.984C321.597 49.6667 321.042 50.2053 320.349 50.6C319.655 50.9947 318.887 51.192 318.045 51.192ZM318.045 49.272C318.514 49.272 318.925 49.16 319.277 48.936C319.639 48.712 319.922 48.4027 320.125 48.008C320.338 47.6027 320.445 47.1493 320.445 46.648C320.445 46.136 320.338 45.688 320.125 45.304C319.922 44.9093 319.639 44.6 319.277 44.376C318.925 44.1413 318.514 44.024 318.045 44.024C317.565 44.024 317.143 44.1413 316.781 44.376C316.418 44.6 316.13 44.9093 315.917 45.304C315.714 45.688 315.613 46.136 315.613 46.648C315.613 47.1493 315.714 47.6027 315.917 48.008C316.13 48.4027 316.418 48.712 316.781 48.936C317.143 49.16 317.565 49.272 318.045 49.272ZM324.226 51V38.888H326.322V44.008L326.034 43.704C326.237 43.1813 326.567 42.7867 327.026 42.52C327.495 42.2427 328.039 42.104 328.658 42.104C329.298 42.104 329.863 42.2427 330.354 42.52C330.855 42.7973 331.245 43.1867 331.522 43.688C331.799 44.1787 331.938 44.7493 331.938 45.4V51H329.842V45.896C329.842 45.512 329.767 45.1813 329.618 44.904C329.469 44.6267 329.261 44.4133 328.994 44.264C328.738 44.104 328.434 44.024 328.082 44.024C327.741 44.024 327.437 44.104 327.17 44.264C326.903 44.4133 326.695 44.6267 326.546 44.904C326.397 45.1813 326.322 45.512 326.322 45.896V51H324.226ZM337.966 51.192C337.113 51.192 336.334 50.9947 335.63 50.6C334.937 50.2053 334.382 49.6667 333.966 48.984C333.561 48.3013 333.358 47.5227 333.358 46.648C333.358 45.7733 333.561 44.9947 333.966 44.312C334.382 43.6293 334.937 43.0907 335.63 42.696C336.324 42.3013 337.102 42.104 337.966 42.104C338.82 42.104 339.593 42.3013 340.286 42.696C340.98 43.0907 341.529 43.6293 341.934 44.312C342.35 44.984 342.558 45.7627 342.558 46.648C342.558 47.5227 342.35 48.3013 341.934 48.984C341.518 49.6667 340.964 50.2053 340.27 50.6C339.577 50.9947 338.809 51.192 337.966 51.192ZM337.966 49.272C338.436 49.272 338.846 49.16 339.198 48.936C339.561 48.712 339.844 48.4027 340.046 48.008C340.26 47.6027 340.366 47.1493 340.366 46.648C340.366 46.136 340.26 45.688 340.046 45.304C339.844 44.9093 339.561 44.6 339.198 44.376C338.846 44.1413 338.436 44.024 337.966 44.024C337.486 44.024 337.065 44.1413 336.702 44.376C336.34 44.6 336.052 44.9093 335.838 45.304C335.636 45.688 335.534 46.136 335.534 46.648C335.534 47.1493 335.636 47.6027 335.838 48.008C336.052 48.4027 336.34 48.712 336.702 48.936C337.065 49.16 337.486 49.272 337.966 49.272ZM344.148 51V42.296H346.116V44.232L345.956 43.944C346.159 43.2933 346.473 42.84 346.9 42.584C347.337 42.328 347.86 42.2 348.468 42.2H348.98V44.056H348.228C347.631 44.056 347.151 44.2427 346.788 44.616C346.425 44.9787 346.244 45.4907 346.244 46.152V51H344.148ZM354.335 51.096C353.353 51.096 352.591 50.8293 352.047 50.296C351.513 49.752 351.247 48.9893 351.247 48.008V44.168H349.743V42.296H349.903C350.329 42.296 350.66 42.184 350.895 41.96C351.129 41.736 351.247 41.4107 351.247 40.984V40.312H353.343V42.296H355.343V44.168H353.343V47.896C353.343 48.184 353.391 48.4293 353.487 48.632C353.593 48.8347 353.753 48.9893 353.967 49.096C354.191 49.2027 354.473 49.256 354.815 49.256C354.889 49.256 354.975 49.2507 355.071 49.24C355.177 49.2293 355.279 49.2187 355.375 49.208V51C355.225 51.0213 355.055 51.0427 354.863 51.064C354.671 51.0853 354.495 51.096 354.335 51.096Z" fill="#09922E"/>
</g>
<defs>
<clipPath id="clip0_93_2505">
<rect width="391" height="252" rx="16" fill="white"/>
</clipPath>
</defs>
</svg>
