<svg width="22" height="20" viewBox="0 0 22 20" fill="none" xmlns="http://www.w3.org/2000/svg">
<g clip-path="url(#clip0_1_603)">
<path fill-rule="evenodd" clip-rule="evenodd" d="M8.09399 2.49707H14.7537C17.0525 2.49707 18.9161 4.36057 18.9161 6.65931V13.3189C18.9161 15.6176 17.0525 17.4811 14.7537 17.4811H8.09399C5.79519 17.4811 3.93164 15.6176 3.93164 13.3189V6.65931C3.93164 4.36057 5.79519 2.49707 8.09399 2.49707ZM15.3819 6.86612C15.8416 6.86612 16.2143 6.49342 16.2143 6.03367C16.2143 5.57393 15.8416 5.20122 15.3819 5.20122C14.922 5.20122 14.5493 5.57393 14.5493 6.03367C14.5493 6.49342 14.922 6.86612 15.3819 6.86612ZM11.4248 6.2431C9.35581 6.2431 7.67861 7.92024 7.67861 9.9891C7.67861 12.058 9.35581 13.7351 11.4248 13.7351C13.4936 13.7351 15.1709 12.058 15.1709 9.9891C15.1731 8.99493 14.7791 8.04082 14.0761 7.33783C13.373 6.63484 12.4189 6.24088 11.4248 6.2431ZM9.13534 9.9878C9.13534 11.2522 10.1603 12.2771 11.4247 12.2771C12.689 12.2771 13.7139 11.2522 13.7139 9.9878C13.7139 8.7235 12.689 7.69857 11.4247 7.69857C10.1603 7.69857 9.13534 8.7235 9.13534 9.9878Z" fill="#B0B0B0"/>
</g>
<defs>
<clipPath id="clip0_1_603">
<rect width="20.9989" height="19.9787" fill="white" transform="translate(0.5)"/>
</clipPath>
</defs>
</svg>
