<svg width="391" height="250" viewBox="0 0 391 250" fill="none" xmlns="http://www.w3.org/2000/svg">
<g clip-path="url(#clip0_93_1758)">
<rect width="391" height="250" rx="16" fill="white"/>
<rect x="-1" width="394" height="252" fill="#FFF0ED"/>
<rect x="24" y="27" width="123" height="35" rx="4" fill="#F99A85" fill-opacity="0.35"/>
<path d="M51 36.5H49V35.5C49 35.2348 48.8946 34.9804 48.7071 34.7929C48.5196 34.6054 48.2652 34.5 48 34.5C47.7348 34.5 47.4804 34.6054 47.2929 34.7929C47.1054 34.9804 47 35.2348 47 35.5V36.5H41V35.5C41 35.2348 40.8946 34.9804 40.7071 34.7929C40.5196 34.6054 40.2652 34.5 40 34.5C39.7348 34.5 39.4804 34.6054 39.2929 34.7929C39.1054 34.9804 39 35.2348 39 35.5V36.5H37C36.2044 36.5 35.4413 36.8161 34.8787 37.3787C34.3161 37.9413 34 38.7044 34 39.5V51.5C34 52.2956 34.3161 53.0587 34.8787 53.6213C35.4413 54.1839 36.2044 54.5 37 54.5H51C51.7956 54.5 52.5587 54.1839 53.1213 53.6213C53.6839 53.0587 54 52.2956 54 51.5V39.5C54 38.7044 53.6839 37.9413 53.1213 37.3787C52.5587 36.8161 51.7956 36.5 51 36.5ZM52 51.5C52 51.7652 51.8946 52.0196 51.7071 52.2071C51.5196 52.3946 51.2652 52.5 51 52.5H37C36.7348 52.5 36.4804 52.3946 36.2929 52.2071C36.1054 52.0196 36 51.7652 36 51.5V44.5H52V51.5ZM52 42.5H36V39.5C36 39.2348 36.1054 38.9804 36.2929 38.7929C36.4804 38.6054 36.7348 38.5 37 38.5H39V39.5C39 39.7652 39.1054 40.0196 39.2929 40.2071C39.4804 40.3946 39.7348 40.5 40 40.5C40.2652 40.5 40.5196 40.3946 40.7071 40.2071C40.8946 40.0196 41 39.7652 41 39.5V38.5H47V39.5C47 39.7652 47.1054 40.0196 47.2929 40.2071C47.4804 40.3946 47.7348 40.5 48 40.5C48.2652 40.5 48.5196 40.3946 48.7071 40.2071C48.8946 40.0196 49 39.7652 49 39.5V38.5H51C51.2652 38.5 51.5196 38.6054 51.7071 38.7929C51.8946 38.9804 52 39.2348 52 39.5V42.5Z" fill="#F2542D"/>
<path d="M70.804 52V49.048H64.648V46.996L70.66 38.59H73.216V46.996H75.178V49.048H73.216V52H70.804ZM66.448 47.878L66.016 46.996H70.804V40.516L71.434 40.714L66.448 47.878ZM82.7746 52L79.1746 38.59H81.8026L84.6286 50.02H83.9446L86.8966 38.59H89.4346L92.3686 50.02H91.6846L94.5106 38.59H97.1386L93.5386 52H90.7306L87.7606 40.876H88.5526L85.5826 52H82.7746ZM102.49 52.216C101.482 52.216 100.6 51.988 99.844 51.532C99.088 51.076 98.5 50.458 98.08 49.678C97.66 48.898 97.45 48.034 97.45 47.086C97.45 46.102 97.66 45.232 98.08 44.476C98.512 43.708 99.094 43.102 99.826 42.658C100.57 42.214 101.398 41.992 102.31 41.992C103.078 41.992 103.75 42.118 104.326 42.37C104.914 42.622 105.412 42.97 105.82 43.414C106.228 43.858 106.54 44.368 106.756 44.944C106.972 45.508 107.08 46.12 107.08 46.78C107.08 46.948 107.068 47.122 107.044 47.302C107.032 47.482 107.002 47.638 106.954 47.77H99.394V45.97H105.622L104.506 46.816C104.614 46.264 104.584 45.772 104.416 45.34C104.26 44.908 103.996 44.566 103.624 44.314C103.264 44.062 102.826 43.936 102.31 43.936C101.818 43.936 101.38 44.062 100.996 44.314C100.612 44.554 100.318 44.914 100.114 45.394C99.922 45.862 99.85 46.432 99.898 47.104C99.85 47.704 99.928 48.238 100.132 48.706C100.348 49.162 100.66 49.516 101.068 49.768C101.488 50.02 101.968 50.146 102.508 50.146C103.048 50.146 103.504 50.032 103.876 49.804C104.26 49.576 104.56 49.27 104.776 48.886L106.684 49.822C106.492 50.29 106.192 50.704 105.784 51.064C105.376 51.424 104.89 51.706 104.326 51.91C103.774 52.114 103.162 52.216 102.49 52.216ZM113.512 52.216C112.504 52.216 111.622 51.988 110.866 51.532C110.11 51.076 109.522 50.458 109.102 49.678C108.682 48.898 108.472 48.034 108.472 47.086C108.472 46.102 108.682 45.232 109.102 44.476C109.534 43.708 110.116 43.102 110.848 42.658C111.592 42.214 112.42 41.992 113.332 41.992C114.1 41.992 114.772 42.118 115.348 42.37C115.936 42.622 116.434 42.97 116.842 43.414C117.25 43.858 117.562 44.368 117.778 44.944C117.994 45.508 118.102 46.12 118.102 46.78C118.102 46.948 118.09 47.122 118.066 47.302C118.054 47.482 118.024 47.638 117.976 47.77H110.416V45.97H116.644L115.528 46.816C115.636 46.264 115.606 45.772 115.438 45.34C115.282 44.908 115.018 44.566 114.646 44.314C114.286 44.062 113.848 43.936 113.332 43.936C112.84 43.936 112.402 44.062 112.018 44.314C111.634 44.554 111.34 44.914 111.136 45.394C110.944 45.862 110.872 46.432 110.92 47.104C110.872 47.704 110.95 48.238 111.154 48.706C111.37 49.162 111.682 49.516 112.09 49.768C112.51 50.02 112.99 50.146 113.53 50.146C114.07 50.146 114.526 50.032 114.898 49.804C115.282 49.576 115.582 49.27 115.798 48.886L117.706 49.822C117.514 50.29 117.214 50.704 116.806 51.064C116.398 51.424 115.912 51.706 115.348 51.91C114.796 52.114 114.184 52.216 113.512 52.216ZM119.889 52V38.374H122.247V47.302L121.347 47.032L125.955 42.208H128.889L125.271 46.15L128.961 52H126.261L123.057 46.924L124.461 46.636L121.509 49.804L122.247 48.364V52H119.889ZM134.004 52.216C132.96 52.216 132.048 51.97 131.268 51.478C130.5 50.974 129.972 50.296 129.684 49.444L131.448 48.598C131.7 49.15 132.048 49.582 132.492 49.894C132.948 50.206 133.452 50.362 134.004 50.362C134.436 50.362 134.778 50.266 135.03 50.074C135.282 49.882 135.408 49.63 135.408 49.318C135.408 49.126 135.354 48.97 135.246 48.85C135.15 48.718 135.012 48.61 134.832 48.526C134.664 48.43 134.478 48.352 134.274 48.292L132.672 47.842C131.844 47.602 131.214 47.236 130.782 46.744C130.362 46.252 130.152 45.67 130.152 44.998C130.152 44.398 130.302 43.876 130.602 43.432C130.914 42.976 131.34 42.622 131.88 42.37C132.432 42.118 133.062 41.992 133.77 41.992C134.694 41.992 135.51 42.214 136.218 42.658C136.926 43.102 137.43 43.726 137.73 44.53L135.93 45.376C135.762 44.932 135.48 44.578 135.084 44.314C134.688 44.05 134.244 43.918 133.752 43.918C133.356 43.918 133.044 44.008 132.816 44.188C132.588 44.368 132.474 44.602 132.474 44.89C132.474 45.07 132.522 45.226 132.618 45.358C132.714 45.49 132.846 45.598 133.014 45.682C133.194 45.766 133.398 45.844 133.626 45.916L135.192 46.384C135.996 46.624 136.614 46.984 137.046 47.464C137.49 47.944 137.712 48.532 137.712 49.228C137.712 49.816 137.556 50.338 137.244 50.794C136.932 51.238 136.5 51.586 135.948 51.838C135.396 52.09 134.748 52.216 134.004 52.216Z" fill="#F2542D"/>
<path d="M256.581 197.659L244.472 185.55C242.58 183.658 239.513 183.658 237.622 185.55C235.73 187.441 235.73 190.508 237.622 192.4L241.462 196.24H197.589C196.127 192.119 192.856 188.848 188.734 187.386V141.151C191.186 142.066 194.198 142.717 197.802 142.717C204.559 142.717 209.88 141.172 215.026 139.678C219.511 138.376 223.747 137.146 228.614 137.146C235.631 137.146 239.784 138.19 239.807 138.196C241.636 138.68 243.581 138.055 244.785 136.594C245.989 135.133 246.231 133.105 245.406 131.401L237.996 116.11L245.532 102.429C246.256 101.113 246.33 99.5362 245.73 98.1591C245.131 96.7818 243.927 95.7608 242.47 95.3943C242.25 95.3389 236.978 94.0371 228.614 94.0371C222.37 94.0371 217.264 95.5195 212.326 96.9528C207.623 98.318 203.181 99.6074 197.802 99.6074C191.264 99.6074 187.987 96.1945 187.632 95.8027C186.374 94.1652 184.261 93.5673 182.299 94.2258C180.326 94.8882 179.047 96.7997 179.047 98.8809V187.386C174.925 188.848 171.654 192.118 170.192 196.24H138.844C136.169 196.24 134 198.409 134 201.084C134 203.759 136.169 205.928 138.844 205.928H170.192C172.192 211.565 177.576 215.615 183.891 215.615C190.205 215.615 195.589 211.565 197.589 205.928H241.462L237.622 209.768C235.73 211.66 235.73 214.727 237.622 216.618C238.568 217.564 239.807 218.037 241.047 218.037C242.287 218.037 243.526 217.564 244.472 216.618L256.581 204.509C258.473 202.617 258.473 199.55 256.581 197.659ZM188.734 107.687C191.297 108.644 194.337 109.295 197.802 109.295C204.559 109.295 209.88 107.75 215.026 106.256C219.511 104.954 223.747 103.725 228.614 103.725C230.494 103.725 232.185 103.799 233.656 103.91L228.301 113.63C227.543 115.007 227.5 116.666 228.185 118.08L232.784 127.57C231.506 127.501 230.113 127.459 228.614 127.459C222.37 127.459 217.264 128.942 212.326 130.375C207.623 131.74 203.181 133.03 197.802 133.03C193.003 133.03 190.068 131.247 188.734 130.17V107.687ZM183.891 205.928C181.22 205.928 179.047 203.755 179.047 201.084C179.047 198.413 181.22 196.24 183.891 196.24C186.561 196.24 188.734 198.413 188.734 201.084C188.734 203.755 186.561 205.928 183.891 205.928Z" fill="#EE4924"/>
<rect x="244.5" y="28.5" width="119" height="31" rx="3.5" stroke="#09922E"/>
<path d="M258.041 49.132C257.49 49.132 256.991 49.006 256.543 48.754C256.104 48.502 255.754 48.152 255.493 47.704C255.241 47.256 255.115 46.752 255.115 46.192C255.115 45.66 255.241 45.184 255.493 44.764C255.745 44.3347 256.09 43.994 256.529 43.742C256.967 43.49 257.471 43.364 258.041 43.364C258.582 43.364 259.063 43.49 259.483 43.742C259.903 43.994 260.239 44.3347 260.491 44.764C260.743 45.1933 260.873 45.6693 260.883 46.192C260.883 46.752 260.757 47.256 260.505 47.704C260.253 48.152 259.912 48.502 259.483 48.754C259.063 49.006 258.582 49.132 258.041 49.132Z" fill="#09922E"/>
<path d="M267.465 51V39.08H269.641V49.08H274.745V51H267.465ZM275.976 51V42.296H278.072V51H275.976ZM275.976 41.32V39.08H278.072V41.32H275.976ZM282.631 51L279.207 42.296H281.495L283.975 49.144H283.127L285.623 42.296H287.911L284.487 51H282.631ZM293.042 51.192C292.146 51.192 291.362 50.9893 290.69 50.584C290.018 50.1787 289.495 49.6293 289.122 48.936C288.748 48.2427 288.562 47.4747 288.562 46.632C288.562 45.7573 288.748 44.984 289.122 44.312C289.506 43.6293 290.023 43.0907 290.674 42.696C291.335 42.3013 292.071 42.104 292.882 42.104C293.564 42.104 294.162 42.216 294.674 42.44C295.196 42.664 295.639 42.9733 296.002 43.368C296.364 43.7627 296.642 44.216 296.834 44.728C297.026 45.2293 297.122 45.7733 297.122 46.36C297.122 46.5093 297.111 46.664 297.09 46.824C297.079 46.984 297.052 47.1227 297.01 47.24H290.289V45.64H295.826L294.834 46.392C294.93 45.9013 294.903 45.464 294.754 45.08C294.615 44.696 294.38 44.392 294.05 44.168C293.73 43.944 293.34 43.832 292.882 43.832C292.444 43.832 292.055 43.944 291.714 44.168C291.372 44.3813 291.111 44.7013 290.93 45.128C290.759 45.544 290.695 46.0507 290.738 46.648C290.695 47.1813 290.764 47.656 290.946 48.072C291.138 48.4773 291.415 48.792 291.778 49.016C292.151 49.24 292.578 49.352 293.058 49.352C293.538 49.352 293.943 49.2507 294.274 49.048C294.615 48.8453 294.882 48.5733 295.074 48.232L296.77 49.064C296.599 49.48 296.332 49.848 295.97 50.168C295.607 50.488 295.175 50.7387 294.674 50.92C294.183 51.1013 293.639 51.192 293.042 51.192ZM307.33 51.192C306.477 51.192 305.687 51.0373 304.962 50.728C304.247 50.4187 303.618 49.9867 303.074 49.432C302.541 48.8773 302.125 48.2267 301.826 47.48C301.527 46.7333 301.378 45.9173 301.378 45.032C301.378 44.1467 301.522 43.3307 301.81 42.584C302.109 41.8267 302.525 41.176 303.058 40.632C303.602 40.0773 304.237 39.6507 304.962 39.352C305.687 39.0427 306.477 38.888 307.33 38.888C308.183 38.888 308.946 39.032 309.618 39.32C310.301 39.608 310.877 39.992 311.346 40.472C311.815 40.9413 312.151 41.4587 312.354 42.024L310.402 42.936C310.178 42.3387 309.799 41.848 309.266 41.464C308.733 41.0693 308.087 40.872 307.33 40.872C306.583 40.872 305.922 41.048 305.346 41.4C304.781 41.752 304.338 42.2373 304.018 42.856C303.709 43.4747 303.554 44.2 303.554 45.032C303.554 45.864 303.709 46.5947 304.018 47.224C304.338 47.8427 304.781 48.328 305.346 48.68C305.922 49.032 306.583 49.208 307.33 49.208C308.087 49.208 308.733 49.016 309.266 48.632C309.799 48.2373 310.178 47.7413 310.402 47.144L312.354 48.056C312.151 48.6213 311.815 49.144 311.346 49.624C310.877 50.0933 310.301 50.472 309.618 50.76C308.946 51.048 308.183 51.192 307.33 51.192ZM318.045 51.192C317.191 51.192 316.413 50.9947 315.709 50.6C315.015 50.2053 314.461 49.6667 314.045 48.984C313.639 48.3013 313.437 47.5227 313.437 46.648C313.437 45.7733 313.639 44.9947 314.045 44.312C314.461 43.6293 315.015 43.0907 315.709 42.696C316.402 42.3013 317.181 42.104 318.045 42.104C318.898 42.104 319.671 42.3013 320.365 42.696C321.058 43.0907 321.607 43.6293 322.013 44.312C322.429 44.984 322.637 45.7627 322.637 46.648C322.637 47.5227 322.429 48.3013 322.013 48.984C321.597 49.6667 321.042 50.2053 320.349 50.6C319.655 50.9947 318.887 51.192 318.045 51.192ZM318.045 49.272C318.514 49.272 318.925 49.16 319.277 48.936C319.639 48.712 319.922 48.4027 320.125 48.008C320.338 47.6027 320.445 47.1493 320.445 46.648C320.445 46.136 320.338 45.688 320.125 45.304C319.922 44.9093 319.639 44.6 319.277 44.376C318.925 44.1413 318.514 44.024 318.045 44.024C317.565 44.024 317.143 44.1413 316.781 44.376C316.418 44.6 316.13 44.9093 315.917 45.304C315.714 45.688 315.613 46.136 315.613 46.648C315.613 47.1493 315.714 47.6027 315.917 48.008C316.13 48.4027 316.418 48.712 316.781 48.936C317.143 49.16 317.565 49.272 318.045 49.272ZM324.226 51V38.888H326.322V44.008L326.034 43.704C326.237 43.1813 326.567 42.7867 327.026 42.52C327.495 42.2427 328.039 42.104 328.658 42.104C329.298 42.104 329.863 42.2427 330.354 42.52C330.855 42.7973 331.245 43.1867 331.522 43.688C331.799 44.1787 331.938 44.7493 331.938 45.4V51H329.842V45.896C329.842 45.512 329.767 45.1813 329.618 44.904C329.469 44.6267 329.261 44.4133 328.994 44.264C328.738 44.104 328.434 44.024 328.082 44.024C327.741 44.024 327.437 44.104 327.17 44.264C326.903 44.4133 326.695 44.6267 326.546 44.904C326.397 45.1813 326.322 45.512 326.322 45.896V51H324.226ZM337.966 51.192C337.113 51.192 336.334 50.9947 335.63 50.6C334.937 50.2053 334.382 49.6667 333.966 48.984C333.561 48.3013 333.358 47.5227 333.358 46.648C333.358 45.7733 333.561 44.9947 333.966 44.312C334.382 43.6293 334.937 43.0907 335.63 42.696C336.324 42.3013 337.102 42.104 337.966 42.104C338.82 42.104 339.593 42.3013 340.286 42.696C340.98 43.0907 341.529 43.6293 341.934 44.312C342.35 44.984 342.558 45.7627 342.558 46.648C342.558 47.5227 342.35 48.3013 341.934 48.984C341.518 49.6667 340.964 50.2053 340.27 50.6C339.577 50.9947 338.809 51.192 337.966 51.192ZM337.966 49.272C338.436 49.272 338.846 49.16 339.198 48.936C339.561 48.712 339.844 48.4027 340.046 48.008C340.26 47.6027 340.366 47.1493 340.366 46.648C340.366 46.136 340.26 45.688 340.046 45.304C339.844 44.9093 339.561 44.6 339.198 44.376C338.846 44.1413 338.436 44.024 337.966 44.024C337.486 44.024 337.065 44.1413 336.702 44.376C336.34 44.6 336.052 44.9093 335.838 45.304C335.636 45.688 335.534 46.136 335.534 46.648C335.534 47.1493 335.636 47.6027 335.838 48.008C336.052 48.4027 336.34 48.712 336.702 48.936C337.065 49.16 337.486 49.272 337.966 49.272ZM344.148 51V42.296H346.116V44.232L345.956 43.944C346.159 43.2933 346.473 42.84 346.9 42.584C347.337 42.328 347.86 42.2 348.468 42.2H348.98V44.056H348.228C347.631 44.056 347.151 44.2427 346.788 44.616C346.425 44.9787 346.244 45.4907 346.244 46.152V51H344.148ZM354.335 51.096C353.353 51.096 352.591 50.8293 352.047 50.296C351.513 49.752 351.247 48.9893 351.247 48.008V44.168H349.743V42.296H349.903C350.329 42.296 350.66 42.184 350.895 41.96C351.129 41.736 351.247 41.4107 351.247 40.984V40.312H353.343V42.296H355.343V44.168H353.343V47.896C353.343 48.184 353.391 48.4293 353.487 48.632C353.593 48.8347 353.753 48.9893 353.967 49.096C354.191 49.2027 354.473 49.256 354.815 49.256C354.889 49.256 354.975 49.2507 355.071 49.24C355.177 49.2293 355.279 49.2187 355.375 49.208V51C355.225 51.0213 355.055 51.0427 354.863 51.064C354.671 51.0853 354.495 51.096 354.335 51.096Z" fill="#09922E"/>
</g>
<defs>
<clipPath id="clip0_93_1758">
<rect width="391" height="250" rx="16" fill="white"/>
</clipPath>
</defs>
</svg>
