<svg width="84" height="84" viewBox="0 0 84 84" fill="none" xmlns="http://www.w3.org/2000/svg">
<g clip-path="url(#clip0_131_1288)">
<path d="M81.2116 27.4823L47.727 11.125C44.8404 9.68166 39.9332 9.68166 37.0466 11.125L2.79233 27.4823C0.386833 28.637 0.00195312 30.2727 0.00195312 31.1387C0.00195312 32.0047 0.386833 33.5442 2.79233 34.7951L5.58271 36.1421V51.5373C3.85075 52.2109 2.59989 53.9428 2.59989 55.8672C2.59989 57.7916 3.85075 59.5236 5.48649 60.1971L1.15659 73.9566H13.2803L8.95041 60.1971C10.6824 59.5236 11.837 57.7916 11.837 55.8672C11.837 53.8466 10.5861 52.2109 8.85419 51.5373V37.7779L13.9538 40.2796V60.2933C13.9538 60.582 14.0501 60.8707 14.2425 61.1593C14.7236 61.7366 23.6721 73.9566 41.9538 73.9566C60.2356 73.9566 69.1841 61.6404 69.569 61.1593C69.7614 60.8707 69.8576 60.582 69.8576 60.2933V40.3758L81.2116 34.7951C83.6171 33.6404 84.002 32.0047 84.002 31.1387C83.9057 30.2727 83.6171 28.637 81.2116 27.4823ZM66.7786 59.8122C65.2391 61.7366 56.9641 70.9737 41.9538 70.9737C26.9435 70.9737 18.6686 61.7366 17.1291 59.8122V41.6267L37.0466 51.1524C38.4899 51.826 40.4143 52.2109 42.3387 52.2109C44.3593 52.2109 46.2837 51.826 47.727 51.0562L66.7786 41.7229V59.8122ZM79.8645 32.1009L68.3181 37.7779C67.837 37.7779 67.4521 37.9703 67.2597 38.3552L46.38 48.4583C44.3593 49.5167 40.4143 49.5167 38.2975 48.4583L12.6068 36.1421L42.1463 32.6782C43.0123 32.582 43.5896 31.8122 43.4934 31.0425C43.3971 30.1765 42.6274 29.5992 41.8576 29.6954L7.60333 33.7366L4.13941 32.1009C3.27343 31.716 3.08099 31.2349 3.08099 31.2349C3.08099 31.1387 3.27343 30.7538 4.13941 30.3689L38.3937 13.9153C39.4521 13.4342 40.8954 13.1456 42.3387 13.1456C43.8782 13.1456 45.4178 13.4342 46.38 13.9153L79.8645 30.2727C80.7305 30.6576 80.9229 31.0425 80.9229 31.2349C80.9229 31.2349 80.6343 31.716 79.8645 32.1009Z" fill="white"/>
</g>
<defs>
<clipPath id="clip0_131_1288">
<rect width="84" height="84" fill="white"/>
</clipPath>
</defs>
</svg>
