<svg width="225" height="85" viewBox="0 0 225 85" fill="none" xmlns="http://www.w3.org/2000/svg">
<rect width="225" height="85" fill="black"/>
<g clip-path="url(#clip0_334_1490)">
<path d="M84.5345 77.3985L78.6942 68.4586H72.854V77.4259H65.2208V46.4779H78.6399C86.273 46.4779 91.3799 50.6608 91.3799 57.3589C91.3799 61.4051 89.4241 64.6858 86.1915 66.5995L93.4172 77.4259H84.5345V77.3985ZM72.854 61.5418H78.5041C81.4378 61.5418 83.7468 59.9014 83.7468 57.3589C83.7468 54.8437 81.4378 53.258 78.5041 53.258H72.854V61.5418ZM104.799 53.176V58.8079H118.435V65.3693H104.799V70.7278H120.391V77.3985H97.1659V46.4779H120.391V53.176H104.799ZM154.428 61.8698C154.428 71.0558 147.501 77.4259 137.858 77.4259H125.525V46.4779H137.858C147.501 46.4779 154.428 52.7932 154.428 61.8698ZM146.686 61.8698C146.686 57.0855 142.856 53.422 137.831 53.422H133.131V70.509H137.831C142.856 70.4817 146.686 66.7636 146.686 61.8698ZM158.638 46.4779H166.271V77.3985H158.638V46.4779ZM195.5 53.3673H186.699V77.3985H179.093V53.3673H170.292V46.4779H195.5V53.3673ZM52.7797 66.2715C51.6116 69.1147 49.1397 70.8098 45.717 70.8098C40.6916 70.8098 37.2146 67.0916 37.2146 61.9519C37.2146 56.8121 40.6916 53.094 45.717 53.094C49.1397 53.094 51.6116 54.789 52.7797 57.6323H60.8746C59.2991 50.5787 53.5131 45.9037 45.7713 45.9037C36.5083 45.9037 29.5 52.6292 29.5 61.9519C29.5 71.2745 36.5083 78 45.7713 78C53.5403 78 59.2991 73.3523 60.8746 66.2715H52.7797ZM59.0546 8.36696V39.2603H51.4758V27.6685H38.9531V39.2603H31.32V8.36696H38.9531V20.779H51.4758V8.36696H59.0546ZM146.849 39.2603H139.216V23.759L132.371 34.3666V34.4213H128.133V34.3666L121.26 23.6769L121.315 39.2603H113.682V8.33962H119.386L130.252 24.8525L141.145 8.33962H146.849V39.2603ZM160.811 15.0377V20.6696H174.448V27.231H160.811V32.5895H176.404V39.2603H153.178V8.36696H176.404V15.0377H160.811ZM86.3817 7C74.2393 7 64.3787 16.432 64.3787 28.0785C64.3787 32.1794 65.6011 36.0069 67.7199 39.2603H78.3411C75.1086 36.7998 73.0169 32.9176 73.0169 28.5433C73.0169 21.107 78.993 15.0924 86.3817 15.0924C93.7703 15.0924 99.7464 21.107 99.7464 28.5433C99.7464 32.9176 97.6548 36.7998 94.4494 39.2603H105.016C107.135 36.0069 108.357 32.1794 108.357 28.0785C108.357 16.432 98.5241 7 86.3817 7Z" fill="#898989"/>
<path d="M79.1562 31.5507C80.1885 34.64 83.0136 36.8545 86.3819 36.8545C89.7231 36.8545 92.5753 34.64 93.6076 31.5507H79.1562Z" fill="#898989"/>
</g>
<defs>
<clipPath id="clip0_334_1490">
<rect width="166" height="71" fill="white" transform="translate(29.5 7)"/>
</clipPath>
</defs>
</svg>
