<svg width="225" height="85" viewBox="0 0 225 85" fill="none" xmlns="http://www.w3.org/2000/svg">
<rect width="225" height="85" fill="black"/>
<path fill-rule="evenodd" clip-rule="evenodd" d="M112.541 77.9385C119.979 74.8691 125.048 72.4956 128.481 70.6539C133.671 67.9126 138.081 64.5574 140.416 58.9505C141.804 55.6773 142.499 51.748 142.418 47.042C142.378 35.9524 142.337 24.9038 142.255 13.8129C126.028 4.81105 98.9718 4.81105 82.7452 13.8129C82.7043 24.9038 82.6633 35.9524 82.5827 47.042C82.5007 51.748 83.1958 55.6773 84.5846 58.9505C86.9551 64.5164 91.3686 67.9126 96.5193 70.6539C100.034 72.4956 105.103 74.8691 112.541 77.9385Z" fill="#898989"/>
<path fill-rule="evenodd" clip-rule="evenodd" d="M125.987 16.1865L124.067 12.4224C123.991 12.2628 123.879 12.1226 123.741 12.0123C123.58 11.92 123.395 11.8776 123.21 11.8906V11.5215H125.907V11.8906H125.825C125.631 11.8885 125.438 11.9161 125.253 11.9726C125.206 11.9828 125.165 12.0087 125.135 12.0457C125.106 12.0828 125.09 12.1289 125.09 12.1764C125.087 12.1994 125.088 12.223 125.095 12.2453C125.103 12.2675 125.115 12.2878 125.131 12.3045C125.189 12.3921 125.232 12.4887 125.259 12.5903L126.813 15.538L128.154 12.8313C128.199 12.7561 128.226 12.6721 128.235 12.5852C128.265 12.5215 128.279 12.4516 128.276 12.3814C128.276 12.3076 128.258 12.2349 128.222 12.1703C128.187 12.1057 128.135 12.0513 128.072 12.0123C127.883 11.9165 127.671 11.8744 127.459 11.8906V11.5215H129.748V11.8906C129.34 11.9316 129.053 12.1764 128.807 12.6672C128.784 12.6888 128.77 12.7179 128.767 12.7492L127.05 16.0237V18.0742C127.05 18.4433 127.091 18.6881 127.214 18.8111C127.336 18.9342 127.541 18.9752 127.909 18.9752H128.116V19.343H124.966V18.9701H125.172C125.498 18.9701 125.744 18.9291 125.825 18.806C125.953 18.6779 125.989 18.4382 125.989 18.0281V16.1865M122.474 11.5215L123.124 13.408L122.798 13.5361C122.265 12.8402 121.816 12.3904 121.53 12.1853C121.242 11.9876 120.898 11.8874 120.549 11.8995C120.434 11.8905 120.319 11.9193 120.222 11.9816C120.14 12.0213 120.14 12.1443 120.14 12.3084V18.0755C120.14 18.4856 120.181 18.7304 120.304 18.8534C120.427 18.9765 120.631 19.0175 120.999 19.0175H121.204V19.3853H118.059V19.0175H118.26C118.588 19.0175 118.832 18.9765 118.955 18.8534C119.078 18.7304 119.119 18.4856 119.119 18.0755V12.3084C119.122 12.194 119.094 12.081 119.037 11.9816C118.938 11.9252 118.825 11.8969 118.711 11.8995C118.364 11.9065 118.025 12.005 117.729 12.1853C117.443 12.3904 116.993 12.8402 116.462 13.5361L116.135 13.408L116.789 11.5253L122.474 11.5215ZM115.649 11.5215V11.9316H115.444C115.077 11.9316 114.872 11.9726 114.749 12.0943C114.626 12.2161 114.585 12.4634 114.585 12.9133V18.0281C114.585 18.4792 114.626 18.724 114.749 18.847C114.872 18.9701 115.077 19.0521 115.444 19.0521H115.649V19.4199H112.5V19.047H112.628C112.995 19.047 113.241 19.0059 113.364 18.8829C113.487 18.7599 113.527 18.5138 113.527 18.064V12.9133C113.527 12.4634 113.486 12.1764 113.364 12.0943C113.236 11.9726 113.036 11.9316 112.669 11.9316H112.5V11.5215H115.649ZM109.889 12.0533L107.233 19.3789H106.946L104.244 12.1354V17.5783C104.244 18.0691 104.326 18.3972 104.49 18.642C104.652 18.847 104.898 18.9701 105.265 19.0111V19.4199H102.691V19.0111C103.059 18.9701 103.344 18.847 103.508 18.642C103.672 18.4369 103.754 18.0691 103.754 17.6167V13.0363C103.754 12.5455 103.713 12.2174 103.59 12.0943C103.467 11.9713 103.263 11.9316 102.936 11.9316H102.732V11.5215H104.98L107.31 17.7833L109.598 11.5215H111.969V11.9316H111.764C111.438 11.9316 111.192 11.9726 111.069 12.0943C110.946 12.2161 110.906 12.5044 110.906 12.9543V18.0691C110.906 18.4792 110.947 18.724 111.069 18.847C111.191 18.9701 111.397 19.0111 111.723 19.0111H111.928V19.3789H108.821V19.0111H108.985C109.311 19.0111 109.557 18.9701 109.68 18.847C109.803 18.724 109.843 18.4792 109.843 18.0691V12.0533H109.889ZM95.252 19.4199V19.047C95.4733 19.0483 95.6889 18.9762 95.8651 18.8419C96.0525 18.6131 96.1915 18.3484 96.2734 18.064L98.3585 11.6804L99.2161 11.3933L101.547 18.3139C101.585 18.4431 101.64 18.5667 101.71 18.6817C101.791 18.8099 101.838 18.8868 101.914 18.9278C101.97 18.9791 102.043 19.0083 102.119 19.0098C102.2 19.0098 102.323 19.0508 102.487 19.0508V19.4186H99.5848V19.047H99.6667C99.8921 19.0609 100.117 19.0167 100.321 18.9188C100.383 18.8798 100.435 18.8254 100.471 18.7608C100.506 18.6962 100.525 18.6235 100.524 18.5497C100.526 18.4927 100.512 18.4363 100.483 18.3869C100.475 18.2998 100.447 18.2157 100.401 18.1409L99.9112 16.6683H97.1732L96.8059 17.8961C96.7727 17.9586 96.7585 18.0294 96.7649 18.0999V18.3459C96.7649 18.5907 96.8059 18.7548 96.9275 18.8778C97.0491 19.0008 97.2142 19.0418 97.4996 19.0418H97.6276V19.4096L95.252 19.4199ZM97.3371 16.1865H99.7486L98.5633 12.4634L97.3371 16.1865Z" fill="white"/>
<path fill-rule="evenodd" clip-rule="evenodd" d="M127.786 23.3069L126.762 21.4255C126.718 21.3495 126.663 21.2804 126.598 21.2205C126.508 21.1839 126.41 21.1699 126.313 21.1795V20.9693H127.745V21.1743H127.704C127.583 21.1743 127.46 21.1743 127.419 21.2154C127.337 21.2564 127.337 21.2564 127.337 21.3435V21.4255C127.337 21.4653 127.378 21.5063 127.419 21.5473L128.236 23.0211L128.972 21.6703C128.988 21.6536 129 21.6333 129.007 21.6111C129.014 21.5888 129.016 21.5652 129.012 21.5422V21.4204C129.012 21.3384 128.972 21.2922 128.884 21.2564C128.78 21.22 128.669 21.206 128.558 21.2154V21.0103H129.784V21.2256C129.681 21.2476 129.583 21.2919 129.499 21.3554C129.414 21.4189 129.344 21.5001 129.294 21.5934C129.294 21.6344 129.294 21.6344 129.253 21.6344L128.357 23.271V24.2963C128.343 24.4246 128.372 24.5538 128.439 24.6641C128.552 24.725 128.679 24.7534 128.806 24.7461H128.934V24.9422H127.255V24.7372H127.383C127.51 24.739 127.636 24.7109 127.75 24.6551C127.817 24.5448 127.846 24.4156 127.832 24.2873V23.3043M125.912 20.9308L126.24 21.8728L126.076 21.9548C125.878 21.6916 125.644 21.4574 125.381 21.2589C125.22 21.1617 125.038 21.1053 124.85 21.0949C124.768 21.0949 124.686 21.0949 124.686 21.1359C124.645 21.1769 124.645 21.2179 124.645 21.2999V24.2053C124.622 24.2682 124.618 24.3364 124.632 24.4017C124.647 24.4671 124.68 24.5269 124.727 24.5742C124.774 24.6215 124.834 24.6542 124.9 24.6686C124.965 24.6829 125.033 24.6782 125.096 24.6551H125.224V24.8602H123.494V24.6551H123.622C123.685 24.6779 123.753 24.6823 123.818 24.6678C123.883 24.6533 123.943 24.6205 123.99 24.5733C124.037 24.5261 124.07 24.4664 124.084 24.4012C124.099 24.336 124.094 24.2681 124.072 24.2053V21.3025C124.072 21.2205 124.072 21.1743 124.032 21.1385C123.992 21.1026 123.95 21.0974 123.868 21.0974C123.677 21.0884 123.489 21.1464 123.337 21.2615C123.084 21.4711 122.851 21.7041 122.642 21.9574L122.437 21.8754L122.765 20.9334L125.912 20.9308ZM122.275 20.9308V21.1359H122.153C122.024 21.1221 121.895 21.1509 121.784 21.2179C121.719 21.3439 121.691 21.4855 121.702 21.6267V24.1733C121.691 24.3145 121.719 24.4562 121.784 24.5821C121.866 24.6641 121.989 24.6641 122.153 24.6641H122.228V24.8692H120.552V24.6641H120.634C120.762 24.6779 120.892 24.6491 121.002 24.5821C121.083 24.5411 121.083 24.3783 121.083 24.1733V21.5883C121.094 21.4472 121.066 21.3057 121.002 21.1795C120.889 21.1185 120.762 21.0901 120.634 21.0974H120.552V20.8924H122.268L122.275 20.9308ZM117.738 24.9832L117.324 23.9169L117.528 23.8349C117.741 24.0988 117.988 24.3328 118.263 24.5308C118.478 24.685 118.735 24.7707 118.999 24.7769C119.208 24.7783 119.411 24.7057 119.571 24.5718C119.647 24.5055 119.708 24.4238 119.751 24.3322C119.793 24.2405 119.816 24.1409 119.817 24.04C119.818 23.8431 119.745 23.653 119.612 23.5081C119.484 23.38 119.163 23.2621 118.753 23.1403C118.73 23.1439 118.707 23.1421 118.684 23.135C118.662 23.1279 118.642 23.1156 118.625 23.0993C118.336 23.0533 118.067 22.9251 117.848 22.7302C117.739 22.6285 117.655 22.5026 117.603 22.3624C117.556 22.2307 117.529 22.093 117.522 21.9535C117.519 21.8143 117.547 21.6763 117.604 21.549C117.66 21.4217 117.744 21.3083 117.848 21.2166C117.959 21.1164 118.088 21.0394 118.228 20.9901C118.369 20.9407 118.518 20.9202 118.666 20.9296C118.805 20.9411 118.942 20.9686 119.075 21.0116C119.238 21.0526 119.319 21.0936 119.36 21.0936C119.418 21.0997 119.476 21.0852 119.524 21.0526C119.606 21.0526 119.652 21.0116 119.729 20.9706L120.137 21.9535L119.973 22.0356C119.787 21.7753 119.567 21.5413 119.319 21.3397C119.135 21.1878 118.905 21.1013 118.666 21.0936C118.471 21.0995 118.283 21.1718 118.134 21.2987C118.069 21.3626 118.017 21.439 117.982 21.5234C117.947 21.6077 117.93 21.6982 117.93 21.7895C117.932 21.8903 117.961 21.9887 118.012 22.0753C118.067 22.167 118.136 22.2499 118.216 22.3214C118.454 22.4655 118.718 22.5629 118.993 22.6084C119.057 22.6382 119.127 22.6522 119.197 22.6495C119.501 22.7028 119.776 22.8622 119.973 23.0993C120.111 23.2686 120.198 23.4736 120.224 23.6906C120.25 23.9075 120.214 24.1274 120.121 24.3247C120.027 24.522 119.879 24.6885 119.694 24.8048C119.509 24.9212 119.295 24.9826 119.077 24.9819C118.884 24.9748 118.692 24.9473 118.505 24.8999C118.403 24.85 118.291 24.8221 118.177 24.8179C118.12 24.8161 118.064 24.8304 118.015 24.8589C117.909 24.8725 117.809 24.9171 117.728 24.9871M114.625 22.775H115.076C115.35 22.7931 115.622 22.7216 115.852 22.5713C116.015 22.4482 116.097 22.2436 116.097 21.9574C116.104 21.8371 116.086 21.7166 116.044 21.6038C116.001 21.491 115.936 21.3884 115.852 21.3025C115.635 21.1565 115.377 21.0846 115.117 21.0974C114.962 21.0878 114.808 21.1159 114.666 21.1795C114.584 21.2205 114.545 21.3845 114.545 21.5473V22.775H114.625ZM116.179 24.9038L115.076 22.9814H114.625V24.2502C114.612 24.3784 114.64 24.5077 114.707 24.618C114.82 24.679 114.948 24.7074 115.076 24.7H115.158V24.905H113.481V24.7H113.563C113.691 24.7138 113.821 24.685 113.932 24.618C113.996 24.4919 114.024 24.3503 114.012 24.2091V21.6293C114.026 21.5012 113.998 21.372 113.932 21.2615C113.819 21.2005 113.691 21.1721 113.563 21.1795H113.481V20.9693H115.158C115.689 20.9693 116.054 21.0513 116.343 21.2564C116.476 21.3359 116.584 21.4506 116.656 21.5879C116.728 21.7251 116.761 21.8796 116.751 22.0343C116.756 22.152 116.733 22.2691 116.683 22.3757C116.633 22.4823 116.558 22.5753 116.465 22.6469C116.261 22.8109 116.015 22.893 115.607 22.975L116.383 24.2437C116.474 24.3937 116.584 24.5311 116.71 24.6526C116.792 24.7346 116.955 24.7346 117.119 24.7346H117.16V24.9422H116.179V24.9038ZM109.599 24.9038V24.6987H109.684C109.813 24.7124 109.942 24.6836 110.052 24.6167C110.117 24.4908 110.145 24.3491 110.134 24.2079V21.6293C110.145 21.488 110.117 21.3464 110.052 21.2205C109.939 21.1596 109.812 21.1312 109.684 21.1385H109.603V20.9334H112.547L112.955 21.8754L112.792 21.9164C112.605 21.6555 112.369 21.4331 112.097 21.2615C111.858 21.1361 111.589 21.0794 111.32 21.0974C111.153 21.0893 110.986 21.1173 110.83 21.1795C110.748 21.2205 110.702 21.3435 110.702 21.5473V22.693H110.989C111.206 22.7132 111.423 22.6555 111.602 22.5303C111.724 22.4482 111.805 22.2842 111.846 22.0394H112.051V23.553H111.846C111.825 23.3538 111.74 23.1668 111.604 23.0198C111.476 22.8917 111.277 22.8558 110.991 22.8558H110.708V24.2066C110.704 24.2672 110.713 24.3281 110.735 24.3848C110.757 24.4414 110.792 24.4922 110.836 24.5334C110.951 24.5892 111.077 24.6173 111.204 24.6154C111.529 24.6196 111.85 24.5499 112.145 24.4116C112.444 24.2631 112.697 24.0369 112.879 23.7567L113.043 23.7978L112.635 24.823H109.599V24.9038ZM107.392 25.0255L106.207 21.7523V21.7113C106.079 21.3435 105.838 21.1385 105.594 21.1385V20.9334H107.146V21.1385C106.982 21.1385 106.861 21.1795 106.779 21.1795C106.694 21.2205 106.651 21.2632 106.651 21.3076V21.3897C106.651 21.4307 106.692 21.5114 106.692 21.5524L107.636 24.0451L108.495 21.6306C108.495 21.5896 108.536 21.5486 108.536 21.5024V21.3807C108.537 21.3379 108.525 21.2958 108.502 21.2595C108.479 21.2232 108.447 21.1941 108.408 21.1756C108.294 21.12 108.168 21.0919 108.041 21.0936V20.8885H109.307V21.0974C109.186 21.0959 109.068 21.1419 108.98 21.2256C108.894 21.3222 108.825 21.4327 108.776 21.5524L107.508 24.9858H107.38L107.392 25.0255ZM105.389 20.9334V21.1385H105.261C105.133 21.1247 105.004 21.1535 104.893 21.2205C104.829 21.3464 104.8 21.488 104.812 21.6293V24.1733C104.8 24.3145 104.828 24.4562 104.893 24.5821C104.934 24.6641 105.098 24.6641 105.261 24.6641H105.343V24.8692H103.668V24.6641H103.75C103.879 24.6778 104.008 24.649 104.118 24.5821C104.2 24.5411 104.2 24.3783 104.2 24.1733V21.5883C104.211 21.447 104.183 21.3054 104.118 21.1795C104.005 21.1184 103.878 21.09 103.75 21.0974H103.668V20.8924H105.385L105.389 20.9334ZM100.397 20.9334L102.687 24.0028V21.8344C102.687 21.5883 102.646 21.3845 102.559 21.3025C102.477 21.1743 102.313 21.1385 102.109 21.1385V20.9334H103.58V21.1385C103.375 21.1385 103.213 21.1795 103.131 21.3025C103.036 21.4628 102.991 21.6482 103.003 21.8344V24.9422H102.798L100.306 21.5857V23.9169C100.306 24.163 100.347 24.3681 100.428 24.4488C100.509 24.577 100.673 24.6128 100.878 24.6128V24.8179H99.4061V24.6128C99.6109 24.6128 99.7734 24.5718 99.8554 24.4488C99.9507 24.2885 99.9954 24.1031 99.9834 23.9169V21.3845C99.9118 21.3163 99.8291 21.2608 99.7389 21.2205C99.6241 21.1647 99.4978 21.1366 99.3702 21.1385V20.9334H100.397ZM97.9456 21.1795V20.9693H99.2934V21.1743C99.2177 21.1718 99.1423 21.1851 99.072 21.2133C99.0017 21.2415 98.9381 21.2841 98.8851 21.3384C98.7897 21.4986 98.7451 21.6841 98.7571 21.8702V23.4299C98.7571 23.9618 98.6291 24.3719 98.3898 24.6167C98.1504 24.8615 97.7766 24.9858 97.2864 24.9858C96.7962 24.9858 96.4275 24.8576 96.183 24.6167C95.9386 24.3758 95.8144 24.0438 95.8144 23.553V21.5883C95.8371 21.5255 95.8415 21.4576 95.8271 21.3924C95.8126 21.3272 95.7799 21.2675 95.7327 21.2203C95.6855 21.1731 95.6259 21.1403 95.5608 21.1258C95.4957 21.1113 95.4278 21.1157 95.3651 21.1385H95.2832V20.9693H96.9178V21.1743H96.7962C96.6681 21.167 96.5404 21.1954 96.4275 21.2564C96.3624 21.3822 96.334 21.5239 96.3456 21.6652V23.7157C96.3263 24.0091 96.4135 24.2995 96.5914 24.5334C96.8041 24.7251 97.0822 24.8278 97.3683 24.8205C97.7357 24.8205 97.9814 24.7384 98.185 24.5334C98.3488 24.3296 98.4307 24.0015 98.4307 23.5927V21.9574C98.4427 21.7712 98.3981 21.5858 98.3027 21.4255C98.2618 21.2205 98.1389 21.1795 97.9354 21.1795" fill="white"/>
<path fill-rule="evenodd" clip-rule="evenodd" d="M112.541 75.4368C117.533 73.3504 122.677 71.1409 127.418 68.6444C132.118 66.1479 136.205 63.1195 138.33 58.0867C139.802 54.6482 140.21 50.8021 140.169 47.1188V47.0778L140.041 28.6627C123.285 25.3075 95.4975 27.7656 84.9874 42.7409L84.9477 47.0778V47.1188C84.8658 50.8431 85.3151 54.6482 86.7858 58.0867C88.9119 63.1195 92.9989 66.1479 97.6991 68.6444C102.399 71.1819 107.508 73.3863 112.536 75.4368" fill="#2E3A4B"/>
<mask id="mask0_334_1492" style="mask-type:luminance" maskUnits="userSpaceOnUse" x="84" y="27" width="57" height="49">
<path d="M84.9535 42.7051L84.9126 47.042V47.083C84.8307 50.8073 85.2799 54.6136 86.7519 58.0509C88.8767 63.0836 92.9638 66.112 97.6639 68.6086C102.4 71.1461 107.555 73.3146 112.541 75.401C117.533 73.3146 122.637 71.1461 127.419 68.6086C132.119 66.112 136.206 63.0836 138.331 58.0509C139.803 54.6136 140.211 50.7663 140.17 47.083V47.042L140.042 28.6269C135.834 27.7682 130.888 27.3184 125.738 27.3184C110.33 27.3594 92.8422 31.5322 84.9484 42.7051" fill="white"/>
</mask>
<g mask="url(#mask0_334_1492)">
<path fill-rule="evenodd" clip-rule="evenodd" d="M113.155 66.5619C113.113 66.6618 113.106 66.773 113.136 66.8771C113.166 66.9812 113.23 67.0721 113.318 67.1348C113.522 67.2988 113.809 67.2988 114.053 67.2988C116.71 67.3808 118.917 66.5619 120.634 64.8433C120.879 64.5985 120.838 64.2294 120.593 64.2704C118.632 65.6622 116.424 66.4812 114.094 66.2761C113.768 66.2761 113.277 66.1941 113.155 66.5619ZM112.296 66.3171C112.397 66.3359 112.488 66.393 112.549 66.4767C112.61 66.5604 112.637 66.6642 112.623 66.7669C112.6 66.8637 112.54 66.9477 112.457 67.0012C112.373 67.0548 112.272 67.0737 112.174 67.054C112.072 67.0349 111.982 66.9775 111.921 66.8937C111.86 66.8098 111.833 66.7058 111.846 66.6029C111.857 66.5546 111.877 66.5089 111.906 66.4684C111.934 66.4279 111.97 66.3934 112.012 66.3668C112.054 66.3403 112.1 66.3222 112.149 66.3137C112.198 66.3052 112.247 66.3063 112.296 66.3171ZM111.356 66.1531C111.403 66.1633 111.445 66.1893 111.474 66.2266C111.504 66.2639 111.52 66.3103 111.52 66.3581C111.52 66.4401 111.392 66.5209 111.274 66.4863C111.228 66.476 111.186 66.4501 111.156 66.4127C111.126 66.3754 111.11 66.329 111.11 66.2812C111.127 66.232 111.161 66.191 111.207 66.1671C111.253 66.1431 111.307 66.1381 111.356 66.1531ZM108.127 61.8149C111.11 67.8755 123.658 65.5392 122.229 57.1909C123.253 57.519 123.781 58.5007 123.904 59.8925C124.067 61.5291 123.617 63.0427 123.414 64.6805C123.086 67.2168 123.127 69.5903 123.542 72.4982C122.725 73.0301 121.702 73.4812 120.681 73.849C120.396 72.6623 120.027 71.3935 119.741 70.2477C119.488 70.3352 119.228 70.4037 118.965 70.4528C119.251 71.6806 119.578 72.9083 119.905 74.0951C119.679 74.1685 119.446 74.223 119.21 74.2578C118.76 73.1531 118.314 72.0484 117.861 70.9847C117.492 70.9777 117.124 70.9503 116.758 70.9026C117.289 72.0484 117.82 73.2761 118.351 74.4629C117.984 74.5039 117.656 74.591 117.327 74.591C116.714 73.4043 116.06 72.1765 115.447 70.9898C115.119 70.9828 114.791 70.9554 114.467 70.9078C115.162 72.1355 115.896 73.4453 116.55 74.6731H116.591C116.127 74.6891 115.661 74.6616 115.201 74.591L110.501 67.9614C113.199 70.3349 118.839 70.3759 121.373 67.6756C122.109 67.0617 121.619 65.7532 120.349 66.7785C119.222 67.6544 117.883 68.2152 116.469 68.4035C114.262 68.7726 111.973 68.3625 110.175 67.054C108.622 65.9006 107.558 64.2345 108.127 61.8149Z" fill="#898989"/>
</g>
<path fill-rule="evenodd" clip-rule="evenodd" d="M121.246 46.3064C118.386 47.6149 117.568 51.748 117.732 54.6944C117.813 55.8004 117.936 56.9461 117.446 58.0098C116.097 61.0857 111.397 59.1966 112.418 54.9404C113.442 50.6433 115.566 46.7562 115.607 41.6811C115.607 37.507 113.931 33.784 110.538 30.4275C111.602 34.1108 109.843 36.0344 107.841 38.2452C106.738 39.4729 105.634 40.6187 105.143 42.2181C104.408 44.3878 104.653 46.8023 106.247 48.9298C106.084 47.579 106.043 46.3115 106.247 45.1658C106.941 41.8503 111.274 40.2957 112.336 37.3904C113.481 39.232 113.113 41.8913 112.133 44.3878C110.293 48.2326 106.574 53.4717 107.554 57.9329C108.126 60.6332 109.474 62.5569 112.01 63.5796C115.117 64.8484 118.958 63.5796 120.471 60.4705C121.205 58.9556 121.246 57.237 120.756 55.3954C119.081 49.7487 120.102 47.9481 121.246 46.3115" fill="white"/>
<path d="M120.552 46.96C120.471 47.042 120.389 47.0881 120.307 47.165C119.992 47.4395 119.717 47.7566 119.489 48.107C118.222 49.9012 117.855 52.5669 117.977 54.6533V54.8994C118.059 55.9631 118.14 57.0678 117.65 58.0918C117.2 59.0735 116.424 59.6054 115.602 59.6874C115.145 59.737 114.684 59.6808 114.253 59.5234C113.796 59.3532 113.389 59.0723 113.067 58.7057C112.29 57.8868 111.841 56.536 112.249 54.8994C112.577 53.4666 113.067 52.0799 113.517 50.6432C114.457 47.8609 115.397 45.0376 115.397 41.6811C115.406 39.6683 114.99 37.6763 114.176 35.8358C113.44 34.1992 112.377 32.6446 110.989 31.1298C111.602 34.4042 109.965 36.2459 108.045 38.3733L107.963 38.4553C106.899 39.6011 105.878 40.7468 105.387 42.2604C105.305 42.5475 105.224 42.8332 105.142 43.1575C104.803 44.8262 105.094 46.5615 105.96 48.0275C105.925 47.6603 105.912 47.2915 105.919 46.9228C105.908 46.3049 105.963 45.6876 106.082 45.0812C106.45 43.1985 107.922 41.8887 109.352 40.6199C110.537 39.5562 111.681 38.5335 112.168 37.2647L112.33 36.8559L112.576 37.2237C112.729 37.5017 112.865 37.7885 112.984 38.0824C113.109 38.3835 113.192 38.7005 113.23 39.0244C113.515 40.661 113.102 42.5846 112.412 44.4263C112.004 45.2439 111.554 46.1449 111.022 47.0856C109.184 50.442 107.099 54.4111 107.835 57.8073C108.12 59.1171 108.612 60.2628 109.305 61.1638C110.049 62.1193 111.039 62.8546 112.168 63.2912C112.59 63.4569 113.028 63.5801 113.474 63.6591C113.918 63.7475 114.372 63.7751 114.824 63.7411C117.112 63.6591 119.319 62.4313 120.383 60.3039C120.735 59.5752 120.93 58.7804 120.955 57.9714C120.977 57.1028 120.88 56.2353 120.668 55.3928C119.851 52.5285 119.688 50.6048 119.892 49.2143C119.851 48.3543 120.178 47.6174 120.545 46.9625M121.117 46.1039L121.404 46.4307C120.873 47.2496 120.342 48.0685 120.137 49.3783C119.932 50.7291 120.096 52.5708 120.914 55.3531C121.158 56.246 121.268 57.1703 121.24 58.0957C121.202 58.9597 120.993 59.8077 120.627 60.5909C119.524 62.8837 117.153 64.2332 114.701 64.2742C114.223 64.2878 113.744 64.2604 113.271 64.1922C112.793 64.1159 112.328 63.9754 111.887 63.7744C110.579 63.2425 109.599 62.5056 108.863 61.5239C108.127 60.5422 107.636 59.3606 107.31 57.9688C106.533 54.4086 108.699 50.3575 110.538 46.9202C111.028 45.9783 111.52 45.126 111.887 44.3007C112.582 42.541 112.95 40.6994 112.705 39.1448C112.656 38.8539 112.588 38.5666 112.5 38.2849C112.456 38.1445 112.402 38.0079 112.336 37.8761C111.764 39.0628 110.702 40.0035 109.599 40.9865C108.208 42.213 106.82 43.4817 106.451 45.2003C106.332 45.7791 106.278 46.3692 106.288 46.96C106.283 47.6044 106.338 48.2479 106.451 48.8823L106.043 49.0464C104.95 47.6172 104.4 45.8458 104.49 44.0482C104.53 43.7214 104.571 43.3933 104.612 43.0665C104.694 42.7397 104.776 42.4526 104.857 42.1258C105.389 40.5289 106.451 39.3422 107.513 38.1529L107.595 38.0709C109.558 35.9024 111.274 34.0198 110.253 30.4595L110.62 30.2557C112.336 31.9743 113.604 33.734 114.46 35.6576C115.313 37.5468 115.745 39.599 115.727 41.6721C115.727 45.0696 114.745 47.934 113.807 50.7573C113.358 52.1491 112.866 53.5396 112.54 54.9725C112.173 56.486 112.581 57.6317 113.276 58.4097C113.551 58.7273 113.904 58.9672 114.3 59.1056C114.666 59.24 115.056 59.2959 115.444 59.2696C116.139 59.1876 116.793 58.7378 117.161 57.9188C117.569 56.9781 117.488 55.9541 117.448 54.9314V54.6854C117.32 52.5579 117.692 49.7756 119.041 47.893C119.295 47.5145 119.596 47.17 119.937 46.8677C120.303 46.5664 120.7 46.3055 121.122 46.0898" fill="#A8AAAB"/>
</svg>
