<svg width="334" height="73" viewBox="0 0 334 73" fill="none" xmlns="http://www.w3.org/2000/svg">
<mask id="mask0_127_1779" style="mask-type:luminance" maskUnits="userSpaceOnUse" x="305" y="1" width="29" height="70">
<path d="M305 1.93506H333.233V70.7237H305V1.93506Z" fill="white"/>
</mask>
<g mask="url(#mask0_127_1779)">
<path fill-rule="evenodd" clip-rule="evenodd" d="M305.475 2.16113L317.347 9.01537L333.118 18.1223V54.5364L317.347 63.6433L305.475 70.4975V55.132L310.695 52.1247L319.808 46.8536V25.805L310.695 20.5339L305.475 17.5266" fill="#B7B327"/>
</g>
<path d="M59.5605 49.3291H50.5205V22.5291H59.5605C67.6405 22.5291 72.7205 27.7291 72.7205 35.9291C72.7205 44.1291 67.6405 49.3291 59.5605 49.3291ZM59.5605 25.1291H53.3605V46.7291H59.5605C66.6805 46.7291 69.7205 43.2091 69.7205 35.9291C69.7205 28.6491 66.6805 25.1291 59.5605 25.1291ZM94.498 49.3291H76.458V22.5291H94.498V25.1291H79.298V34.5291H93.898V37.1691H79.298V46.7291H94.498V49.3291ZM108.1 49.7291C100.66 49.7291 97.4205 45.8091 97.4205 41.2091V40.6091H100.26V41.0491C100.26 44.7691 102.22 47.0891 108.18 47.0891C112.62 47.0891 114.7 45.6091 114.7 42.5291C114.7 39.5291 113.34 38.4091 109.3 37.5291L104.66 36.4891C100.46 35.6091 97.5805 33.6891 97.5805 29.3691C97.5805 25.4891 100.78 22.1291 107.14 22.1291C114.1 22.1291 117.14 26.3691 117.14 30.7291V31.2491H114.3V30.8091C114.3 27.1291 112.38 24.7691 107.1 24.7691C102.66 24.7691 100.46 26.2491 100.46 29.1691C100.46 32.2091 101.94 33.0891 105.86 34.0091L110.5 35.0891C114.94 36.0891 117.58 38.1691 117.58 42.3691C117.58 46.4491 114.42 49.7291 108.1 49.7291ZM132.345 49.7291C124.745 49.7291 120.145 44.2891 120.145 35.9291C120.145 27.5691 124.745 22.1291 132.345 22.1291C138.905 22.1291 143.345 26.0091 143.345 32.0891V32.4091H140.305V32.0891C140.305 27.3691 137.785 24.8891 132.185 24.8891C125.905 24.8891 123.145 28.4891 123.145 35.9291C123.145 43.3691 125.905 46.9691 132.185 46.9691C137.785 46.9691 140.305 44.4891 140.305 39.7691V39.4491H143.345V39.7691C143.345 45.8491 138.905 49.7291 132.345 49.7291ZM150.001 49.3291H147.161V22.5291H150.001V49.3291ZM157.97 49.3291H155.13V22.5291H165.61C171.21 22.5291 175.33 25.7691 175.33 31.3291C175.33 36.9691 171.21 40.1691 165.61 40.1691H157.97V49.3291ZM166.05 25.1291H157.97V37.5691H166.05C170.41 37.5691 172.45 35.7291 172.45 31.3291C172.45 26.9691 170.41 25.1291 166.05 25.1291ZM181.368 49.3291H178.528V22.5291H189.448C194.968 22.5291 198.728 25.3691 198.728 30.3291C198.728 34.8891 195.568 37.6491 190.768 37.7691V38.0091C192.448 38.5291 193.568 39.6491 194.488 41.2891L199.088 49.3291H195.768L191.448 41.8091C190.128 39.4891 188.728 38.4091 185.248 38.4091H181.368V49.3291ZM181.368 25.1291V35.9691H189.888C194.008 35.9691 195.848 34.3291 195.848 30.5291C195.848 26.8491 194.008 25.1291 189.888 25.1291H181.368ZM221.135 49.7291C213.775 49.7291 208.895 44.2891 208.895 35.9291C208.895 27.5691 213.775 22.1291 221.135 22.1291C228.455 22.1291 233.335 27.5691 233.335 35.9291C233.335 42.8491 230.015 47.7691 224.695 49.2491L228.495 54.9691H225.015L221.775 49.7291C221.575 49.7291 221.335 49.7291 221.135 49.7291ZM221.135 46.9691C227.415 46.9691 230.335 43.3691 230.335 35.9291C230.335 28.4891 227.415 24.8891 221.135 24.8891C214.855 24.8891 211.895 28.4891 211.895 35.9291C211.895 43.3691 214.855 46.9691 221.135 46.9691ZM248.162 49.7291C241.322 49.7291 237.042 45.7691 237.042 38.7691V22.5291H239.922V38.7691C239.922 44.4891 242.282 46.9691 248.162 46.9691C253.962 46.9691 256.362 44.4891 256.362 38.7691V22.5291H259.242V38.7691C259.242 45.7691 254.922 49.7291 248.162 49.7291ZM267.15 49.3291H264.31V22.5291H267.15V49.3291ZM291.533 49.3291H270.173V46.8891L287.093 25.3291V25.1291H270.973V22.5291H290.933V24.9691L274.013 46.5291V46.7291H291.533V49.3291Z" fill="white"/>
<mask id="mask1_127_1779" style="mask-type:luminance" maskUnits="userSpaceOnUse" x="0" y="0" width="37" height="73">
<path d="M0.459473 0H36.0003V72.6581H0.459473V0Z" fill="white"/>
</mask>
<g mask="url(#mask1_127_1779)">
<path fill-rule="evenodd" clip-rule="evenodd" d="M11.4273 11.8768L0.466309 18.2115V54.6257L11.4273 60.9604M18.6017 65.1007L32.0079 72.8372L35.9019 70.5868V2.25041L32.0079 0L18.6017 7.73649V65.1007Z" fill="#B7B327"/>
</g>
</svg>
