<svg width="605" height="283" viewBox="0 0 605 283" fill="none" xmlns="http://www.w3.org/2000/svg">
<g clip-path="url(#clip0_127_1286)">
<rect width="605" height="283" fill="url(#paint0_linear_127_1286)"/>
<circle cx="172.554" cy="147.327" r="0.102604" fill="#D9D9D9"/>
<circle cx="181.685" cy="140.249" r="0.102604" fill="#D9D9D9" fill-opacity="0.7"/>
<circle cx="187.997" cy="136.606" r="0.0513021" fill="#D9D9D9" fill-opacity="0.5"/>
<circle cx="172.708" cy="135.067" r="0.0513021" fill="#D9D9D9"/>
<circle cx="205.438" cy="138.965" r="0.0513021" fill="#D9D9D9"/>
<circle cx="221.854" cy="103.144" r="0.102604" transform="rotate(150 221.854 103.144)" fill="#D9D9D9"/>
<circle cx="217.487" cy="113.841" r="0.102604" transform="rotate(150 217.487 113.841)" fill="#D9D9D9" fill-opacity="0.7"/>
<circle cx="213.842" cy="120.151" r="0.0513021" transform="rotate(150 213.842 120.151)" fill="#D9D9D9" fill-opacity="0.5"/>
<circle cx="227.852" cy="113.841" r="0.0513021" transform="rotate(150 227.852 113.841)" fill="#D9D9D9"/>
<circle cx="197.557" cy="126.829" r="0.0513021" transform="rotate(150 197.557 126.829)" fill="#D9D9D9"/>
<circle cx="207.182" cy="54.7186" r="0.102604" transform="rotate(135 207.182 54.7186)" fill="#D9D9D9"/>
<circle cx="205.733" cy="66.1815" r="0.102604" transform="rotate(135 205.733 66.1815)" fill="#D9D9D9" fill-opacity="0.7"/>
<circle cx="203.844" cy="73.2206" r="0.0513021" transform="rotate(135 203.844 73.2206)" fill="#D9D9D9" fill-opacity="0.5"/>
<circle cx="215.745" cy="63.4979" r="0.0513021" transform="rotate(135 215.745 63.4979)" fill="#D9D9D9"/>
<circle cx="189.842" cy="83.8846" r="0.0513021" transform="rotate(135 189.842 83.8846)" fill="#D9D9D9"/>
<circle cx="203.563" cy="120.824" r="0.102604" transform="rotate(-75 203.563 120.824)" fill="#D9D9D9"/>
<circle cx="199.088" cy="110.172" r="0.102604" transform="rotate(-75 199.088 110.172)" fill="#D9D9D9" fill-opacity="0.7"/>
<circle cx="197.203" cy="103.134" r="0.0513021" transform="rotate(-75 197.203 103.134)" fill="#D9D9D9" fill-opacity="0.5"/>
<circle cx="191.76" cy="117.503" r="0.0513021" transform="rotate(-75 191.76 117.503)" fill="#D9D9D9"/>
<circle cx="203.998" cy="86.8956" r="0.0513021" transform="rotate(-75 203.998 86.8956)" fill="#D9D9D9"/>
<circle cx="240.727" cy="94.8132" r="0.102604" transform="rotate(45 240.727 94.8132)" fill="#D9D9D9"/>
<circle cx="252.189" cy="96.2644" r="0.102604" transform="rotate(45 252.189 96.2644)" fill="#D9D9D9" fill-opacity="0.7"/>
<circle cx="259.227" cy="98.1508" r="0.0513021" transform="rotate(45 259.227 98.1508)" fill="#D9D9D9" fill-opacity="0.5"/>
<circle cx="249.504" cy="86.2524" r="0.0513021" transform="rotate(45 249.504 86.2524)" fill="#D9D9D9"/>
<circle cx="269.893" cy="112.155" r="0.0513021" transform="rotate(45 269.893 112.155)" fill="#D9D9D9"/>
<circle cx="306.833" cy="98.4334" r="0.102604" transform="rotate(-165 306.833 98.4334)" fill="#D9D9D9"/>
<circle cx="296.18" cy="102.908" r="0.102604" transform="rotate(-165 296.18 102.908)" fill="#D9D9D9" fill-opacity="0.7"/>
<circle cx="289.142" cy="104.793" r="0.0513021" transform="rotate(-165 289.142 104.793)" fill="#D9D9D9" fill-opacity="0.5"/>
<circle cx="303.512" cy="110.236" r="0.0513021" transform="rotate(-165 303.512 110.236)" fill="#D9D9D9"/>
<circle cx="272.904" cy="97.9982" r="0.0513021" transform="rotate(-165 272.904 97.9982)" fill="#D9D9D9"/>
<circle cx="294.893" cy="49.1026" r="0.102604" transform="rotate(90 294.893 49.1026)" fill="#D9D9D9"/>
<circle cx="301.972" cy="58.2335" r="0.102604" transform="rotate(90 301.972 58.2335)" fill="#D9D9D9" fill-opacity="0.7"/>
<circle cx="305.615" cy="64.5454" r="0.0513021" transform="rotate(90 305.615 64.5454)" fill="#D9D9D9" fill-opacity="0.5"/>
<circle cx="307.154" cy="49.2565" r="0.0513021" transform="rotate(90 307.154 49.2565)" fill="#D9D9D9"/>
<circle cx="303.255" cy="81.9868" r="0.0513021" transform="rotate(90 303.255 81.9868)" fill="#D9D9D9"/>
<circle cx="339.077" cy="98.4028" r="0.102604" transform="rotate(-120 339.077 98.4028)" fill="#D9D9D9"/>
<circle cx="328.379" cy="94.0356" r="0.102604" transform="rotate(-120 328.379 94.0356)" fill="#D9D9D9" fill-opacity="0.7"/>
<circle cx="322.07" cy="90.3909" r="0.0513021" transform="rotate(-120 322.07 90.3909)" fill="#D9D9D9" fill-opacity="0.5"/>
<circle cx="328.38" cy="104.401" r="0.0513021" transform="rotate(-120 328.38 104.401)" fill="#D9D9D9"/>
<circle cx="315.392" cy="74.1057" r="0.0513021" transform="rotate(-120 315.392 74.1057)" fill="#D9D9D9"/>
<circle cx="177.308" cy="230.065" r="0.102604" transform="rotate(-90 177.308 230.065)" fill="#D9D9D9"/>
<circle cx="170.23" cy="220.935" r="0.102604" transform="rotate(-90 170.23 220.935)" fill="#D9D9D9" fill-opacity="0.7"/>
<circle cx="166.586" cy="214.623" r="0.0513021" transform="rotate(-90 166.586 214.623)" fill="#D9D9D9" fill-opacity="0.5"/>
<circle cx="165.047" cy="229.911" r="0.0513021" transform="rotate(-90 165.047 229.911)" fill="#D9D9D9"/>
<circle cx="168.946" cy="197.181" r="0.0513021" transform="rotate(-90 168.946 197.181)" fill="#D9D9D9"/>
<circle cx="133.123" cy="180.765" r="0.102604" transform="rotate(60 133.123 180.765)" fill="#D9D9D9"/>
<circle cx="143.822" cy="185.132" r="0.102604" transform="rotate(60 143.822 185.132)" fill="#D9D9D9" fill-opacity="0.7"/>
<circle cx="150.132" cy="188.777" r="0.0513021" transform="rotate(60 150.132 188.777)" fill="#D9D9D9" fill-opacity="0.5"/>
<circle cx="143.821" cy="174.767" r="0.0513021" transform="rotate(60 143.821 174.767)" fill="#D9D9D9"/>
<circle cx="156.809" cy="205.062" r="0.0513021" transform="rotate(60 156.809 205.062)" fill="#D9D9D9"/>
<circle cx="84.6992" cy="195.444" r="0.102604" transform="rotate(45 84.6992 195.444)" fill="#D9D9D9"/>
<circle cx="96.1621" cy="196.895" r="0.102604" transform="rotate(45 96.1621 196.895)" fill="#D9D9D9" fill-opacity="0.7"/>
<circle cx="103.2" cy="198.781" r="0.0513021" transform="rotate(45 103.2 198.781)" fill="#D9D9D9" fill-opacity="0.5"/>
<circle cx="93.4785" cy="186.883" r="0.0513021" transform="rotate(45 93.4785 186.883)" fill="#D9D9D9"/>
<circle cx="113.865" cy="212.77" r="0.0513021" transform="rotate(45 113.865 212.77)" fill="#D9D9D9"/>
<circle cx="150.807" cy="199.06" r="0.102604" transform="rotate(-165 150.807 199.06)" fill="#D9D9D9"/>
<circle cx="140.155" cy="203.535" r="0.102604" transform="rotate(-165 140.155 203.535)" fill="#D9D9D9" fill-opacity="0.7"/>
<circle cx="133.116" cy="205.42" r="0.0513021" transform="rotate(-165 133.116 205.42)" fill="#D9D9D9" fill-opacity="0.5"/>
<circle cx="147.486" cy="210.863" r="0.0513021" transform="rotate(-165 147.486 210.863)" fill="#D9D9D9"/>
<circle cx="116.879" cy="198.625" r="0.0513021" transform="rotate(-165 116.879 198.625)" fill="#D9D9D9"/>
<circle cx="124.794" cy="161.891" r="0.102604" transform="rotate(-45 124.794 161.891)" fill="#D9D9D9"/>
<circle cx="126.245" cy="150.428" r="0.102604" transform="rotate(-45 126.245 150.428)" fill="#D9D9D9" fill-opacity="0.7"/>
<circle cx="128.131" cy="143.391" r="0.0513021" transform="rotate(-45 128.131 143.391)" fill="#D9D9D9" fill-opacity="0.5"/>
<circle cx="116.233" cy="153.114" r="0.0513021" transform="rotate(-45 116.233 153.114)" fill="#D9D9D9"/>
<circle cx="142.133" cy="132.725" r="0.0513021" transform="rotate(-45 142.133 132.725)" fill="#D9D9D9"/>
<circle cx="128.41" cy="95.7876" r="0.102604" transform="rotate(105 128.41 95.7876)" fill="#D9D9D9"/>
<circle cx="132.885" cy="106.44" r="0.102604" transform="rotate(105 132.885 106.44)" fill="#D9D9D9" fill-opacity="0.7"/>
<circle cx="134.771" cy="113.478" r="0.0513021" transform="rotate(105 134.771 113.478)" fill="#D9D9D9" fill-opacity="0.5"/>
<circle cx="140.215" cy="99.1088" r="0.0513021" transform="rotate(105 140.215 99.1088)" fill="#D9D9D9"/>
<circle cx="127.976" cy="129.716" r="0.0513021" transform="rotate(105 127.976 129.716)" fill="#D9D9D9"/>
<circle cx="79.0831" cy="107.722" r="0.102604" fill="#D9D9D9"/>
<circle cx="88.2149" cy="100.644" r="0.102604" fill="#D9D9D9" fill-opacity="0.7"/>
<circle cx="94.5249" cy="97.0005" r="0.0513021" fill="#D9D9D9" fill-opacity="0.5"/>
<circle cx="79.2368" cy="95.4615" r="0.0513021" fill="#D9D9D9"/>
<circle cx="111.967" cy="99.3599" r="0.0513021" fill="#D9D9D9"/>
<circle cx="128.384" cy="63.5386" r="0.102604" transform="rotate(150 128.384 63.5386)" fill="#D9D9D9"/>
<circle cx="124.015" cy="74.2359" r="0.102604" transform="rotate(150 124.015 74.2359)" fill="#D9D9D9" fill-opacity="0.7"/>
<circle cx="120.371" cy="80.5457" r="0.0513021" transform="rotate(150 120.371 80.5457)" fill="#D9D9D9" fill-opacity="0.5"/>
<circle cx="134.381" cy="74.2351" r="0.0513021" transform="rotate(150 134.381 74.2351)" fill="#D9D9D9"/>
<circle cx="104.086" cy="87.2234" r="0.0513021" transform="rotate(150 104.086 87.2234)" fill="#D9D9D9"/>
<circle cx="14.7346" cy="104.927" r="0.102604" transform="rotate(118.859 14.7346 104.927)" fill="#D9D9D9"/>
<circle cx="16.5276" cy="116.341" r="0.102604" transform="rotate(118.859 16.5276 116.341)" fill="#D9D9D9" fill-opacity="0.7"/>
<circle cx="16.6715" cy="123.626" r="0.0513021" transform="rotate(118.859 16.6715 123.626)" fill="#D9D9D9" fill-opacity="0.5"/>
<circle cx="25.3991" cy="110.979" r="0.0513021" transform="rotate(118.859 25.3991 110.979)" fill="#D9D9D9"/>
<circle cx="6.18617" cy="137.764" r="0.0513021" transform="rotate(118.859 6.18617 137.764)" fill="#D9D9D9"/>
<circle cx="29.6381" cy="169.428" r="0.102604" transform="rotate(-91.1414 29.6381 169.428)" fill="#D9D9D9"/>
<circle cx="22.3774" cy="160.44" r="0.102604" transform="rotate(-91.1414 22.3774 160.44)" fill="#D9D9D9" fill-opacity="0.7"/>
<circle cx="18.6103" cy="154.203" r="0.0513021" transform="rotate(-91.1414 18.6103 154.203)" fill="#D9D9D9" fill-opacity="0.5"/>
<circle cx="17.376" cy="169.52" r="0.0513021" transform="rotate(-91.1414 17.376 169.52)" fill="#D9D9D9"/>
<circle cx="20.622" cy="136.717" r="0.0513021" transform="rotate(-91.1414 20.622 136.717)" fill="#D9D9D9"/>
<circle cx="79.1296" cy="179.955" r="0.102604" transform="rotate(-106.141 79.1296 179.955)" fill="#D9D9D9"/>
<circle cx="69.7907" cy="173.152" r="0.102604" transform="rotate(-106.141 69.7907 173.152)" fill="#D9D9D9" fill-opacity="0.7"/>
<circle cx="64.537" cy="168.102" r="0.0513021" transform="rotate(-106.141 64.537 168.102)" fill="#D9D9D9" fill-opacity="0.5"/>
<circle cx="67.3094" cy="183.216" r="0.0513021" transform="rotate(-106.141 67.3094 183.216)" fill="#D9D9D9"/>
<circle cx="61.9549" cy="150.692" r="0.0513021" transform="rotate(-106.141 61.9549 150.692)" fill="#D9D9D9"/>
<circle cx="22.9785" cy="144.885" r="0.102604" transform="rotate(43.8586 22.9785 144.885)" fill="#D9D9D9"/>
<circle cx="34.4687" cy="146.106" r="0.102604" transform="rotate(43.8586 34.4687 146.106)" fill="#D9D9D9" fill-opacity="0.7"/>
<circle cx="41.5425" cy="147.852" r="0.0513021" transform="rotate(43.8586 41.5425 147.852)" fill="#D9D9D9" fill-opacity="0.5"/>
<circle cx="31.5845" cy="136.151" r="0.0513021" transform="rotate(43.8586 31.5845 136.151)" fill="#D9D9D9"/>
<circle cx="52.4839" cy="161.641" r="0.0513021" transform="rotate(43.8586 52.4839 161.641)" fill="#D9D9D9"/>
<circle cx="27.808" cy="189.875" r="0.102604" transform="rotate(163.859 27.808 189.875)" fill="#D9D9D9"/>
<circle cx="21.0043" cy="199.215" r="0.102604" transform="rotate(163.859 21.0043 199.215)" fill="#D9D9D9" fill-opacity="0.7"/>
<circle cx="15.9555" cy="204.467" r="0.0513021" transform="rotate(163.859 15.9555 204.467)" fill="#D9D9D9" fill-opacity="0.5"/>
<circle cx="31.0688" cy="201.695" r="0.0513021" transform="rotate(163.859 31.0688 201.695)" fill="#D9D9D9"/>
<circle cx="9.53201" cy="216.661" r="0.0513021" transform="rotate(-46.1414 9.53201 216.661)" fill="#D9D9D9"/>
<circle cx="41.7155" cy="259.49" r="0.102604" transform="rotate(-151.141 41.7155 259.49)" fill="#D9D9D9"/>
<circle cx="30.3005" cy="261.283" r="0.102604" transform="rotate(-151.141 30.3005 261.283)" fill="#D9D9D9" fill-opacity="0.7"/>
<circle cx="23.016" cy="261.426" r="0.0513021" transform="rotate(-151.141 23.016 261.426)" fill="#D9D9D9" fill-opacity="0.5"/>
<circle cx="35.6624" cy="270.153" r="0.0513021" transform="rotate(-151.141 35.6624 270.153)" fill="#D9D9D9"/>
<circle cx="8.87827" cy="250.942" r="0.0513021" transform="rotate(-151.141 8.87827 250.942)" fill="#D9D9D9"/>
<circle cx="9.92145" cy="265.374" r="0.0513021" transform="rotate(-1.14141 9.92145 265.374)" fill="#D9D9D9"/>
<g style="mix-blend-mode:overlay" filter="url(#filter0_f_127_1286)">
<path d="M279.826 340.295L310.146 111.898C348.827 59.5186 397.411 205.986 454.356 337.268C499.912 442.294 356.985 383.047 279.826 340.295Z" fill="#F2542D"/>
<rect x="-56.3564" y="221.377" width="235.99" height="110.812" fill="#6E08B1"/>
</g>
<path d="M54.816 117.384C53.3013 117.384 51.8933 117.107 50.592 116.552C49.312 115.997 48.2027 115.229 47.264 114.248C46.3467 113.245 45.6747 112.083 45.248 110.76L48.864 109.192C49.44 110.557 50.272 111.635 51.36 112.424C52.448 113.192 53.6747 113.576 55.04 113.576C55.808 113.576 56.4693 113.459 57.024 113.224C57.6 112.968 58.0373 112.627 58.336 112.2C58.656 111.773 58.816 111.261 58.816 110.664C58.816 109.96 58.6027 109.384 58.176 108.936C57.7707 108.467 57.152 108.104 56.32 107.848L51.744 106.376C49.888 105.8 48.4907 104.936 47.552 103.784C46.6133 102.632 46.144 101.277 46.144 99.72C46.144 98.3547 46.4747 97.1493 47.136 96.104C47.8187 95.0587 48.7573 94.248 49.952 93.672C51.168 93.0747 52.5547 92.776 54.112 92.776C55.5413 92.776 56.8533 93.032 58.048 93.544C59.2427 94.0347 60.2667 94.728 61.12 95.624C61.9947 96.4987 62.6453 97.5333 63.072 98.728L59.488 100.328C59.0187 99.1333 58.3147 98.216 57.376 97.576C56.4373 96.9147 55.3493 96.584 54.112 96.584C53.3867 96.584 52.7467 96.712 52.192 96.968C51.6373 97.2027 51.2 97.544 50.88 97.992C50.5813 98.4187 50.432 98.9307 50.432 99.528C50.432 100.189 50.6453 100.776 51.072 101.288C51.4987 101.779 52.1493 102.163 53.024 102.44L57.408 103.816C59.3067 104.435 60.7253 105.288 61.664 106.376C62.624 107.464 63.104 108.808 63.104 110.408C63.104 111.773 62.752 112.979 62.048 114.024C61.344 115.069 60.3733 115.891 59.136 116.488C57.8987 117.085 56.4587 117.384 54.816 117.384ZM78.4468 117.384C76.6974 117.384 75.0654 117.075 73.5508 116.456C72.0361 115.837 70.7134 114.973 69.5828 113.864C68.4521 112.755 67.5668 111.453 66.9268 109.96C66.3081 108.445 65.9988 106.813 65.9988 105.064C65.9988 103.293 66.3081 101.661 66.9268 100.168C67.5454 98.6747 68.4201 97.3733 69.5508 96.264C70.6814 95.1547 72.0041 94.3013 73.5188 93.704C75.0334 93.0853 76.6761 92.776 78.4468 92.776C80.2174 92.776 81.8601 93.0853 83.3748 93.704C84.8894 94.3227 86.2121 95.1867 87.3428 96.296C88.4734 97.384 89.3481 98.6747 89.9668 100.168C90.6068 101.661 90.9268 103.293 90.9268 105.064C90.9268 106.813 90.6068 108.445 89.9668 109.96C89.3268 111.453 88.4414 112.755 87.3108 113.864C86.1801 114.973 84.8574 115.837 83.3428 116.456C81.8494 117.075 80.2174 117.384 78.4468 117.384ZM78.4468 113.416C79.6201 113.416 80.6974 113.213 81.6788 112.808C82.6601 112.381 83.5134 111.795 84.2388 111.048C84.9854 110.301 85.5508 109.416 85.9348 108.392C86.3401 107.368 86.5428 106.259 86.5428 105.064C86.5428 103.869 86.3401 102.771 85.9348 101.768C85.5508 100.744 84.9854 99.8587 84.2388 99.112C83.5134 98.344 82.6601 97.7573 81.6788 97.352C80.6974 96.9467 79.6201 96.744 78.4468 96.744C77.2948 96.744 76.2281 96.9467 75.2468 97.352C74.2654 97.7573 73.4014 98.344 72.6548 99.112C71.9294 99.8587 71.3641 100.744 70.9588 101.768C70.5534 102.771 70.3508 103.869 70.3508 105.064C70.3508 106.259 70.5534 107.368 70.9588 108.392C71.3641 109.416 71.9294 110.301 72.6548 111.048C73.4014 111.795 74.2654 112.381 75.2468 112.808C76.2281 113.213 77.2948 113.416 78.4468 113.416ZM83.9508 119.88L76.5268 107.464H81.0708L88.5908 119.88H83.9508ZM94.4765 117V93.16H98.8285V113.16H109.037V117H94.4765Z" fill="url(#paint1_linear_127_1286)"/>
<path d="M128.099 117.384C126.392 117.384 124.814 117.075 123.363 116.456C121.934 115.837 120.675 114.973 119.587 113.864C118.52 112.755 117.688 111.453 117.091 109.96C116.494 108.467 116.195 106.835 116.195 105.064C116.195 103.293 116.483 101.661 117.059 100.168C117.656 98.6533 118.488 97.352 119.555 96.264C120.643 95.1547 121.912 94.3013 123.363 93.704C124.814 93.0853 126.392 92.776 128.099 92.776C129.806 92.776 131.331 93.064 132.675 93.64C134.04 94.216 135.192 94.984 136.131 95.944C137.07 96.8827 137.742 97.9173 138.147 99.048L134.243 100.872C133.795 99.6773 133.038 98.696 131.971 97.928C130.904 97.1387 129.614 96.744 128.099 96.744C126.606 96.744 125.283 97.096 124.131 97.8C123 98.504 122.115 99.4747 121.475 100.712C120.856 101.949 120.547 103.4 120.547 105.064C120.547 106.728 120.856 108.189 121.475 109.448C122.115 110.685 123 111.656 124.131 112.36C125.283 113.064 126.606 113.416 128.099 113.416C129.614 113.416 130.904 113.032 131.971 112.264C133.038 111.475 133.795 110.483 134.243 109.288L138.147 111.112C137.742 112.243 137.07 113.288 136.131 114.248C135.192 115.187 134.04 115.944 132.675 116.52C131.331 117.096 129.806 117.384 128.099 117.384ZM145.976 117.384C144.76 117.384 143.704 117.181 142.808 116.776C141.912 116.371 141.218 115.795 140.728 115.048C140.237 114.28 139.992 113.395 139.992 112.392C139.992 111.432 140.205 110.579 140.632 109.832C141.058 109.064 141.72 108.424 142.616 107.912C143.512 107.4 144.642 107.037 146.008 106.824L151.704 105.896V109.096L146.808 109.928C145.976 110.077 145.357 110.344 144.952 110.728C144.546 111.112 144.344 111.613 144.344 112.232C144.344 112.829 144.568 113.309 145.016 113.672C145.485 114.013 146.061 114.184 146.744 114.184C147.618 114.184 148.386 114.003 149.048 113.64C149.73 113.256 150.253 112.733 150.616 112.072C151 111.411 151.192 110.685 151.192 109.896V105.416C151.192 104.669 150.893 104.051 150.296 103.56C149.72 103.048 148.952 102.792 147.992 102.792C147.096 102.792 146.296 103.037 145.592 103.528C144.909 103.997 144.408 104.627 144.088 105.416L140.664 103.752C141.005 102.835 141.538 102.045 142.264 101.384C143.01 100.701 143.885 100.168 144.888 99.784C145.89 99.4 146.978 99.208 148.152 99.208C149.581 99.208 150.84 99.4747 151.928 100.008C153.016 100.52 153.858 101.245 154.456 102.184C155.074 103.101 155.384 104.179 155.384 105.416V117H151.416V114.024L152.312 113.96C151.864 114.707 151.33 115.336 150.712 115.848C150.093 116.339 149.389 116.723 148.6 117C147.81 117.256 146.936 117.384 145.976 117.384ZM165.562 117.384C163.706 117.384 162.085 116.947 160.698 116.072C159.333 115.176 158.394 113.971 157.882 112.456L161.018 110.952C161.466 111.933 162.085 112.701 162.874 113.256C163.685 113.811 164.581 114.088 165.562 114.088C166.33 114.088 166.938 113.917 167.386 113.576C167.834 113.235 168.058 112.787 168.058 112.232C168.058 111.891 167.962 111.613 167.77 111.4C167.6 111.165 167.354 110.973 167.034 110.824C166.736 110.653 166.405 110.515 166.042 110.408L163.194 109.608C161.722 109.181 160.602 108.531 159.834 107.656C159.088 106.781 158.714 105.747 158.714 104.552C158.714 103.485 158.981 102.557 159.514 101.768C160.069 100.957 160.826 100.328 161.786 99.88C162.768 99.432 163.888 99.208 165.146 99.208C166.789 99.208 168.24 99.6027 169.498 100.392C170.757 101.181 171.653 102.291 172.186 103.72L168.986 105.224C168.688 104.435 168.186 103.805 167.482 103.336C166.778 102.867 165.989 102.632 165.114 102.632C164.41 102.632 163.856 102.792 163.45 103.112C163.045 103.432 162.842 103.848 162.842 104.36C162.842 104.68 162.928 104.957 163.098 105.192C163.269 105.427 163.504 105.619 163.802 105.768C164.122 105.917 164.485 106.056 164.89 106.184L167.674 107.016C169.104 107.443 170.202 108.083 170.97 108.936C171.76 109.789 172.154 110.835 172.154 112.072C172.154 113.117 171.877 114.045 171.322 114.856C170.768 115.645 170 116.264 169.018 116.712C168.037 117.16 166.885 117.384 165.562 117.384ZM183.312 117.384C181.52 117.384 179.952 116.979 178.608 116.168C177.264 115.357 176.218 114.259 175.472 112.872C174.725 111.485 174.352 109.949 174.352 108.264C174.352 106.515 174.725 104.968 175.472 103.624C176.24 102.259 177.274 101.181 178.576 100.392C179.898 99.6027 181.37 99.208 182.992 99.208C184.357 99.208 185.552 99.432 186.576 99.88C187.621 100.328 188.506 100.947 189.232 101.736C189.957 102.525 190.512 103.432 190.896 104.456C191.28 105.459 191.472 106.547 191.472 107.72C191.472 108.019 191.45 108.328 191.408 108.648C191.386 108.968 191.333 109.245 191.248 109.48H177.808V106.28H188.88L186.896 107.784C187.088 106.803 187.034 105.928 186.736 105.16C186.458 104.392 185.989 103.784 185.328 103.336C184.688 102.888 183.909 102.664 182.992 102.664C182.117 102.664 181.338 102.888 180.656 103.336C179.973 103.763 179.45 104.403 179.088 105.256C178.746 106.088 178.618 107.101 178.704 108.296C178.618 109.363 178.757 110.312 179.12 111.144C179.504 111.955 180.058 112.584 180.784 113.032C181.53 113.48 182.384 113.704 183.344 113.704C184.304 113.704 185.114 113.501 185.776 113.096C186.458 112.691 186.992 112.147 187.376 111.464L190.768 113.128C190.426 113.96 189.893 114.696 189.168 115.336C188.442 115.976 187.578 116.477 186.576 116.84C185.594 117.203 184.506 117.384 183.312 117.384ZM208.561 117.384C207.046 117.384 205.638 117.107 204.337 116.552C203.057 115.997 201.948 115.229 201.009 114.248C200.092 113.245 199.42 112.083 198.993 110.76L202.609 109.192C203.185 110.557 204.017 111.635 205.105 112.424C206.193 113.192 207.42 113.576 208.785 113.576C209.553 113.576 210.214 113.459 210.769 113.224C211.345 112.968 211.782 112.627 212.081 112.2C212.401 111.773 212.561 111.261 212.561 110.664C212.561 109.96 212.348 109.384 211.921 108.936C211.516 108.467 210.897 108.104 210.065 107.848L205.489 106.376C203.633 105.8 202.236 104.936 201.297 103.784C200.358 102.632 199.889 101.277 199.889 99.72C199.889 98.3547 200.22 97.1493 200.881 96.104C201.564 95.0587 202.502 94.248 203.697 93.672C204.913 93.0747 206.3 92.776 207.857 92.776C209.286 92.776 210.598 93.032 211.793 93.544C212.988 94.0347 214.012 94.728 214.865 95.624C215.74 96.4987 216.39 97.5333 216.817 98.728L213.233 100.328C212.764 99.1333 212.06 98.216 211.121 97.576C210.182 96.9147 209.094 96.584 207.857 96.584C207.132 96.584 206.492 96.712 205.937 96.968C205.382 97.2027 204.945 97.544 204.625 97.992C204.326 98.4187 204.177 98.9307 204.177 99.528C204.177 100.189 204.39 100.776 204.817 101.288C205.244 101.779 205.894 102.163 206.769 102.44L211.153 103.816C213.052 104.435 214.47 105.288 215.409 106.376C216.369 107.464 216.849 108.808 216.849 110.408C216.849 111.773 216.497 112.979 215.793 114.024C215.089 115.069 214.118 115.891 212.881 116.488C211.644 117.085 210.204 117.384 208.561 117.384ZM228.032 117.192C226.069 117.192 224.544 116.659 223.456 115.592C222.389 114.504 221.856 112.979 221.856 111.016V103.336H218.848V99.592H219.168C220.021 99.592 220.682 99.368 221.152 98.92C221.621 98.472 221.856 97.8213 221.856 96.968V95.624H226.048V99.592H230.048V103.336H226.048V110.792C226.048 111.368 226.144 111.859 226.336 112.264C226.549 112.669 226.869 112.979 227.296 113.192C227.744 113.405 228.309 113.512 228.992 113.512C229.141 113.512 229.312 113.501 229.504 113.48C229.717 113.459 229.92 113.437 230.112 113.416V117C229.813 117.043 229.472 117.085 229.088 117.128C228.704 117.171 228.352 117.192 228.032 117.192ZM239.202 117.384C237.858 117.384 236.685 117.085 235.682 116.488C234.701 115.891 233.944 115.059 233.41 113.992C232.898 112.925 232.642 111.677 232.642 110.248V99.592H236.834V109.896C236.834 110.621 236.973 111.261 237.25 111.816C237.549 112.349 237.965 112.776 238.498 113.096C239.053 113.395 239.672 113.544 240.354 113.544C241.037 113.544 241.645 113.395 242.178 113.096C242.712 112.776 243.128 112.339 243.426 111.784C243.725 111.229 243.874 110.568 243.874 109.8V99.592H248.066V117H244.098V113.576L244.45 114.184C244.045 115.251 243.373 116.051 242.434 116.584C241.517 117.117 240.44 117.384 239.202 117.384ZM259.739 117.384C258.054 117.384 256.55 116.989 255.227 116.2C253.905 115.389 252.859 114.291 252.091 112.904C251.323 111.517 250.939 109.981 250.939 108.296C250.939 106.589 251.323 105.053 252.091 103.688C252.859 102.323 253.905 101.235 255.227 100.424C256.571 99.6133 258.065 99.208 259.707 99.208C261.03 99.208 262.203 99.4747 263.227 100.008C264.273 100.52 265.094 101.245 265.691 102.184L265.051 103.048V92.776H269.243V117H265.275V113.64L265.723 114.472C265.126 115.411 264.294 116.136 263.227 116.648C262.161 117.139 260.998 117.384 259.739 117.384ZM260.187 113.544C261.147 113.544 261.99 113.32 262.715 112.872C263.441 112.424 264.006 111.805 264.411 111.016C264.838 110.227 265.051 109.32 265.051 108.296C265.051 107.293 264.838 106.397 264.411 105.608C264.006 104.797 263.441 104.168 262.715 103.72C261.99 103.272 261.147 103.048 260.187 103.048C259.249 103.048 258.406 103.283 257.659 103.752C256.913 104.2 256.326 104.819 255.899 105.608C255.494 106.376 255.291 107.272 255.291 108.296C255.291 109.32 255.494 110.227 255.899 111.016C256.326 111.805 256.913 112.424 257.659 112.872C258.406 113.32 259.249 113.544 260.187 113.544ZM274.935 124.04C274.466 124.04 274.007 123.997 273.559 123.912C273.111 123.848 272.706 123.72 272.343 123.528V120.04C272.621 120.104 272.951 120.168 273.335 120.232C273.741 120.296 274.114 120.328 274.455 120.328C275.415 120.328 276.109 120.104 276.535 119.656C276.983 119.229 277.378 118.653 277.719 117.928L278.871 115.24L278.807 118.76L271.223 99.592H275.735L281.047 113.736H279.447L284.727 99.592H289.271L281.687 118.76C281.239 119.869 280.695 120.819 280.055 121.608C279.415 122.397 278.669 122.995 277.815 123.4C276.983 123.827 276.023 124.04 274.935 124.04ZM46.304 155V131.16H56.352C57.9307 131.16 59.2747 131.437 60.384 131.992C61.5147 132.525 62.3787 133.293 62.976 134.296C63.5947 135.277 63.904 136.472 63.904 137.88C63.904 138.968 63.6053 139.992 63.008 140.952C62.432 141.891 61.504 142.669 60.224 143.288V141.272C61.3973 141.72 62.3253 142.275 63.008 142.936C63.6907 143.597 64.1707 144.333 64.448 145.144C64.7253 145.955 64.864 146.808 64.864 147.704C64.864 149.987 64.1067 151.779 62.592 153.08C61.0987 154.36 59.0187 155 56.352 155H46.304ZM50.656 151.16H56.8C57.9307 151.16 58.8267 150.851 59.488 150.232C60.1707 149.592 60.512 148.749 60.512 147.704C60.512 146.659 60.1707 145.816 59.488 145.176C58.8267 144.536 57.9307 144.216 56.8 144.216H50.656V151.16ZM50.656 140.408H56.576C57.472 140.408 58.1867 140.152 58.72 139.64C59.2533 139.107 59.52 138.424 59.52 137.592C59.52 136.76 59.2533 136.099 58.72 135.608C58.1867 135.117 57.472 134.872 56.576 134.872H50.656V140.408ZM76.269 155.384C74.5623 155.384 73.005 154.989 71.597 154.2C70.2103 153.411 69.101 152.333 68.269 150.968C67.4583 149.603 67.053 148.045 67.053 146.296C67.053 144.547 67.4583 142.989 68.269 141.624C69.101 140.259 70.2103 139.181 71.597 138.392C72.9837 137.603 74.541 137.208 76.269 137.208C77.9757 137.208 79.5223 137.603 80.909 138.392C82.2957 139.181 83.3943 140.259 84.205 141.624C85.037 142.968 85.453 144.525 85.453 146.296C85.453 148.045 85.037 149.603 84.205 150.968C83.373 152.333 82.2637 153.411 80.877 154.2C79.4903 154.989 77.9543 155.384 76.269 155.384ZM76.269 151.544C77.2077 151.544 78.029 151.32 78.733 150.872C79.4583 150.424 80.0237 149.805 80.429 149.016C80.8557 148.205 81.069 147.299 81.069 146.296C81.069 145.272 80.8557 144.376 80.429 143.608C80.0237 142.819 79.4583 142.2 78.733 141.752C78.029 141.283 77.2077 141.048 76.269 141.048C75.309 141.048 74.4663 141.283 73.741 141.752C73.0157 142.2 72.4397 142.819 72.013 143.608C71.6077 144.376 71.405 145.272 71.405 146.296C71.405 147.299 71.6077 148.205 72.013 149.016C72.4397 149.805 73.0157 150.424 73.741 150.872C74.4663 151.32 75.309 151.544 76.269 151.544ZM96.824 155.384C95.1173 155.384 93.56 154.989 92.152 154.2C90.7653 153.411 89.656 152.333 88.824 150.968C88.0133 149.603 87.608 148.045 87.608 146.296C87.608 144.547 88.0133 142.989 88.824 141.624C89.656 140.259 90.7653 139.181 92.152 138.392C93.5387 137.603 95.096 137.208 96.824 137.208C98.5307 137.208 100.077 137.603 101.464 138.392C102.851 139.181 103.949 140.259 104.76 141.624C105.592 142.968 106.008 144.525 106.008 146.296C106.008 148.045 105.592 149.603 104.76 150.968C103.928 152.333 102.819 153.411 101.432 154.2C100.045 154.989 98.5093 155.384 96.824 155.384ZM96.824 151.544C97.7627 151.544 98.584 151.32 99.288 150.872C100.013 150.424 100.579 149.805 100.984 149.016C101.411 148.205 101.624 147.299 101.624 146.296C101.624 145.272 101.411 144.376 100.984 143.608C100.579 142.819 100.013 142.2 99.288 141.752C98.584 141.283 97.7627 141.048 96.824 141.048C95.864 141.048 95.0213 141.283 94.296 141.752C93.5707 142.2 92.9947 142.819 92.568 143.608C92.1627 144.376 91.96 145.272 91.96 146.296C91.96 147.299 92.1627 148.205 92.568 149.016C92.9947 149.805 93.5707 150.424 94.296 150.872C95.0213 151.32 95.864 151.544 96.824 151.544ZM108.867 155V130.776H113.059V146.648L111.459 146.168L119.651 137.592H124.867L118.435 144.6L124.995 155H120.195L114.499 145.976L116.995 145.464L111.747 151.096L113.059 148.536V155H108.867Z" fill="white"/>
<path d="M403.502 235.424C421.453 235.424 436.005 230.799 436.005 225.094C436.005 219.389 421.453 214.764 403.502 214.764C385.552 214.764 371 219.389 371 225.094C371 230.799 385.552 235.424 403.502 235.424Z" fill="#142A42"/>
<path d="M588 225.094C588 230.799 573.448 235.424 555.497 235.424C537.546 235.424 522.994 230.8 522.994 225.094C522.994 219.388 537.546 214.764 555.497 214.764C573.448 214.764 588 219.389 588 225.094Z" fill="#142A42"/>
<path d="M519.577 251.565C519.577 257.698 501.338 262.669 478.84 262.669C456.341 262.669 438.102 257.698 438.102 251.565C438.102 245.434 456.341 240.463 478.84 240.463C501.338 240.463 519.577 245.434 519.577 251.565Z" fill="#142A42"/>
<path d="M522.708 27.7929V22.6049C522.708 21.719 522.08 21.002 521.307 21.002H497.523C496.749 21.002 496.548 21.5831 496.126 22.6049L494.099 27.6888H421.709C418.457 27.6888 415.82 30.7086 415.82 34.434V103.836C415.82 107.561 418.457 110.581 421.709 110.581H435.827H454.964H521.805C525.057 110.581 527.694 107.561 527.694 103.836V34.4334C527.693 31.063 525.527 28.2927 522.708 27.7929Z" fill="#41B4E0"/>
<path d="M522.708 27.7688V22.6049C522.708 21.719 522.081 21.002 521.308 21.002H508.29C507.936 23.2381 507.197 25.2437 506.447 27.6888L522.708 27.7688Z" fill="#13B0E0"/>
<path d="M521.307 21H514.875C514.883 21.0883 514.901 21.1734 514.906 21.2642C514.944 22.1755 514.427 27.4315 514.287 27.6875L522.708 27.7681V22.6042C522.707 21.7176 522.08 21 521.307 21Z" fill="#00A4D4"/>
<path d="M521.804 27.6875H506.446C494.675 60.5907 466.235 84.2648 433.68 84.2648C427.549 84.2648 421.575 83.3998 415.819 81.8184V103.834C415.819 107.559 418.456 110.58 421.708 110.58H435.826H454.963H521.804C525.056 110.58 527.693 107.559 527.693 103.834V34.4327C527.692 30.7073 525.056 27.6875 521.804 27.6875Z" fill="#13B0E0"/>
<path d="M521.804 27.6875H514.287C506.065 67.2108 474.576 97.3342 437.851 97.3342C430.226 97.3342 422.831 96.0139 415.819 93.6037V103.834C415.819 107.56 418.456 110.58 421.708 110.58H435.826H454.963H521.804C525.056 110.58 527.693 107.56 527.693 103.834V34.4327C527.692 30.7073 525.056 27.6875 521.804 27.6875Z" fill="#00A4D4"/>
<path d="M539.112 35.5837L540.145 30.8841C540.319 30.0813 539.837 29.4316 539.064 29.4316H515.279C514.507 29.4316 514.188 29.9575 513.561 30.8841L510.526 35.4891H438.136C434.884 35.4891 431.648 38.225 430.908 41.5993L417.113 104.469C416.375 107.843 418.41 110.579 421.662 110.579H435.778H454.914H521.759C525.01 110.579 528.248 107.843 528.987 104.469L542.782 41.5993C543.451 38.5458 541.834 36.0365 539.112 35.5837Z" fill="#65BAE1"/>
<path d="M538.9 35.5583H539.119L540.145 30.8821C540.319 30.0794 539.838 29.4297 539.064 29.4297H526.046C525.25 31.455 524.11 33.272 522.875 35.4871C504.564 65.2936 471.42 86.7386 438.864 86.7386C432.735 86.7386 426.93 85.9555 421.491 84.524L417.114 104.467C416.376 107.841 418.411 110.577 421.663 110.577H435.779H454.914H521.759C525.01 110.577 528.248 107.841 528.987 104.467L542.782 41.5973C543.468 38.4657 541.745 35.9139 538.9 35.5583Z" fill="#56B7E1"/>
<path d="M492.862 40.2969H442.56C439.309 40.2969 436.074 43.0341 435.333 46.4077L429.71 72.0391C446.953 54.204 469.821 42.0904 492.862 40.2969Z" fill="#91C4E3"/>
<path d="M538.888 35.559L539.118 35.5602L540.144 30.8841C540.318 30.0813 539.837 29.4316 539.063 29.4316H532.631C532.623 29.511 532.623 29.5885 532.611 29.6698C532.467 30.496 530.906 35.2573 530.714 35.4891C514.638 71.2921 477.165 98.5798 440.436 98.5798C432.811 98.5798 425.683 97.3846 419.146 95.2018L417.113 104.47C416.375 107.843 418.41 110.58 421.662 110.58H435.778H454.914H521.759C525.01 110.58 528.248 107.843 528.987 104.47L542.782 41.5999C543.467 38.4632 541.743 35.9095 538.888 35.559Z" fill="#41B4E0"/>
<path d="M430.201 224.044C430.201 226.512 418.321 228.514 403.667 228.514C389.013 228.514 377.135 226.512 377.135 224.044C377.135 223.35 377.135 213.256 377.135 213.256H430.201C430.201 213.256 430.201 221.573 430.201 224.044Z" fill="#8AA3B6"/>
<path d="M421.148 213.256C421.148 215.644 421.148 218.341 421.148 219.575C421.148 222.045 409.27 224.046 394.618 224.046C387.918 224.046 381.805 223.625 377.135 222.936C377.135 223.519 377.135 223.923 377.135 224.044C377.135 226.512 389.013 228.514 403.667 228.514C418.321 228.514 430.201 226.512 430.201 224.044C430.201 221.573 430.201 213.256 430.201 213.256H421.148Z" fill="#809EB2"/>
<path d="M425.9 213.256C425.9 215.9 425.9 220.176 425.9 221.83C425.9 224.299 414.022 226.303 399.367 226.303C390.08 226.303 381.909 225.498 377.171 224.28C377.899 226.638 389.483 228.515 403.666 228.515C418.32 228.515 430.2 226.512 430.2 224.044C430.2 221.574 430.2 213.257 430.2 213.257L425.9 213.256Z" fill="#7094A9"/>
<path d="M430.201 213.256C430.201 215.726 418.321 217.728 403.667 217.728C389.013 217.728 377.135 215.726 377.135 213.256C377.135 210.785 389.013 208.783 403.667 208.783C418.321 208.783 430.201 210.785 430.201 213.256Z" fill="#A0B0C1"/>
<path opacity="0.1" d="M414.507 212.195C414.507 213.445 407.293 214.455 398.393 214.455C389.495 214.455 382.279 213.445 382.279 212.195C382.279 210.95 389.495 209.938 398.393 209.938C407.292 209.938 414.507 210.949 414.507 212.195Z" fill="white"/>
<path opacity="0.2" d="M401.886 212.196C401.886 213.037 398.631 213.718 394.618 213.718C390.602 213.718 387.349 213.037 387.349 212.196C387.349 211.357 390.602 210.676 394.618 210.676C398.631 210.676 401.886 211.357 401.886 212.196Z" fill="white"/>
<path d="M402.771 208.787C402.307 208.787 401.843 208.789 401.383 208.794C413.337 208.901 422.816 210.418 422.816 212.273C422.816 214.2 412.617 215.761 400.036 215.761C388.29 215.761 378.621 214.4 377.391 212.652C377.303 212.797 377.256 212.947 377.256 213.096C377.256 215.476 388.678 217.404 402.771 217.404C416.862 217.404 428.286 215.476 428.286 213.096C428.286 210.717 416.862 208.787 402.771 208.787Z" fill="#86A1B4"/>
<path d="M428.405 210.594C428.405 212.897 417.329 214.764 403.666 214.764C390.004 214.764 378.93 212.897 378.93 210.594C378.93 209.948 378.93 200.537 378.93 200.537H428.405C428.405 200.537 428.405 208.293 428.405 210.594Z" fill="#4C8FBE"/>
<path d="M419.966 200.537C419.966 202.763 419.966 205.277 419.966 206.429C419.966 208.732 408.892 210.596 395.227 210.596C388.984 210.596 383.282 210.206 378.93 209.563C378.93 210.105 378.93 210.484 378.93 210.595C378.93 212.897 390.004 214.765 403.666 214.765C417.328 214.765 428.405 212.897 428.405 210.595C428.405 208.293 428.405 200.538 428.405 200.538H419.966V200.537Z" fill="#2F8BBE"/>
<path d="M424.397 200.537C424.397 203.002 424.397 206.99 424.397 208.532C424.397 210.834 413.322 212.7 399.656 212.7C390.999 212.7 383.383 211.95 378.962 210.815C379.643 213.014 390.442 214.765 403.666 214.765C417.329 214.765 428.405 212.897 428.405 210.595C428.405 208.293 428.405 200.538 428.405 200.538H424.397V200.537Z" fill="#087EAE"/>
<path d="M428.405 200.536C428.405 202.838 417.329 204.705 403.666 204.705C390.004 204.705 378.93 202.838 378.93 200.536C378.93 198.234 390.004 196.367 403.666 196.367C417.328 196.367 428.405 198.234 428.405 200.536Z" fill="#A0B0C1"/>
<path opacity="0.1" d="M413.774 199.548C413.774 200.712 407.047 201.655 398.749 201.655C390.452 201.655 383.725 200.712 383.725 199.548C383.725 198.385 390.452 197.443 398.749 197.443C407.048 197.443 413.774 198.385 413.774 199.548Z" fill="white"/>
<path opacity="0.2" d="M402.005 199.546C402.005 200.33 398.97 200.965 395.227 200.965C391.486 200.965 388.45 200.33 388.45 199.546C388.45 198.763 391.486 198.129 395.227 198.129C398.97 198.129 402.005 198.763 402.005 199.546Z" fill="white"/>
<path d="M402.832 196.369C402.396 196.369 401.967 196.371 401.537 196.375C412.684 196.475 421.522 197.889 421.522 199.62C421.522 201.415 412.011 202.87 400.282 202.87C389.33 202.87 380.315 201.601 379.17 199.971C379.086 200.107 379.044 200.245 379.044 200.386C379.044 202.604 389.694 204.404 402.833 204.404C415.97 204.404 426.62 202.604 426.62 200.386C426.62 198.168 415.968 196.369 402.832 196.369Z" fill="#86A1B4"/>
<path d="M430.201 205.647C430.201 208.117 418.321 210.118 403.667 210.118C389.013 210.118 377.135 208.117 377.135 205.647C377.135 204.954 377.135 194.861 377.135 194.861H430.201C430.201 194.861 430.201 203.178 430.201 205.647Z" fill="#8AA3B6"/>
<path d="M421.148 194.861C421.148 197.249 421.148 199.944 421.148 201.179C421.148 203.65 409.27 205.651 394.618 205.651C387.918 205.651 381.805 205.231 377.135 204.542C377.135 205.122 377.135 205.528 377.135 205.648C377.135 208.118 389.013 210.119 403.667 210.119C418.321 210.119 430.201 208.117 430.201 205.648C430.201 203.179 430.201 194.862 430.201 194.862L421.148 194.861Z" fill="#809EB2"/>
<path d="M425.9 194.861C425.9 197.505 425.9 201.781 425.9 203.436C425.9 205.905 414.022 207.907 399.367 207.907C390.08 207.907 381.909 207.102 377.171 205.884C377.899 208.244 389.483 210.119 403.666 210.119C418.32 210.119 430.2 208.117 430.2 205.648C430.2 203.179 430.2 194.862 430.2 194.862L425.9 194.861Z" fill="#7094A9"/>
<path d="M430.201 194.862C430.201 197.33 418.321 199.333 403.667 199.333C389.013 199.333 377.135 197.33 377.135 194.862C377.135 192.391 389.013 190.391 403.667 190.391C418.321 190.391 430.201 192.392 430.201 194.862Z" fill="#A0B0C1"/>
<path opacity="0.1" d="M414.507 193.801C414.507 195.048 407.293 196.06 398.393 196.06C389.495 196.06 382.279 195.048 382.279 193.801C382.279 192.553 389.495 191.543 398.393 191.543C407.292 191.543 414.507 192.553 414.507 193.801Z" fill="white"/>
<path opacity="0.2" d="M401.886 193.8C401.886 194.641 398.631 195.322 394.618 195.322C390.602 195.322 387.349 194.641 387.349 193.8C387.349 192.961 390.602 192.279 394.618 192.279C398.631 192.279 401.886 192.961 401.886 193.8Z" fill="white"/>
<path d="M402.771 190.393C402.307 190.393 401.843 190.395 401.383 190.399C413.337 190.508 422.816 192.023 422.816 193.879C422.816 195.805 412.617 197.365 400.036 197.365C388.29 197.365 378.621 196.004 377.391 194.258C377.303 194.403 377.256 194.552 377.256 194.704C377.256 197.082 388.678 199.012 402.771 199.012C416.862 199.012 428.286 197.081 428.286 194.704C428.286 192.322 416.862 190.393 402.771 190.393Z" fill="#86A1B4"/>
<path d="M428.405 192.2C428.405 194.502 417.329 196.369 403.666 196.369C390.004 196.369 378.93 194.503 378.93 192.2C378.93 191.553 378.93 182.143 378.93 182.143H428.405C428.405 182.143 428.405 189.897 428.405 192.2Z" fill="#4C8FBE"/>
<path d="M419.966 182.143C419.966 184.369 419.966 186.882 419.966 188.035C419.966 190.337 408.892 192.204 395.227 192.204C388.984 192.204 383.282 191.813 378.93 191.17C378.93 191.711 378.93 192.091 378.93 192.201C378.93 194.503 390.004 196.37 403.666 196.37C417.328 196.37 428.405 194.503 428.405 192.201C428.405 189.898 428.405 182.143 428.405 182.143H419.966V182.143Z" fill="#2F8BBE"/>
<path d="M424.397 182.141C424.397 184.608 424.397 188.595 424.397 190.136C424.397 192.438 413.322 194.306 399.656 194.306C390.999 194.306 383.383 193.554 378.962 192.418C379.643 194.619 390.442 196.367 403.666 196.367C417.329 196.367 428.405 194.501 428.405 192.198C428.405 189.895 428.405 182.141 428.405 182.141H424.397V182.141Z" fill="#087EAE"/>
<path d="M428.405 182.141C428.405 184.444 417.329 186.31 403.666 186.31C390.004 186.31 378.93 184.444 378.93 182.141C378.93 179.84 390.004 177.973 403.666 177.973C417.328 177.973 428.405 179.84 428.405 182.141Z" fill="#A0B0C1"/>
<path opacity="0.1" d="M413.774 181.154C413.774 182.317 407.047 183.26 398.749 183.26C390.452 183.26 383.725 182.317 383.725 181.154C383.725 179.99 390.452 179.047 398.749 179.047C407.048 179.047 413.774 179.989 413.774 181.154Z" fill="white"/>
<path opacity="0.2" d="M402.005 181.152C402.005 181.937 398.97 182.571 395.227 182.571C391.486 182.571 388.45 181.936 388.45 181.152C388.45 180.368 391.486 179.734 395.227 179.734C398.97 179.734 402.005 180.368 402.005 181.152Z" fill="white"/>
<path d="M402.832 177.975C402.396 177.975 401.967 177.977 401.537 177.981C412.684 178.08 421.522 179.496 421.522 181.224C421.522 183.021 412.011 184.477 400.282 184.477C389.33 184.477 380.315 183.207 379.17 181.576C379.086 181.712 379.044 181.853 379.044 181.992C379.044 184.212 389.694 186.009 402.833 186.009C415.97 186.009 426.62 184.212 426.62 181.992C426.62 179.773 415.968 177.975 402.832 177.975Z" fill="#86A1B4"/>
<path d="M430.201 188.024C430.201 190.493 418.321 192.495 403.667 192.495C389.013 192.495 377.135 190.493 377.135 188.024C377.135 187.33 377.135 177.239 377.135 177.239H430.201C430.201 177.239 430.201 185.554 430.201 188.024Z" fill="#8AA3B6"/>
<path d="M421.148 177.239C421.148 179.625 421.148 182.321 421.148 183.556C421.148 186.024 409.27 188.027 394.618 188.027C387.918 188.027 381.805 187.607 377.135 186.917C377.135 187.498 377.135 187.904 377.135 188.024C377.135 190.493 389.013 192.495 403.667 192.495C418.321 192.495 430.201 190.493 430.201 188.024C430.201 185.554 430.201 177.239 430.201 177.239H421.148Z" fill="#809EB2"/>
<path d="M425.9 177.238C425.9 179.882 425.9 184.157 425.9 185.811C425.9 188.282 414.022 190.282 399.367 190.282C390.08 190.282 381.909 189.478 377.171 188.259C377.899 190.62 389.483 192.495 403.666 192.495C418.32 192.495 430.2 190.493 430.2 188.024C430.2 185.554 430.2 177.239 430.2 177.239H425.9V177.238Z" fill="#7094A9"/>
<path d="M430.201 177.239C430.201 179.708 418.321 181.708 403.667 181.708C389.013 181.708 377.135 179.708 377.135 177.239C377.135 174.768 389.013 172.766 403.667 172.766C418.321 172.766 430.201 174.769 430.201 177.239Z" fill="#A0B0C1"/>
<path opacity="0.1" d="M414.507 176.177C414.507 177.424 407.293 178.435 398.393 178.435C389.495 178.435 382.279 177.424 382.279 176.177C382.279 174.93 389.495 173.918 398.393 173.918C407.292 173.919 414.507 174.931 414.507 176.177Z" fill="white"/>
<path opacity="0.2" d="M401.886 176.177C401.886 177.018 398.631 177.699 394.618 177.699C390.602 177.699 387.349 177.018 387.349 176.177C387.349 175.338 390.602 174.656 394.618 174.656C398.631 174.657 401.886 175.338 401.886 176.177Z" fill="white"/>
<path d="M402.771 172.768C402.307 172.768 401.843 172.769 401.383 172.774C413.337 172.881 422.816 174.397 422.816 176.254C422.816 178.18 412.617 179.741 400.036 179.741C388.29 179.741 378.621 178.379 377.391 176.631C377.303 176.777 377.256 176.927 377.256 177.077C377.256 179.456 388.678 181.384 402.771 181.384C416.862 181.384 428.286 179.456 428.286 177.077C428.286 174.696 416.862 172.768 402.771 172.768Z" fill="#86A1B4"/>
<path d="M428.405 175.711C428.405 178.014 417.329 179.88 403.666 179.88C390.004 179.88 378.93 178.014 378.93 175.711C378.93 175.064 378.93 165.654 378.93 165.654H428.405C428.405 165.654 428.405 173.407 428.405 175.711Z" fill="#4C8FBE"/>
<path d="M419.966 165.654C419.966 167.881 419.966 170.394 419.966 171.545C419.966 173.847 408.892 175.715 395.227 175.715C388.984 175.715 383.282 175.323 378.93 174.679C378.93 175.221 378.93 175.598 378.93 175.711C378.93 178.014 390.004 179.88 403.666 179.88C417.328 179.88 428.405 178.014 428.405 175.711C428.405 173.407 428.405 165.654 428.405 165.654H419.966Z" fill="#2F8BBE"/>
<path d="M424.397 165.654C424.397 168.119 424.397 172.105 424.397 173.647C424.397 175.949 413.322 177.816 399.656 177.816C390.999 177.816 383.383 177.067 378.962 175.931C379.643 178.13 390.442 179.88 403.666 179.88C417.329 179.88 428.405 178.014 428.405 175.711C428.405 173.407 428.405 165.654 428.405 165.654H424.397Z" fill="#087EAE"/>
<path d="M428.405 165.653C428.405 167.956 417.329 169.822 403.666 169.822C390.004 169.822 378.93 167.955 378.93 165.653C378.93 163.351 390.004 161.484 403.666 161.484C417.328 161.484 428.405 163.35 428.405 165.653Z" fill="#A0B0C1"/>
<path opacity="0.1" d="M413.774 164.663C413.774 165.827 407.047 166.771 398.749 166.771C390.452 166.771 383.725 165.827 383.725 164.663C383.725 163.501 390.452 162.558 398.749 162.558C407.048 162.558 413.774 163.501 413.774 164.663Z" fill="white"/>
<path opacity="0.2" d="M402.005 164.662C402.005 165.448 398.97 166.081 395.227 166.081C391.486 166.081 388.45 165.447 388.45 164.662C388.45 163.879 391.486 163.246 395.227 163.246C398.97 163.246 402.005 163.879 402.005 164.662Z" fill="white"/>
<path d="M402.832 161.486C402.396 161.486 401.967 161.488 401.537 161.494C412.684 161.593 421.522 163.007 421.522 164.737C421.522 166.531 412.011 167.988 400.282 167.988C389.33 167.988 380.315 166.717 379.17 165.089C379.086 165.224 379.044 165.364 379.044 165.503C379.044 167.723 389.694 169.521 402.833 169.521C415.97 169.521 426.62 167.722 426.62 165.503C426.62 163.284 415.968 161.486 402.832 161.486Z" fill="#86A1B4"/>
<path d="M430.201 171.535C430.201 174.004 418.321 176.007 403.667 176.007C389.013 176.007 377.135 174.004 377.135 171.535C377.135 170.843 377.135 160.75 377.135 160.75H430.201C430.201 160.75 430.201 169.066 430.201 171.535Z" fill="#8AA3B6"/>
<path d="M421.148 160.75C421.148 163.137 421.148 165.832 421.148 167.067C421.148 169.538 409.27 171.538 394.618 171.538C387.918 171.538 381.805 171.118 377.135 170.43C377.135 171.011 377.135 171.416 377.135 171.536C377.135 174.005 389.013 176.007 403.667 176.007C418.321 176.007 430.201 174.005 430.201 171.536C430.201 169.066 430.201 160.751 430.201 160.751L421.148 160.75Z" fill="#809EB2"/>
<path d="M425.9 160.75C425.9 163.393 425.9 167.669 425.9 169.324C425.9 171.792 414.022 173.795 399.367 173.795C390.08 173.795 381.909 172.989 377.171 171.772C377.899 174.13 389.483 176.007 403.666 176.007C418.32 176.007 430.2 174.004 430.2 171.535C430.2 169.065 430.2 160.75 430.2 160.75H425.9Z" fill="#7094A9"/>
<path d="M430.201 160.75C430.201 163.219 418.321 165.22 403.667 165.22C389.013 165.22 377.135 163.219 377.135 160.75C377.135 158.279 389.013 156.279 403.667 156.279C418.321 156.279 430.201 158.279 430.201 160.75Z" fill="#A0B0C1"/>
<path opacity="0.1" d="M414.507 159.69C414.507 160.937 407.293 161.947 398.393 161.947C389.495 161.947 382.279 160.937 382.279 159.69C382.279 158.441 389.495 157.43 398.393 157.43C407.292 157.43 414.507 158.441 414.507 159.69Z" fill="white"/>
<path opacity="0.2" d="M401.886 159.69C401.886 160.529 398.631 161.211 394.618 161.211C390.602 161.211 387.349 160.529 387.349 159.69C387.349 158.848 390.602 158.168 394.618 158.168C398.631 158.168 401.886 158.849 401.886 159.69Z" fill="white"/>
<path d="M402.771 156.281C402.307 156.281 401.843 156.283 401.383 156.286C413.337 156.393 422.816 157.911 422.816 159.765C422.816 161.692 412.617 163.253 400.036 163.253C388.29 163.253 378.621 161.892 377.391 160.144C377.303 160.29 377.256 160.44 377.256 160.588C377.256 162.968 388.678 164.899 402.771 164.899C416.862 164.899 428.286 162.968 428.286 160.588C428.286 158.21 416.862 156.281 402.771 156.281Z" fill="#86A1B4"/>
<path d="M581.62 224.044C581.62 226.511 569.74 228.514 555.086 228.514C540.432 228.514 528.554 226.511 528.554 224.044C528.554 223.35 528.554 213.256 528.554 213.256H581.62C581.62 213.256 581.62 221.573 581.62 224.044Z" fill="#8AA3B6"/>
<path d="M572.567 213.256C572.567 215.644 572.567 218.34 572.567 219.575C572.567 222.044 560.689 224.045 546.035 224.045C539.337 224.045 533.222 223.625 528.554 222.935C528.554 223.518 528.554 223.922 528.554 224.044C528.554 226.511 540.432 228.514 555.086 228.514C569.74 228.514 581.62 226.511 581.62 224.044C581.62 221.573 581.62 213.256 581.62 213.256H572.567Z" fill="#809EB2"/>
<path d="M577.32 213.256C577.32 215.9 577.32 220.176 577.32 221.83C577.32 224.299 565.44 226.303 550.788 226.303C541.5 226.303 533.33 225.498 528.591 224.28C529.319 226.638 540.903 228.515 555.086 228.515C569.74 228.515 581.62 226.512 581.62 224.044C581.62 221.574 581.62 213.257 581.62 213.257L577.32 213.256Z" fill="#7094A9"/>
<path d="M581.62 213.256C581.62 215.726 569.74 217.728 555.086 217.728C540.432 217.728 528.554 215.726 528.554 213.256C528.554 210.785 540.432 208.783 555.086 208.783C569.74 208.783 581.62 210.785 581.62 213.256Z" fill="#A0B0C1"/>
<path opacity="0.1" d="M565.925 212.195C565.925 213.445 558.712 214.455 549.814 214.455C540.912 214.455 533.698 213.445 533.698 212.195C533.698 210.95 540.912 209.938 549.814 209.938C558.711 209.938 565.925 210.949 565.925 212.195Z" fill="white"/>
<path opacity="0.2" d="M553.304 212.196C553.304 213.037 550.05 213.718 546.035 213.718C542.021 213.718 538.767 213.037 538.767 212.196C538.767 211.357 542.021 210.676 546.035 210.676C550.051 210.676 553.304 211.357 553.304 212.196Z" fill="white"/>
<path d="M554.192 208.787C553.724 208.787 553.262 208.789 552.802 208.794C564.757 208.901 574.237 210.418 574.237 212.273C574.237 214.2 564.038 215.76 551.456 215.76C539.709 215.76 530.042 214.4 528.812 212.652C528.722 212.797 528.677 212.946 528.677 213.096C528.677 215.476 540.099 217.404 554.193 217.404C568.283 217.404 579.705 215.476 579.705 213.096C579.705 210.717 568.282 208.787 554.192 208.787Z" fill="#86A1B4"/>
<path d="M579.824 210.594C579.824 212.897 568.748 214.764 555.086 214.764C541.423 214.764 530.349 212.897 530.349 210.594C530.349 209.948 530.349 200.537 530.349 200.537H579.824C579.824 200.537 579.824 208.293 579.824 210.594Z" fill="#4C8FBE"/>
<path d="M571.384 200.537C571.384 202.763 571.384 205.277 571.384 206.429C571.384 208.732 560.31 210.596 546.647 210.596C540.402 210.596 534.701 210.206 530.349 209.563C530.349 210.105 530.349 210.484 530.349 210.595C530.349 212.897 541.423 214.765 555.086 214.765C568.749 214.765 579.824 212.897 579.824 210.595C579.824 208.293 579.824 200.538 579.824 200.538H571.384V200.537Z" fill="#2F8BBE"/>
<path d="M575.817 200.537C575.817 203.002 575.817 206.99 575.817 208.532C575.817 210.834 564.741 212.7 551.077 212.7C542.417 212.7 534.802 211.95 530.382 210.815C531.063 213.014 541.862 214.765 555.085 214.765C568.749 214.765 579.824 212.897 579.824 210.595C579.824 208.293 579.824 200.538 579.824 200.538H575.817V200.537Z" fill="#087EAE"/>
<path d="M579.824 200.536C579.824 202.838 568.748 204.705 555.086 204.705C541.423 204.705 530.349 202.838 530.349 200.536C530.349 198.234 541.423 196.367 555.086 196.367C568.749 196.367 579.824 198.234 579.824 200.536Z" fill="#A0B0C1"/>
<path opacity="0.1" d="M565.193 199.548C565.193 200.712 558.466 201.655 550.169 201.655C541.871 201.655 535.145 200.712 535.145 199.548C535.145 198.385 541.872 197.443 550.169 197.443C558.466 197.443 565.193 198.385 565.193 199.548Z" fill="white"/>
<path opacity="0.2" d="M553.426 199.546C553.426 200.33 550.39 200.965 546.647 200.965C542.905 200.965 539.87 200.33 539.87 199.546C539.87 198.763 542.905 198.129 546.647 198.129C550.39 198.129 553.426 198.763 553.426 199.546Z" fill="white"/>
<path d="M554.253 196.369C553.817 196.369 553.387 196.371 552.957 196.375C564.104 196.475 572.941 197.889 572.941 199.62C572.941 201.415 563.434 202.87 551.703 202.87C540.75 202.87 531.737 201.601 530.59 199.971C530.506 200.107 530.462 200.245 530.462 200.386C530.462 202.604 541.114 204.404 554.254 204.404C567.39 204.404 578.04 202.604 578.04 200.386C578.039 198.168 567.389 196.369 554.253 196.369Z" fill="#86A1B4"/>
<path d="M581.62 205.647C581.62 208.117 569.74 210.118 555.086 210.118C540.432 210.118 528.554 208.117 528.554 205.647C528.554 204.954 528.554 194.861 528.554 194.861H581.62C581.62 194.861 581.62 203.178 581.62 205.647Z" fill="#8AA3B6"/>
<path d="M572.567 194.861C572.567 197.249 572.567 199.944 572.567 201.179C572.567 203.65 560.689 205.651 546.035 205.651C539.337 205.651 533.222 205.231 528.554 204.542C528.554 205.122 528.554 205.528 528.554 205.648C528.554 208.118 540.432 210.119 555.086 210.119C569.74 210.119 581.62 208.117 581.62 205.648C581.62 203.179 581.62 194.862 581.62 194.862L572.567 194.861Z" fill="#809EB2"/>
<path d="M577.32 194.861C577.32 197.505 577.32 201.781 577.32 203.436C577.32 205.905 565.44 207.907 550.788 207.907C541.5 207.907 533.33 207.102 528.591 205.884C529.319 208.244 540.903 210.119 555.086 210.119C569.74 210.119 581.62 208.117 581.62 205.648C581.62 203.179 581.62 194.862 581.62 194.862L577.32 194.861Z" fill="#7094A9"/>
<path d="M581.62 194.862C581.62 197.33 569.74 199.333 555.086 199.333C540.432 199.333 528.554 197.33 528.554 194.862C528.554 192.391 540.432 190.391 555.086 190.391C569.74 190.391 581.62 192.392 581.62 194.862Z" fill="#A0B0C1"/>
<path opacity="0.1" d="M565.925 193.801C565.925 195.048 558.712 196.06 549.814 196.06C540.912 196.06 533.698 195.048 533.698 193.801C533.698 192.553 540.912 191.543 549.814 191.543C558.711 191.543 565.925 192.553 565.925 193.801Z" fill="white"/>
<path opacity="0.2" d="M553.304 193.8C553.304 194.641 550.05 195.322 546.035 195.322C542.021 195.322 538.767 194.641 538.767 193.8C538.767 192.961 542.021 192.279 546.035 192.279C550.051 192.279 553.304 192.961 553.304 193.8Z" fill="white"/>
<path d="M554.192 190.393C553.724 190.393 553.262 190.395 552.802 190.399C564.757 190.508 574.237 192.023 574.237 193.879C574.237 195.805 564.038 197.365 551.456 197.365C539.709 197.365 530.042 196.004 528.812 194.258C528.722 194.403 528.677 194.552 528.677 194.704C528.677 197.082 540.099 199.012 554.193 199.012C568.283 199.012 579.705 197.081 579.705 194.704C579.705 192.322 568.282 190.393 554.192 190.393Z" fill="#86A1B4"/>
<path d="M579.824 192.2C579.824 194.502 568.748 196.369 555.086 196.369C541.423 196.369 530.349 194.503 530.349 192.2C530.349 191.553 530.349 182.143 530.349 182.143H579.824C579.824 182.143 579.824 189.897 579.824 192.2Z" fill="#4C8FBE"/>
<path d="M571.384 182.143C571.384 184.369 571.384 186.882 571.384 188.035C571.384 190.337 560.31 192.204 546.647 192.204C540.402 192.204 534.701 191.813 530.349 191.17C530.349 191.711 530.349 192.091 530.349 192.201C530.349 194.503 541.423 196.37 555.086 196.37C568.749 196.37 579.824 194.503 579.824 192.201C579.824 189.898 579.824 182.143 579.824 182.143H571.384V182.143Z" fill="#2F8BBE"/>
<path d="M575.817 182.141C575.817 184.608 575.817 188.595 575.817 190.136C575.817 192.439 564.741 194.306 551.077 194.306C542.417 194.306 534.802 193.555 530.382 192.418C531.063 194.619 541.862 196.367 555.085 196.367C568.749 196.367 579.824 194.501 579.824 192.198C579.824 189.895 579.824 182.141 579.824 182.141H575.817V182.141Z" fill="#087EAE"/>
<path d="M579.824 182.141C579.824 184.444 568.748 186.31 555.086 186.31C541.423 186.31 530.349 184.444 530.349 182.141C530.349 179.84 541.423 177.973 555.086 177.973C568.749 177.973 579.824 179.84 579.824 182.141Z" fill="#A0B0C1"/>
<path opacity="0.1" d="M565.193 181.154C565.193 182.317 558.466 183.26 550.169 183.26C541.871 183.26 535.145 182.317 535.145 181.154C535.145 179.99 541.872 179.047 550.169 179.047C558.466 179.047 565.193 179.989 565.193 181.154Z" fill="white"/>
<path opacity="0.2" d="M553.426 181.152C553.426 181.937 550.39 182.571 546.647 182.571C542.905 182.571 539.87 181.936 539.87 181.152C539.87 180.368 542.905 179.734 546.647 179.734C550.39 179.734 553.426 180.368 553.426 181.152Z" fill="white"/>
<path d="M554.253 177.975C553.817 177.975 553.387 177.977 552.957 177.981C564.104 178.08 572.941 179.496 572.941 181.224C572.941 183.021 563.434 184.477 551.703 184.477C540.75 184.477 531.737 183.207 530.59 181.576C530.506 181.712 530.462 181.853 530.462 181.992C530.462 184.212 541.114 186.009 554.254 186.009C567.39 186.009 578.04 184.212 578.04 181.992C578.039 179.773 567.389 177.975 554.253 177.975Z" fill="#86A1B4"/>
<path d="M581.62 188.023C581.62 190.493 569.74 192.494 555.086 192.494C540.432 192.494 528.554 190.493 528.554 188.023C528.554 187.33 528.554 177.238 528.554 177.238H581.62C581.62 177.238 581.62 185.554 581.62 188.023Z" fill="#8AA3B6"/>
<path d="M572.567 177.238C572.567 179.624 572.567 182.321 572.567 183.556C572.567 186.024 560.689 188.027 546.035 188.027C539.337 188.027 533.222 187.607 528.554 186.916C528.554 187.498 528.554 187.904 528.554 188.023C528.554 190.493 540.432 192.494 555.086 192.494C569.74 192.494 581.62 190.493 581.62 188.023C581.62 185.554 581.62 177.238 581.62 177.238H572.567Z" fill="#809EB2"/>
<path d="M577.32 177.238C577.32 179.882 577.32 184.157 577.32 185.811C577.32 188.282 565.44 190.282 550.788 190.282C541.5 190.282 533.33 189.478 528.591 188.259C529.319 190.62 540.903 192.495 555.086 192.495C569.74 192.495 581.62 190.493 581.62 188.024C581.62 185.554 581.62 177.239 581.62 177.239H577.32V177.238Z" fill="#7094A9"/>
<path d="M581.62 177.239C581.62 179.708 569.74 181.708 555.086 181.708C540.432 181.708 528.554 179.709 528.554 177.239C528.554 174.768 540.432 172.766 555.086 172.766C569.74 172.766 581.62 174.769 581.62 177.239Z" fill="#A0B0C1"/>
<path opacity="0.1" d="M565.925 176.177C565.925 177.425 558.712 178.436 549.814 178.436C540.912 178.436 533.698 177.425 533.698 176.177C533.698 174.931 540.912 173.918 549.814 173.918C558.711 173.919 565.925 174.931 565.925 176.177Z" fill="white"/>
<path opacity="0.2" d="M553.304 176.177C553.304 177.018 550.05 177.699 546.035 177.699C542.021 177.699 538.767 177.018 538.767 176.177C538.767 175.338 542.021 174.656 546.035 174.656C550.051 174.657 553.304 175.338 553.304 176.177Z" fill="white"/>
<path d="M554.192 172.768C553.724 172.768 553.262 172.77 552.802 172.774C564.757 172.881 574.237 174.397 574.237 176.254C574.237 178.18 564.038 179.741 551.456 179.741C539.709 179.741 530.042 178.379 528.812 176.632C528.722 176.777 528.677 176.927 528.677 177.077C528.677 179.456 540.099 181.385 554.193 181.385C568.283 181.385 579.705 179.456 579.705 177.077C579.705 174.696 568.282 172.768 554.192 172.768Z" fill="#86A1B4"/>
<path d="M579.824 175.71C579.824 178.012 568.748 179.878 555.086 179.878C541.423 179.878 530.349 178.012 530.349 175.71C530.349 175.062 530.349 165.652 530.349 165.652H579.824C579.824 165.652 579.824 173.405 579.824 175.71Z" fill="#4C8FBE"/>
<path d="M571.384 165.652C571.384 167.88 571.384 170.392 571.384 171.543C571.384 173.845 560.31 175.713 546.647 175.713C540.402 175.713 534.701 175.321 530.349 174.678C530.349 175.219 530.349 175.597 530.349 175.71C530.349 178.012 541.423 179.878 555.086 179.878C568.749 179.878 579.824 178.012 579.824 175.71C579.824 173.405 579.824 165.652 579.824 165.652H571.384Z" fill="#2F8BBE"/>
<path d="M575.817 165.652C575.817 168.117 575.817 172.104 575.817 173.646C575.817 175.947 564.741 177.814 551.077 177.814C542.417 177.814 534.802 177.065 530.382 175.929C531.063 178.129 541.862 179.878 555.085 179.878C568.749 179.878 579.824 178.012 579.824 175.71C579.824 173.405 579.824 165.652 579.824 165.652H575.817Z" fill="#087EAE"/>
<path d="M579.824 165.653C579.824 167.956 568.748 169.822 555.086 169.822C541.423 169.822 530.349 167.955 530.349 165.653C530.349 163.351 541.423 161.484 555.086 161.484C568.749 161.484 579.824 163.35 579.824 165.653Z" fill="#A0B0C1"/>
<path opacity="0.1" d="M565.193 164.663C565.193 165.827 558.466 166.771 550.169 166.771C541.871 166.771 535.145 165.827 535.145 164.663C535.145 163.501 541.872 162.558 550.169 162.558C558.466 162.558 565.193 163.501 565.193 164.663Z" fill="white"/>
<path opacity="0.2" d="M553.426 164.662C553.426 165.448 550.39 166.081 546.647 166.081C542.905 166.081 539.87 165.447 539.87 164.662C539.87 163.879 542.905 163.246 546.647 163.246C550.39 163.246 553.426 163.879 553.426 164.662Z" fill="white"/>
<path d="M554.253 161.486C553.817 161.486 553.387 161.488 552.957 161.494C564.104 161.593 572.941 163.007 572.941 164.737C572.941 166.531 563.434 167.988 551.703 167.988C540.75 167.988 531.737 166.718 530.59 165.089C530.506 165.224 530.462 165.364 530.462 165.503C530.462 167.723 541.114 169.521 554.254 169.521C567.39 169.521 578.04 167.722 578.04 165.503C578.039 163.284 567.389 161.486 554.253 161.486Z" fill="#86A1B4"/>
<path d="M581.62 171.535C581.62 174.004 569.74 176.007 555.086 176.007C540.432 176.007 528.554 174.004 528.554 171.535C528.554 170.843 528.554 160.75 528.554 160.75H581.62C581.62 160.75 581.62 169.066 581.62 171.535Z" fill="#8AA3B6"/>
<path d="M572.567 160.75C572.567 163.137 572.567 165.832 572.567 167.067C572.567 169.538 560.689 171.538 546.035 171.538C539.337 171.538 533.222 171.118 528.554 170.43C528.554 171.011 528.554 171.416 528.554 171.536C528.554 174.005 540.432 176.007 555.086 176.007C569.74 176.007 581.62 174.005 581.62 171.536C581.62 169.066 581.62 160.751 581.62 160.751L572.567 160.75Z" fill="#809EB2"/>
<path d="M577.32 160.75C577.32 163.393 577.32 167.669 577.32 169.324C577.32 171.792 565.44 173.795 550.788 173.795C541.5 173.795 533.33 172.989 528.591 171.772C529.319 174.13 540.903 176.007 555.086 176.007C569.74 176.007 581.62 174.004 581.62 171.535C581.62 169.065 581.62 160.75 581.62 160.75H577.32Z" fill="#7094A9"/>
<path d="M581.62 160.75C581.62 163.219 569.74 165.22 555.086 165.22C540.432 165.22 528.554 163.219 528.554 160.75C528.554 158.279 540.432 156.279 555.086 156.279C569.74 156.279 581.62 158.279 581.62 160.75Z" fill="#A0B0C1"/>
<path opacity="0.1" d="M565.925 159.69C565.925 160.937 558.712 161.947 549.814 161.947C540.912 161.947 533.698 160.937 533.698 159.69C533.698 158.441 540.912 157.43 549.814 157.43C558.711 157.43 565.925 158.441 565.925 159.69Z" fill="white"/>
<path opacity="0.2" d="M553.304 159.69C553.304 160.529 550.05 161.211 546.035 161.211C542.021 161.211 538.767 160.529 538.767 159.69C538.767 158.848 542.021 158.168 546.035 158.168C550.051 158.168 553.304 158.849 553.304 159.69Z" fill="white"/>
<path d="M554.192 156.281C553.724 156.281 553.262 156.283 552.802 156.286C564.757 156.393 574.237 157.911 574.237 159.765C574.237 161.692 564.038 163.253 551.456 163.253C539.709 163.253 530.042 161.892 528.812 160.144C528.722 160.29 528.677 160.44 528.677 160.588C528.677 162.968 540.099 164.899 554.193 164.899C568.283 164.899 579.705 162.968 579.705 160.588C579.705 158.21 568.282 156.281 554.192 156.281Z" fill="#86A1B4"/>
<path d="M514.564 247.729C514.564 251.004 498.81 253.659 479.377 253.659C459.945 253.659 444.192 251.003 444.192 247.729C444.192 246.81 444.192 233.424 444.192 233.424H514.564C514.564 233.424 514.564 244.454 514.564 247.729Z" fill="#8AA3B6"/>
<path d="M502.558 233.424C502.558 236.593 502.558 240.167 502.558 241.805C502.558 245.08 486.805 247.733 467.375 247.733C458.493 247.733 450.382 247.176 444.191 246.262C444.191 247.033 444.191 247.571 444.191 247.729C444.191 251.004 459.945 253.659 479.376 253.659C498.809 253.659 514.563 251.003 514.563 247.729C514.563 244.454 514.563 233.424 514.563 233.424H502.558Z" fill="#809EB2"/>
<path d="M508.862 233.424C508.862 236.932 508.862 242.601 508.862 244.795C508.862 248.069 493.108 250.724 473.677 250.724C461.359 250.724 450.525 249.658 444.239 248.042C445.206 251.17 460.567 253.659 479.376 253.659C498.81 253.659 514.563 251.003 514.563 247.729C514.563 244.454 514.563 233.424 514.563 233.424H508.862Z" fill="#7094A9"/>
<path d="M514.564 233.424C514.564 236.699 498.81 239.355 479.377 239.355C459.945 239.355 444.192 236.699 444.192 233.424C444.192 230.149 459.946 227.494 479.377 227.494C498.81 227.494 514.564 230.149 514.564 233.424Z" fill="#A0B0C1"/>
<path opacity="0.1" d="M493.752 232.018C493.752 233.671 484.184 235.014 472.385 235.014C460.581 235.014 451.014 233.671 451.014 232.018C451.014 230.364 460.581 229.022 472.385 229.022C484.184 229.022 493.752 230.364 493.752 232.018Z" fill="white"/>
<path opacity="0.2" d="M477.014 232.02C477.014 233.134 472.698 234.036 467.375 234.036C462.049 234.036 457.734 233.134 457.734 232.02C457.734 230.905 462.049 230.002 467.375 230.002C472.698 230.002 477.014 230.905 477.014 232.02Z" fill="white"/>
<path d="M478.189 227.5C477.573 227.5 476.96 227.503 476.349 227.508C492.201 227.65 504.773 229.663 504.773 232.123C504.773 234.675 491.248 236.746 474.563 236.746C458.985 236.746 446.164 234.942 444.532 232.623C444.416 232.819 444.355 233.016 444.355 233.214C444.355 236.37 459.502 238.928 478.19 238.928C496.878 238.928 512.025 236.37 512.025 233.214C512.025 230.058 496.878 227.5 478.189 227.5Z" fill="#86A1B4"/>
<path d="M512.182 229.893C512.182 232.945 497.494 235.42 479.375 235.42C461.258 235.42 446.569 232.945 446.569 229.893C446.569 229.033 446.569 216.555 446.569 216.555H512.182C512.182 216.555 512.182 226.839 512.182 229.893Z" fill="#4C8FBE"/>
<path d="M500.991 216.555C500.991 219.506 500.991 222.839 500.991 224.366C500.991 227.419 486.303 229.893 468.186 229.893C459.905 229.893 452.346 229.376 446.57 228.524C446.57 229.242 446.57 229.744 446.57 229.893C446.57 232.944 461.259 235.42 479.376 235.42C497.495 235.42 512.183 232.944 512.183 229.893C512.183 226.839 512.183 216.555 512.183 216.555H500.991Z" fill="#2F8BBE"/>
<path d="M506.867 216.556C506.867 219.826 506.867 225.111 506.867 227.157C506.867 230.209 492.179 232.684 474.06 232.684C462.576 232.684 452.477 231.691 446.614 230.183C447.517 233.1 461.84 235.42 479.376 235.42C497.494 235.42 512.182 232.945 512.182 229.893C512.182 226.839 512.182 216.555 512.182 216.555H506.867V216.556Z" fill="#087EAE"/>
<path d="M512.182 216.556C512.182 219.609 497.494 222.084 479.375 222.084C461.258 222.084 446.569 219.609 446.569 216.556C446.569 213.502 461.258 211.025 479.375 211.025C497.494 211.025 512.182 213.502 512.182 216.556Z" fill="#A0B0C1"/>
<path opacity="0.1" d="M492.78 215.244C492.78 216.785 483.859 218.037 472.856 218.037C461.851 218.037 452.932 216.785 452.932 215.244C452.932 213.701 461.851 212.451 472.856 212.451C483.859 212.452 492.78 213.701 492.78 215.244Z" fill="white"/>
<path opacity="0.2" d="M477.173 215.245C477.173 216.284 473.148 217.125 468.185 217.125C463.222 217.125 459.198 216.283 459.198 215.245C459.198 214.205 463.222 213.363 468.185 213.363C473.149 213.363 477.173 214.205 477.173 215.245Z" fill="white"/>
<path d="M478.27 211.031C477.693 211.031 477.121 211.033 476.554 211.039C491.333 211.17 503.055 213.045 503.055 215.34C503.055 217.72 490.445 219.651 474.889 219.651C460.363 219.651 448.409 217.969 446.889 215.807C446.779 215.989 446.722 216.172 446.722 216.356C446.722 219.299 460.845 221.685 478.27 221.685C495.692 221.685 509.815 219.299 509.815 216.356C509.815 213.416 495.692 211.031 478.27 211.031Z" fill="#86A1B4"/>
<path d="M514.564 223.332C514.564 226.609 498.81 229.263 479.377 229.263C459.945 229.263 444.192 226.609 444.192 223.332C444.192 222.413 444.192 209.029 444.192 209.029H514.564C514.564 209.029 514.564 220.059 514.564 223.332Z" fill="#8AA3B6"/>
<path d="M502.558 209.03C502.558 212.195 502.558 215.77 502.558 217.409C502.558 220.682 486.805 223.338 467.375 223.338C458.493 223.338 450.382 222.78 444.191 221.867C444.191 222.636 444.191 223.175 444.191 223.332C444.191 226.609 459.945 229.263 479.376 229.263C498.809 229.263 514.563 226.609 514.563 223.332C514.563 220.059 514.563 209.029 514.563 209.029H502.558V209.03Z" fill="#809EB2"/>
<path d="M508.862 209.03C508.862 212.537 508.862 218.205 508.862 220.4C508.862 223.672 493.108 226.329 473.677 226.329C461.359 226.329 450.525 225.261 444.239 223.646C445.206 226.776 460.567 229.263 479.376 229.263C498.81 229.263 514.563 226.609 514.563 223.332C514.563 220.059 514.563 209.029 514.563 209.029H508.862V209.03Z" fill="#7094A9"/>
<path d="M514.564 209.029C514.564 212.302 498.81 214.958 479.377 214.958C459.945 214.958 444.192 212.302 444.192 209.029C444.192 205.753 459.946 203.099 479.377 203.099C498.81 203.099 514.564 205.753 514.564 209.029Z" fill="#A0B0C1"/>
<path opacity="0.1" d="M493.752 207.622C493.752 209.276 484.184 210.617 472.385 210.617C460.581 210.617 451.014 209.276 451.014 207.622C451.014 205.968 460.581 204.627 472.385 204.627C484.184 204.626 493.752 205.967 493.752 207.622Z" fill="white"/>
<path opacity="0.2" d="M477.014 207.624C477.014 208.737 472.698 209.64 467.375 209.64C462.049 209.64 457.734 208.737 457.734 207.624C457.734 206.51 462.049 205.605 467.375 205.605C472.698 205.605 477.014 206.51 477.014 207.624Z" fill="white"/>
<path d="M478.189 203.103C477.573 203.103 476.96 203.108 476.349 203.112C492.201 203.253 504.773 205.266 504.773 207.727C504.773 210.279 491.248 212.35 474.563 212.35C458.985 212.35 446.164 210.546 444.532 208.227C444.416 208.421 444.355 208.618 444.355 208.819C444.355 211.972 459.502 214.532 478.19 214.532C496.878 214.532 512.025 211.972 512.025 208.819C512.025 205.662 496.878 203.103 478.189 203.103Z" fill="#86A1B4"/>
<path d="M512.182 205.5C512.182 208.552 497.494 211.028 479.375 211.028C461.258 211.028 446.569 208.553 446.569 205.5C446.569 204.642 446.569 192.162 446.569 192.162H512.182C512.182 192.162 512.182 202.446 512.182 205.5Z" fill="#4C8FBE"/>
<path d="M500.991 192.163C500.991 195.117 500.991 198.449 500.991 199.975C500.991 203.028 486.303 205.504 468.186 205.504C459.905 205.504 452.346 204.985 446.57 204.133C446.57 204.85 446.57 205.352 446.57 205.5C446.57 208.552 461.259 211.028 479.376 211.028C497.495 211.028 512.183 208.553 512.183 205.5C512.183 202.446 512.183 192.162 512.183 192.162H500.991V192.163Z" fill="#2F8BBE"/>
<path d="M506.867 192.162C506.867 195.432 506.867 200.718 506.867 202.763C506.867 205.817 492.179 208.292 474.06 208.292C462.576 208.292 452.477 207.295 446.614 205.79C447.517 208.707 461.84 211.026 479.376 211.026C497.494 211.026 512.182 208.551 512.182 205.498C512.182 202.444 512.182 192.16 512.182 192.16H506.867V192.162Z" fill="#087EAE"/>
<path d="M512.182 192.162C512.182 195.216 497.494 197.691 479.375 197.691C461.258 197.691 446.569 195.216 446.569 192.162C446.569 189.11 461.258 186.633 479.375 186.633C497.494 186.633 512.182 189.11 512.182 192.162Z" fill="#A0B0C1"/>
<path opacity="0.1" d="M492.78 190.849C492.78 192.393 483.859 193.643 472.856 193.643C461.851 193.643 452.932 192.393 452.932 190.849C452.932 189.307 461.851 188.057 472.856 188.057C483.859 188.057 492.78 189.307 492.78 190.849Z" fill="white"/>
<path opacity="0.2" d="M477.173 190.851C477.173 191.891 473.148 192.733 468.185 192.733C463.222 192.733 459.198 191.891 459.198 190.851C459.198 189.812 463.222 188.971 468.185 188.971C473.149 188.971 477.173 189.812 477.173 190.851Z" fill="white"/>
<path d="M478.27 186.637C477.693 186.637 477.121 186.639 476.554 186.646C491.333 186.776 503.055 188.652 503.055 190.948C503.055 193.327 490.445 195.258 474.889 195.258C460.363 195.258 448.409 193.576 446.889 191.414C446.779 191.595 446.722 191.78 446.722 191.964C446.722 194.906 460.845 197.293 478.27 197.293C495.692 197.293 509.815 194.906 509.815 191.964C509.815 189.021 495.692 186.637 478.27 186.637Z" fill="#86A1B4"/>
<path d="M514.564 199.965C514.564 203.239 498.81 205.894 479.377 205.894C459.945 205.894 444.192 203.239 444.192 199.965C444.192 199.044 444.192 185.658 444.192 185.658H514.564C514.564 185.658 514.564 196.689 514.564 199.965Z" fill="#8AA3B6"/>
<path d="M502.558 185.659C502.558 188.827 502.558 192.401 502.558 194.039C502.558 197.313 486.805 199.968 467.375 199.968C458.493 199.968 450.382 199.412 444.191 198.498C444.191 199.268 444.191 199.806 444.191 199.965C444.191 203.239 459.945 205.894 479.376 205.894C498.809 205.894 514.563 203.239 514.563 199.965C514.563 196.689 514.563 185.658 514.563 185.658H502.558V185.659Z" fill="#809EB2"/>
<path d="M508.862 185.658C508.862 189.167 508.862 194.837 508.862 197.03C508.862 200.305 493.108 202.96 473.677 202.96C461.359 202.96 450.525 201.892 444.239 200.277C445.206 203.407 460.567 205.894 479.376 205.894C498.81 205.894 514.563 203.239 514.563 199.965C514.563 196.689 514.563 185.658 514.563 185.658H508.862Z" fill="#7094A9"/>
<path d="M514.564 185.658C514.564 188.934 498.81 191.588 479.377 191.588C459.945 191.588 444.192 188.934 444.192 185.658C444.192 182.383 459.946 179.73 479.377 179.73C498.81 179.73 514.564 182.383 514.564 185.658Z" fill="#A0B0C1"/>
<path opacity="0.1" d="M493.752 184.254C493.752 185.908 484.184 187.249 472.385 187.249C460.581 187.249 451.014 185.908 451.014 184.254C451.014 182.598 460.581 181.258 472.385 181.258C484.184 181.258 493.752 182.598 493.752 184.254Z" fill="white"/>
<path opacity="0.2" d="M477.014 184.255C477.014 185.369 472.698 186.272 467.375 186.272C462.049 186.272 457.734 185.369 457.734 184.255C457.734 183.141 462.049 182.238 467.375 182.238C472.698 182.238 477.014 183.141 477.014 184.255Z" fill="white"/>
<path d="M478.189 179.734C477.573 179.734 476.96 179.738 476.349 179.744C492.201 179.885 504.773 181.897 504.773 184.358C504.773 186.913 491.248 188.981 474.563 188.981C458.985 188.981 446.164 187.178 444.532 184.86C444.416 185.053 444.355 185.251 444.355 185.449C444.355 188.604 459.502 191.162 478.19 191.162C496.878 191.162 512.025 188.604 512.025 185.449C512.025 182.293 496.878 179.734 478.189 179.734Z" fill="#86A1B4"/>
<path d="M512.182 183.634C512.182 186.686 497.494 189.163 479.375 189.163C461.258 189.163 446.569 186.686 446.569 183.634C446.569 182.775 446.569 170.295 446.569 170.295H512.182C512.182 170.295 512.182 180.577 512.182 183.634Z" fill="#4C8FBE"/>
<path d="M500.991 170.295C500.991 173.249 500.991 176.58 500.991 178.109C500.991 181.163 486.303 183.636 468.186 183.636C459.905 183.636 452.346 183.119 446.57 182.265C446.57 182.984 446.57 183.486 446.57 183.634C446.57 186.686 461.259 189.163 479.376 189.163C497.495 189.163 512.183 186.686 512.183 183.634C512.183 180.578 512.183 170.296 512.183 170.296L500.991 170.295Z" fill="#2F8BBE"/>
<path d="M506.867 170.295C506.867 173.564 506.867 178.852 506.867 180.898C506.867 183.951 492.179 186.425 474.06 186.425C462.576 186.425 452.477 185.43 446.614 183.924C447.517 186.842 461.84 189.163 479.376 189.163C497.494 189.163 512.182 186.686 512.182 183.634C512.182 180.578 512.182 170.295 512.182 170.295H506.867Z" fill="#087EAE"/>
<path d="M512.182 170.295C512.182 173.348 497.494 175.824 479.375 175.824C461.258 175.824 446.569 173.348 446.569 170.295C446.569 167.243 461.258 164.768 479.375 164.768C497.494 164.768 512.182 167.243 512.182 170.295Z" fill="#A0B0C1"/>
<path opacity="0.1" d="M492.78 168.983C492.78 170.528 483.859 171.777 472.856 171.777C461.851 171.777 452.932 170.528 452.932 168.983C452.932 167.442 461.851 166.191 472.856 166.191C483.859 166.191 492.78 167.442 492.78 168.983Z" fill="white"/>
<path opacity="0.2" d="M477.173 168.985C477.173 170.027 473.148 170.866 468.185 170.866C463.222 170.866 459.198 170.027 459.198 168.985C459.198 167.946 463.222 167.105 468.185 167.105C473.149 167.105 477.173 167.946 477.173 168.985Z" fill="white"/>
<path d="M478.27 164.77C477.693 164.77 477.121 164.773 476.554 164.778C491.333 164.91 503.055 166.786 503.055 169.079C503.055 171.461 490.445 173.391 474.889 173.391C460.363 173.391 448.409 171.708 446.889 169.548C446.779 169.728 446.722 169.912 446.722 170.098C446.722 173.04 460.845 175.424 478.27 175.424C495.692 175.424 509.815 173.04 509.815 170.098C509.815 167.155 495.692 164.77 478.27 164.77Z" fill="#86A1B4"/>
<path d="M514.564 178.096C514.564 181.37 498.81 184.027 479.377 184.027C459.945 184.027 444.192 181.37 444.192 178.096C444.192 177.177 444.192 163.793 444.192 163.793H514.564C514.564 163.793 514.564 174.82 514.564 178.096Z" fill="#8AA3B6"/>
<path d="M502.558 163.793C502.558 166.959 502.558 170.533 502.558 172.172C502.558 175.446 486.805 178.101 467.375 178.101C458.493 178.101 450.382 177.545 444.191 176.631C444.191 177.4 444.191 177.938 444.191 178.096C444.191 181.371 459.945 184.027 479.376 184.027C498.809 184.027 514.563 181.371 514.563 178.096C514.563 174.821 514.563 163.794 514.563 163.794H502.558V163.793Z" fill="#809EB2"/>
<path d="M508.862 163.794C508.862 167.3 508.862 172.97 508.862 175.164C508.862 178.437 493.108 181.092 473.677 181.092C461.359 181.092 450.525 180.024 444.239 178.41C445.206 181.539 460.567 184.027 479.376 184.027C498.81 184.027 514.563 181.37 514.563 178.096C514.563 174.82 514.563 163.793 514.563 163.793L508.862 163.794Z" fill="#7094A9"/>
<path d="M514.564 163.793C514.564 167.067 498.81 169.722 479.377 169.722C459.945 169.722 444.192 167.067 444.192 163.793C444.192 160.518 459.946 157.863 479.377 157.863C498.81 157.863 514.564 160.518 514.564 163.793Z" fill="#A0B0C1"/>
<path opacity="0.1" d="M493.752 162.385C493.752 164.039 484.184 165.38 472.385 165.38C460.581 165.38 451.014 164.039 451.014 162.385C451.014 160.731 460.581 159.391 472.385 159.391C484.184 159.391 493.752 160.731 493.752 162.385Z" fill="white"/>
<path opacity="0.2" d="M477.014 162.385C477.014 163.5 472.698 164.403 467.375 164.403C462.049 164.403 457.734 163.501 457.734 162.385C457.734 161.27 462.049 160.367 467.375 160.367C472.698 160.367 477.014 161.27 477.014 162.385Z" fill="white"/>
<path d="M478.189 157.867C477.573 157.867 476.96 157.87 476.349 157.875C492.201 158.018 504.773 160.03 504.773 162.489C504.773 165.043 491.248 167.114 474.563 167.114C458.985 167.114 446.164 165.307 444.532 162.991C444.416 163.185 444.355 163.382 444.355 163.58C444.355 166.736 459.502 169.294 478.19 169.294C496.878 169.294 512.025 166.736 512.025 163.58C512.025 160.424 496.878 157.867 478.189 157.867Z" fill="#86A1B4"/>
<path d="M403.244 150.218H402.175V136.092H402.709L473.232 136.034V110.576H474.301V137.102H473.767L403.244 137.162V150.218Z" fill="white"/>
<path d="M554.706 150.218H553.637V137.162L484.451 137.102V110.576H485.521V136.034L554.706 136.092V150.218Z" fill="white"/>
<path d="M479.91 110.576H478.841V150.218H479.91V110.576Z" fill="white"/>
<path d="M404 150.812C404 150.091 403.414 149.506 402.69 149.506C401.966 149.506 401.381 150.091 401.381 150.812C401.381 151.533 401.966 152.117 402.69 152.117C403.414 152.117 404 151.534 404 150.812Z" fill="white"/>
<path d="M480.685 150.812C480.685 150.091 480.1 149.506 479.377 149.506C478.651 149.506 478.066 150.091 478.066 150.812C478.066 151.533 478.651 152.117 479.377 152.117C480.1 152.117 480.685 151.534 480.685 150.812Z" fill="white"/>
<path d="M555.499 150.812C555.499 150.091 554.913 149.506 554.189 149.506C553.465 149.506 552.88 150.091 552.88 150.812C552.88 151.533 553.465 152.117 554.189 152.117C554.913 152.117 555.499 151.534 555.499 150.812Z" fill="white"/>
<g style="mix-blend-mode:overlay" filter="url(#filter1_f_127_1286)">
<path d="M638.014 86.0044C659.253 -2.02995 465.742 65.5349 402.794 123.198L518.891 162.65C551.519 166.446 621.023 156.432 638.014 86.0044Z" fill="#EC44EF"/>
<rect x="273" y="120.377" width="235.99" height="110.812" fill="#EF4444"/>
</g>
</g>
<rect x="0.5" y="0.5" width="604" height="282" stroke="#4D4D4D"/>
<defs>
<filter id="filter0_f_127_1286" x="-158.961" y="-1.60416" width="724.694" height="500.278" filterUnits="userSpaceOnUse" color-interpolation-filters="sRGB">
<feFlood flood-opacity="0" result="BackgroundImageFix"/>
<feBlend mode="normal" in="SourceGraphic" in2="BackgroundImageFix" result="shape"/>
<feGaussianBlur stdDeviation="51.3021" result="effect1_foregroundBlur_127_1286"/>
</filter>
<filter id="filter1_f_127_1286" x="170.396" y="-102.604" width="724.694" height="500.278" filterUnits="userSpaceOnUse" color-interpolation-filters="sRGB">
<feFlood flood-opacity="0" result="BackgroundImageFix"/>
<feBlend mode="normal" in="SourceGraphic" in2="BackgroundImageFix" result="shape"/>
<feGaussianBlur stdDeviation="51.3021" result="effect1_foregroundBlur_127_1286"/>
</filter>
<linearGradient id="paint0_linear_127_1286" x1="302.5" y1="17.8957" x2="302.5" y2="283" gradientUnits="userSpaceOnUse">
<stop stop-color="#02122B"/>
<stop offset="1"/>
</linearGradient>
<linearGradient id="paint1_linear_127_1286" x1="44" y1="123" x2="117.5" y2="123" gradientUnits="userSpaceOnUse">
<stop stop-color="#EE4924"/>
<stop offset="1" stop-color="#7C60EA"/>
</linearGradient>
<clipPath id="clip0_127_1286">
<rect width="605" height="283" fill="white"/>
</clipPath>
</defs>
</svg>
