<svg width="84" height="84" viewBox="0 0 84 84" fill="none" xmlns="http://www.w3.org/2000/svg">
<path d="M6.62897 30.0875C6.14767 36.9838 8.01573 43.8398 11.9288 49.5388C14.9184 53.7242 17.1915 58.3774 18.6554 63.3082C20.3865 69.5895 21.1765 76.0928 20.9995 82.6059L23.6245 82.7687C23.8371 75.9631 23.0149 69.1647 21.1859 62.606C19.6463 57.3966 17.2511 52.4794 14.0984 48.0556C10.2085 42.3402 8.55216 35.3957 9.44362 28.5398C10.3351 21.684 13.7123 15.394 18.9345 10.8634C24.1567 6.33282 30.8603 3.87696 37.7734 3.96187C44.6864 4.04678 51.3277 6.66655 56.437 11.324C59.264 13.8891 61.5361 17.0056 63.1135 20.4817C64.6908 23.9578 65.54 27.7199 65.6088 31.5365C65.6163 31.8178 65.7149 32.0891 65.8897 32.3096L73.8395 45.9373H66.937C66.5889 45.9373 66.2551 46.0756 66.009 46.3217C65.7628 46.5678 65.6245 46.9017 65.6245 47.2498V62.9998C65.6245 63.696 65.348 64.3637 64.8557 64.8559C64.3634 65.3482 63.6957 65.6248 62.9995 65.6248H48.562V68.2498H53.812V82.6873H56.437V68.2498H62.9995C64.3919 68.2498 65.7273 67.6967 66.7118 66.7121C67.6964 65.7275 68.2495 64.3922 68.2495 62.9998V48.5623H76.1245C76.3547 48.5618 76.5807 48.5008 76.7799 48.3854C76.979 48.2701 77.1443 48.1043 77.2592 47.9049C77.3741 47.7054 77.4345 47.4793 77.4344 47.2491C77.4343 47.0189 77.3736 46.7929 77.2585 46.5935L68.222 31.106C68.0812 26.9671 67.1083 22.8989 65.3614 19.1441C63.6144 15.3892 61.1292 12.0246 58.054 9.25091C54.9787 6.47721 51.3764 4.35122 47.4618 2.99972C43.5472 1.64821 39.4005 1.09887 35.269 1.38447C27.8352 1.90732 20.8412 5.101 15.5775 10.3763C10.3138 15.6516 7.13548 22.6525 6.62897 30.0875Z" fill="white"/>
<path d="M37.0803 38.5022C36.9119 38.6913 36.8018 38.9251 36.7633 39.1754C36.7248 39.4258 36.7595 39.6819 36.8633 39.9129C36.9671 40.1439 37.1355 40.3399 37.3482 40.4774C37.5609 40.6148 37.8088 40.6878 38.0621 40.6875H45.9371C46.1225 40.6877 46.3058 40.6486 46.4751 40.5729C46.6443 40.4971 46.7955 40.3863 46.9188 40.2478L57.4188 28.4353C57.6328 28.195 57.7511 27.8843 57.7511 27.5625C57.7511 27.2407 57.6328 26.93 57.4188 26.6897L46.9188 14.8772C46.7955 14.7387 46.6443 14.6279 46.4751 14.5521C46.3058 14.4764 46.1225 14.4373 45.9371 14.4375H38.0621C37.8088 14.4372 37.5609 14.5102 37.3482 14.6476C37.1355 14.7851 36.9671 14.9811 36.8633 15.2121C36.7595 15.4432 36.7248 15.6993 36.7633 15.9496C36.8018 16.1999 36.9119 16.4337 37.0803 16.6228L46.8059 27.5625L37.0803 38.5022ZM40.985 17.0625H45.3478L54.6809 27.5625L45.3478 38.0625H40.985L49.5438 28.4353C49.7578 28.195 49.8761 27.8843 49.8761 27.5625C49.8761 27.2407 49.7578 26.93 49.5438 26.6897L40.985 17.0625Z" fill="white"/>
<path d="M21.1151 39.9131C21.2188 40.1438 21.3869 40.3396 21.5993 40.477C21.8116 40.6144 22.0591 40.6875 22.3121 40.6875H30.1871C30.3725 40.6877 30.5558 40.6486 30.7251 40.5729C30.8943 40.4971 31.0455 40.3863 31.1688 40.2478L41.6688 28.4353C41.8828 28.195 42.0011 27.8843 42.0011 27.5625C42.0011 27.2407 41.8828 26.93 41.6688 26.6897L31.1688 14.8772C31.0455 14.7387 30.8943 14.6279 30.7251 14.5521C30.5558 14.4764 30.3725 14.4373 30.1871 14.4375H22.3121C22.0588 14.4372 21.8109 14.5102 21.5982 14.6476C21.3855 14.7851 21.2171 14.9811 21.1133 15.2121C21.0095 15.4432 20.9748 15.6993 21.0133 15.9496C21.0518 16.1999 21.1619 16.4337 21.3303 16.6228L31.0559 27.5625L21.3303 38.5022C21.1621 38.6915 21.0523 38.9255 21.0141 39.1758C20.9759 39.4262 21.011 39.6822 21.1151 39.9131ZM33.7938 28.4353C34.0078 28.195 34.1261 27.8843 34.1261 27.5625C34.1261 27.2407 34.0078 26.93 33.7938 26.6897L25.235 17.0625H29.5978L38.9309 27.5625L29.5978 38.0625H25.235L33.7938 28.4353Z" fill="white"/>
</svg>
