<svg width="84" height="84" viewBox="0 0 84 84" fill="none" xmlns="http://www.w3.org/2000/svg">
<path d="M73.5 80.0623H70.875V57.7498H49.875V62.9998C49.875 63.3479 49.7367 63.6817 49.4906 63.9278C49.2444 64.174 48.9106 64.3123 48.5625 64.3123H26.25V69.5623C26.25 69.9104 26.1117 70.2442 25.8656 70.4903C25.6194 70.7365 25.2856 70.8748 24.9375 70.8748H2.625V80.0623H0V69.5623C0 69.2142 0.138281 68.8803 0.384422 68.6342C0.630564 68.388 0.964403 68.2498 1.3125 68.2498H23.625V62.9998C23.625 62.6517 23.7633 62.3178 24.0094 62.0717C24.2556 61.8255 24.5894 61.6873 24.9375 61.6873H47.25V56.4373C47.25 56.0892 47.3883 55.7553 47.6344 55.5092C47.8806 55.263 48.2144 55.1248 48.5625 55.1248H72.1875C72.5356 55.1248 72.8694 55.263 73.1156 55.5092C73.3617 55.7553 73.5 56.0892 73.5 56.4373V80.0623Z" fill="white"/>
<path d="M38.0615 64.3124H31.499C31.1509 64.3124 30.8171 64.1742 30.5709 63.928C30.3248 63.6819 30.1865 63.348 30.1865 62.9999V52.2374L14.1412 48.5362C13.8205 48.4622 13.5393 48.2704 13.3534 47.9989C13.1674 47.7274 13.0902 47.3959 13.1371 47.0701L15.4419 30.9434L11.4913 32.5184L8.48302 39.5351C8.08084 40.4621 7.34809 41.2063 6.4274 41.6228C5.50671 42.0393 4.46398 42.0983 3.50219 41.7883C2.5404 41.4783 1.72839 40.8215 1.22422 39.9457C0.720058 39.0699 0.559823 38.0379 0.77471 37.0505L2.65421 28.5901C2.6966 28.3994 2.78105 28.2205 2.9014 28.0665C3.02175 27.9126 3.17495 27.7874 3.34983 27.7003L17.2728 20.744C18.7413 20.0088 20.4323 19.8519 22.011 20.3043L28.3621 22.1195C29.0841 22.3246 29.7652 22.6528 30.3755 23.0894L38.4815 28.8749H48.4421C49.4854 28.8763 50.488 29.2796 51.2417 30.001C51.9954 30.7224 52.4423 31.7064 52.4894 32.7486C52.5365 33.7908 52.1804 34.8111 51.4948 35.5976C50.8093 36.384 49.8472 36.8762 48.8083 36.9718L36.8645 38.0572C36.5657 38.083 36.2669 38.0072 36.0166 37.8419L29.9371 33.7889L28.979 42.4029L39.7848 46.0044C40.0656 46.0958 40.3073 46.2793 40.4709 46.525C40.6345 46.7708 40.7105 47.0646 40.6865 47.3589L39.374 63.1089C39.3466 63.4378 39.1963 63.7443 38.9531 63.9673C38.7099 64.1903 38.3915 64.3136 38.0615 64.3124ZM32.8115 61.6874H36.854L37.9801 48.1687L27.1468 44.558C26.8618 44.4631 26.618 44.2734 26.456 44.0204C26.2941 43.7674 26.2238 43.4666 26.2569 43.1681L27.5694 31.3556C27.5941 31.1316 27.6762 30.9177 27.8075 30.7346C27.9389 30.5515 28.1152 30.4053 28.3195 30.3101C28.5237 30.2149 28.7491 30.1739 28.9738 30.191C29.1985 30.2081 29.415 30.2829 29.6025 30.4079L37.0916 35.3954L48.572 34.3454C48.9378 34.3103 49.276 34.136 49.5168 33.8584C49.7576 33.5809 49.8825 33.2214 49.8656 32.8543C49.8488 32.4873 49.6914 32.1408 49.4262 31.8865C49.161 31.6322 48.8082 31.4896 48.4408 31.4881H38.0615C37.7881 31.4882 37.5215 31.4028 37.299 31.244L28.8478 25.2065C28.4817 24.9452 28.0738 24.7482 27.6416 24.6238L21.2904 22.8099C20.3433 22.5387 19.3289 22.6323 18.4475 23.0724L5.08233 29.7701L3.33802 37.6201C3.2906 37.8309 3.29135 38.0496 3.3402 38.2601C3.38906 38.4705 3.48478 38.6672 3.62021 38.8355C3.78331 39.0169 3.9883 39.1555 4.21731 39.2395C4.44632 39.3234 4.69239 39.35 4.93405 39.317C5.17571 39.284 5.40563 39.1924 5.60374 39.0501C5.80186 38.9078 5.96215 38.7193 6.07065 38.5008L9.29283 30.9828C9.3607 30.8243 9.45916 30.6806 9.58257 30.5601C9.70599 30.4397 9.85194 30.3447 10.0121 30.2806L16.5746 27.6556C16.7885 27.5701 17.0211 27.5424 17.2491 27.5753C17.4771 27.6082 17.6924 27.7005 17.8734 27.8429C18.0545 27.9854 18.1948 28.173 18.2804 28.3868C18.3659 28.6007 18.3937 28.8333 18.3609 29.0613L15.9065 46.2419L31.7943 49.9078C32.0836 49.9746 32.3417 50.1375 32.5265 50.3699C32.7112 50.6023 32.8117 50.8905 32.8115 51.1874V61.6874Z" fill="white"/>
<path d="M18.3748 70.875H11.8123C11.627 70.875 11.4438 70.8357 11.2748 70.7598C11.1057 70.6839 10.9547 70.573 10.8316 70.4345C10.7085 70.296 10.6161 70.133 10.5605 69.9563C10.5049 69.7795 10.4873 69.593 10.509 69.4089L13.134 47.0964L15.7406 47.4036L13.2889 68.25H17.2999L21.0261 49.6125L23.5986 50.127L19.6611 69.8145C19.6027 70.1129 19.4425 70.3818 19.2079 70.5752C18.9733 70.7686 18.6789 70.8746 18.3748 70.875Z" fill="white"/>
<path d="M27.5625 19.6873C26.005 19.6873 24.4824 19.2254 23.1874 18.3601C21.8923 17.4948 20.883 16.2649 20.287 14.8259C19.6909 13.3869 19.535 11.8035 19.8388 10.2759C20.1427 8.74832 20.8927 7.34513 21.994 6.24379C23.0954 5.14246 24.4986 4.39243 26.0262 4.08858C27.5538 3.78472 29.1372 3.94067 30.5761 4.53671C32.0151 5.13275 33.245 6.14211 34.1103 7.43714C34.9756 8.73218 35.4375 10.2547 35.4375 11.8123C35.4354 13.9002 34.6051 15.902 33.1287 17.3784C31.6523 18.8548 29.6504 19.6852 27.5625 19.6873ZM27.5625 6.56226C26.5242 6.56226 25.5091 6.87017 24.6458 7.44704C23.7824 8.02392 23.1095 8.84386 22.7121 9.80317C22.3148 10.7625 22.2108 11.8181 22.4134 12.8365C22.616 13.8549 23.116 14.7903 23.8502 15.5246C24.5844 16.2588 25.5199 16.7588 26.5383 16.9614C27.5567 17.164 28.6123 17.06 29.5716 16.6626C30.5309 16.2653 31.3508 15.5924 31.9277 14.729C32.5046 13.8656 32.8125 12.8506 32.8125 11.8123C32.8125 10.4199 32.2594 9.08451 31.2748 8.09995C30.2902 7.11538 28.9549 6.56226 27.5625 6.56226Z" fill="white"/>
<path d="M60.375 23.6248H57.75V56.4373H60.375V23.6248Z" fill="white"/>
<path d="M76.0449 26.25C73.9866 26.3065 71.9539 25.7825 70.1794 24.738C66.0962 22.1852 59.6308 24.8102 59.5665 24.8364C59.3671 24.9194 59.1503 24.9518 58.9354 24.9309C58.7204 24.91 58.5139 24.8363 58.3343 24.7165C58.1546 24.5967 58.0073 24.4344 57.9054 24.244C57.8034 24.0536 57.7501 23.841 57.75 23.625V6.56249C57.75 6.30345 57.8266 6.05019 57.9703 5.83461C58.1139 5.61904 58.3181 5.45079 58.5572 5.35106C58.8735 5.21981 66.3324 2.17349 71.5706 5.44949C75.6538 8.00231 82.1192 5.37731 82.1835 5.35106C82.3829 5.26813 82.5997 5.23568 82.8146 5.2566C83.0296 5.27752 83.2361 5.35116 83.4157 5.47099C83.5954 5.59081 83.7427 5.75312 83.8446 5.94352C83.9466 6.13392 83.9999 6.34653 84 6.56249V23.625C84 23.884 83.9234 24.1373 83.7797 24.3529C83.6361 24.5684 83.4319 24.7367 83.1928 24.8364C80.913 25.7282 78.4926 26.2069 76.0449 26.25ZM65.7051 21C67.7634 20.9435 69.7961 21.4675 71.5706 22.512C74.7941 24.528 79.5034 23.3166 81.375 22.7023V8.38949C78.7776 9.13368 73.9121 10.0104 70.1794 7.67549C66.9559 5.66081 62.2466 6.87224 60.375 7.48124V21.798C62.1071 21.2906 63.9003 21.0222 65.7051 21Z" fill="white"/>
</svg>
